<svg width="56" height="76" viewBox="0 0 56 76" fill="none" xmlns="http://www.w3.org/2000/svg">
<path d="M17.99 61.06H19.474L23.338 71H21.686L20.636 68.298H16.8L15.764 71H14.098L17.99 61.06ZM20.328 67.136L18.732 62.782L17.08 67.136H20.328ZM23.7042 67.346C23.7042 66.646 23.8442 66.0113 24.1242 65.442C24.4135 64.8633 24.8055 64.406 25.3002 64.07C25.7949 63.7247 26.3642 63.552 27.0082 63.552C27.5682 63.552 28.0722 63.6967 28.5202 63.986C28.9775 64.2753 29.3322 64.6347 29.5842 65.064V60.78H31.1242V69.264C31.1242 69.4413 31.1569 69.5673 31.2222 69.642C31.2875 69.7167 31.3949 69.7587 31.5442 69.768V71C31.2549 71.0467 31.0309 71.07 30.8722 71.07C30.5829 71.07 30.3355 70.986 30.1302 70.818C29.9342 70.65 29.8315 70.4493 29.8222 70.216L29.8082 69.67C29.5282 70.1367 29.1502 70.5007 28.6742 70.762C28.1982 71.014 27.7035 71.14 27.1902 71.14C26.6862 71.14 26.2195 71.042 25.7902 70.846C25.3702 70.65 25.0015 70.3747 24.6842 70.02C24.3762 69.6653 24.1335 69.2593 23.9562 68.802C23.7882 68.3447 23.7042 67.8593 23.7042 67.346ZM29.5842 68.368V66.45C29.4815 66.1513 29.3135 65.8853 29.0802 65.652C28.8562 65.4093 28.5995 65.218 28.3102 65.078C28.0302 64.938 27.7502 64.868 27.4702 64.868C27.1435 64.868 26.8449 64.938 26.5742 65.078C26.3129 65.218 26.0842 65.4047 25.8882 65.638C25.7015 65.8713 25.5569 66.1373 25.4542 66.436C25.3515 66.7347 25.3002 67.0473 25.3002 67.374C25.3002 67.71 25.3562 68.0273 25.4682 68.326C25.5802 68.6153 25.7389 68.8767 25.9442 69.11C26.1589 69.334 26.4015 69.5113 26.6722 69.642C26.9522 69.7633 27.2555 69.824 27.5822 69.824C27.7875 69.824 27.9929 69.7867 28.1982 69.712C28.4129 69.6373 28.6135 69.5347 28.8002 69.404C28.9962 69.2733 29.1595 69.1193 29.2902 68.942C29.4302 68.7647 29.5282 68.5733 29.5842 68.368ZM32.6182 67.346C32.6182 66.646 32.7583 66.0113 33.0383 65.442C33.3276 64.8633 33.7196 64.406 34.2142 64.07C34.7089 63.7247 35.2783 63.552 35.9223 63.552C36.4823 63.552 36.9863 63.6967 37.4343 63.986C37.8916 64.2753 38.2463 64.6347 38.4983 65.064V60.78H40.0383V69.264C40.0383 69.4413 40.0709 69.5673 40.1363 69.642C40.2016 69.7167 40.3089 69.7587 40.4583 69.768V71C40.1689 71.0467 39.9449 71.07 39.7863 71.07C39.4969 71.07 39.2496 70.986 39.0443 70.818C38.8483 70.65 38.7456 70.4493 38.7363 70.216L38.7223 69.67C38.4423 70.1367 38.0643 70.5007 37.5883 70.762C37.1123 71.014 36.6176 71.14 36.1043 71.14C35.6003 71.14 35.1336 71.042 34.7043 70.846C34.2843 70.65 33.9156 70.3747 33.5983 70.02C33.2903 69.6653 33.0476 69.2593 32.8703 68.802C32.7023 68.3447 32.6182 67.8593 32.6182 67.346ZM38.4983 68.368V66.45C38.3956 66.1513 38.2276 65.8853 37.9943 65.652C37.7703 65.4093 37.5136 65.218 37.2243 65.078C36.9443 64.938 36.6643 64.868 36.3843 64.868C36.0576 64.868 35.7589 64.938 35.4883 65.078C35.2269 65.218 34.9983 65.4047 34.8023 65.638C34.6156 65.8713 34.4709 66.1373 34.3683 66.436C34.2656 66.7347 34.2142 67.0473 34.2142 67.374C34.2142 67.71 34.2703 68.0273 34.3823 68.326C34.4943 68.6153 34.6529 68.8767 34.8583 69.11C35.0729 69.334 35.3156 69.5113 35.5863 69.642C35.8663 69.7633 36.1696 69.824 36.4963 69.824C36.7016 69.824 36.9069 69.7867 37.1123 69.712C37.3269 69.6373 37.5276 69.5347 37.7143 69.404C37.9103 69.2733 38.0736 69.1193 38.2043 68.942C38.3443 68.7647 38.4423 68.5733 38.4983 68.368Z" fill="#333333"/>
<path d="M56 28C56 43.464 43.464 56 28 56C12.536 56 0 43.464 0 28C0 12.536 12.536 0 28 0C43.464 0 56 12.536 56 28Z" fill="currentColor"/>
<path d="M30 16C30 14.8937 29.1062 14 28 14C26.8938 14 26 14.8937 26 16V26H16C14.8937 26 14 26.8938 14 28C14 29.1062 14.8937 30 16 30H26V40C26 41.1063 26.8938 42 28 42C29.1062 42 30 41.1063 30 40V30H40C41.1063 30 42 29.1062 42 28C42 26.8938 41.1063 26 40 26H30V16Z" fill="#FFF9F5"/>
</svg>
