<svg width="56" height="76" viewBox="0 0 56 76" fill="none" xmlns="http://www.w3.org/2000/svg">
<path d="M5.99 61.06H7.474L11.338 71H9.686L8.636 68.298H4.8L3.764 71H2.098L5.99 61.06ZM8.328 67.136L6.732 62.782L5.08 67.136H8.328ZM18.9373 71H17.3973V66.898C17.3973 66.2167 17.2853 65.7173 17.0613 65.4C16.8466 65.0827 16.5246 64.924 16.0953 64.924C15.7966 64.924 15.4979 64.9987 15.1993 65.148C14.9099 65.2973 14.6486 65.5027 14.4153 65.764C14.1819 66.016 14.0139 66.31 13.9113 66.646V71H12.3713V63.678H13.7713V65.148C13.9579 64.8213 14.2006 64.5413 14.4993 64.308C14.8073 64.0653 15.1526 63.8787 15.5353 63.748C15.9179 63.6173 16.3239 63.552 16.7533 63.552C17.1919 63.552 17.5513 63.6313 17.8313 63.79C18.1206 63.9487 18.3446 64.168 18.5033 64.448C18.6713 64.7187 18.7833 65.036 18.8393 65.4C18.9046 65.7547 18.9373 66.1327 18.9373 66.534V71ZM21.5928 63.678L23.3288 66.184L23.4548 66.422L23.5808 66.184L25.3028 63.678H26.9688L24.3368 67.346L26.9968 71H25.3308L23.5808 68.508L23.4548 68.284L23.3288 68.508L21.5788 71H19.9128L22.5728 67.36L19.9408 63.678H21.5928ZM28.0392 71V63.678H29.5792V71H28.0392ZM28.0392 62.474V60.78H29.5792V62.474H28.0392ZM34.7199 71.14C34.1412 71.14 33.6232 71.042 33.1659 70.846C32.7085 70.6407 32.3119 70.3607 31.9759 70.006C31.6492 69.6513 31.3972 69.25 31.2199 68.802C31.0425 68.3447 30.9539 67.8593 30.9539 67.346C30.9539 66.8327 31.0425 66.3473 31.2199 65.89C31.3972 65.4327 31.6492 65.0313 31.9759 64.686C32.3119 64.3313 32.7085 64.056 33.1659 63.86C33.6325 63.6547 34.1505 63.552 34.7199 63.552C35.2892 63.552 35.8025 63.6547 36.2599 63.86C36.7265 64.056 37.1232 64.3313 37.4499 64.686C37.7859 65.0313 38.0425 65.4327 38.2199 65.89C38.3972 66.3473 38.4859 66.8327 38.4859 67.346C38.4859 67.8593 38.3972 68.3447 38.2199 68.802C38.0425 69.25 37.7859 69.6513 37.4499 70.006C37.1232 70.3607 36.7265 70.6407 36.2599 70.846C35.8025 71.042 35.2892 71.14 34.7199 71.14ZM32.5359 67.36C32.5359 67.8267 32.6339 68.2467 32.8299 68.62C33.0259 68.9933 33.2872 69.2873 33.6139 69.502C33.9405 69.7167 34.3092 69.824 34.7199 69.824C35.1212 69.824 35.4852 69.7167 35.8119 69.502C36.1479 69.278 36.4139 68.9793 36.6099 68.606C36.8059 68.2233 36.9039 67.8033 36.9039 67.346C36.9039 66.8793 36.8059 66.4593 36.6099 66.086C36.4139 65.7127 36.1479 65.4187 35.8119 65.204C35.4852 64.98 35.1212 64.868 34.7199 64.868C34.3092 64.868 33.9405 64.98 33.6139 65.204C33.2872 65.428 33.0259 65.7267 32.8299 66.1C32.6339 66.464 32.5359 66.884 32.5359 67.36ZM39.7817 68.158V63.678H41.3217V67.85C41.3217 68.5033 41.4384 68.998 41.6717 69.334C41.9144 69.6607 42.2644 69.824 42.7217 69.824C43.0111 69.824 43.2911 69.7633 43.5617 69.642C43.8417 69.5207 44.0937 69.3433 44.3177 69.11C44.5511 68.8673 44.7377 68.578 44.8777 68.242V63.678H46.4177V69.264C46.4177 69.4413 46.4504 69.5673 46.5157 69.642C46.5811 69.7167 46.6884 69.7587 46.8377 69.768V71C46.6791 71.028 46.5484 71.0467 46.4457 71.056C46.3431 71.0653 46.2451 71.07 46.1517 71.07C45.8717 71.07 45.6384 70.9953 45.4517 70.846C45.2651 70.6873 45.1577 70.4867 45.1297 70.244L45.1017 69.516C44.7751 70.048 44.3504 70.454 43.8277 70.734C43.3051 71.0047 42.7311 71.14 42.1057 71.14C41.3404 71.14 40.7617 70.888 40.3697 70.384C39.9777 69.88 39.7817 69.138 39.7817 68.158ZM50.987 71.14C50.371 71.14 49.7877 71.042 49.237 70.846C48.6863 70.6407 48.215 70.3373 47.823 69.936L48.397 68.9C48.817 69.2733 49.237 69.544 49.657 69.712C50.0863 69.88 50.511 69.964 50.931 69.964C51.3603 69.964 51.7103 69.8847 51.981 69.726C52.2517 69.558 52.387 69.3153 52.387 68.998C52.387 68.7647 52.317 68.592 52.177 68.48C52.037 68.368 51.8317 68.27 51.561 68.186C51.2997 68.102 50.9823 68.0087 50.609 67.906C50.0863 67.7473 49.6477 67.584 49.293 67.416C48.9383 67.2387 48.6723 67.024 48.495 66.772C48.3177 66.52 48.229 66.198 48.229 65.806C48.229 65.33 48.3503 64.924 48.593 64.588C48.8357 64.252 49.1717 63.9953 49.601 63.818C50.0397 63.6407 50.5437 63.552 51.113 63.552C51.645 63.552 52.135 63.636 52.583 63.804C53.0403 63.9627 53.4417 64.2147 53.787 64.56L53.129 65.582C52.8023 65.2833 52.4663 65.064 52.121 64.924C51.785 64.784 51.421 64.714 51.029 64.714C50.805 64.714 50.5903 64.742 50.385 64.798C50.1797 64.8447 50.007 64.938 49.867 65.078C49.7363 65.2087 49.671 65.3953 49.671 65.638C49.671 65.834 49.727 65.9927 49.839 66.114C49.951 66.2353 50.119 66.338 50.343 66.422C50.567 66.506 50.8423 66.5993 51.169 66.702C51.7383 66.87 52.2237 67.038 52.625 67.206C53.0263 67.3647 53.3343 67.5747 53.549 67.836C53.773 68.088 53.885 68.438 53.885 68.886C53.885 69.5953 53.619 70.1507 53.087 70.552C52.5643 70.944 51.8643 71.14 50.987 71.14Z" fill="#333333"/>
<path d="M50.75 28C50.75 21.9663 48.3531 16.1798 44.0867 11.9133C39.8202 7.64687 34.0337 5.25 28 5.25C21.9663 5.25 16.1798 7.64687 11.9133 11.9133C7.64687 16.1798 5.25 21.9663 5.25 28C5.25 34.0337 7.64687 39.8202 11.9133 44.0867C16.1798 48.3531 21.9663 50.75 28 50.75C34.0337 50.75 39.8202 48.3531 44.0867 44.0867C48.3531 39.8202 50.75 34.0337 50.75 28ZM0 28C0 20.5739 2.94999 13.452 8.20101 8.20101C13.452 2.94999 20.5739 0 28 0C35.4261 0 42.548 2.94999 47.799 8.20101C53.05 13.452 56 20.5739 56 28C56 35.4261 53.05 42.548 47.799 47.799C42.548 53.05 35.4261 56 28 56C20.5739 56 13.452 53.05 8.20101 47.799C2.94999 42.548 0 35.4261 0 28ZM19.95 41.8359C18.5938 42.4047 17.0516 41.3875 17.6422 40.0422C19.3922 36.0391 23.3734 33.25 28.0109 33.25C32.6484 33.25 36.6297 36.05 38.3797 40.0422C38.9703 41.3875 37.4281 42.4047 36.0719 41.8359C33.6219 40.7969 30.8875 40.2172 28.0109 40.2172C25.1344 40.2172 22.4 40.7969 19.95 41.8359ZM15.75 22.75C15.75 21.8217 16.1187 20.9315 16.7751 20.2751C17.4315 19.6187 18.3217 19.25 19.25 19.25C20.1783 19.25 21.0685 19.6187 21.7249 20.2751C22.3813 20.9315 22.75 21.8217 22.75 22.75C22.75 23.6783 22.3813 24.5685 21.7249 25.2249C21.0685 25.8813 20.1783 26.25 19.25 26.25C18.3217 26.25 17.4315 25.8813 16.7751 25.2249C16.1187 24.5685 15.75 23.6783 15.75 22.75ZM36.75 19.25C37.6783 19.25 38.5685 19.6187 39.2249 20.2751C39.8812 20.9315 40.25 21.8217 40.25 22.75C40.25 23.6783 39.8812 24.5685 39.2249 25.2249C38.5685 25.8813 37.6783 26.25 36.75 26.25C35.8217 26.25 34.9315 25.8813 34.2751 25.2249C33.6188 24.5685 33.25 23.6783 33.25 22.75C33.25 21.8217 33.6188 20.9315 34.2751 20.2751C34.9315 19.6187 35.8217 19.25 36.75 19.25Z" fill="#6ED3CF"/>
</svg>
