<svg width="48" height="48" viewBox="0 0 48 48" fill="none" xmlns="http://www.w3.org/2000/svg">
<path d="M43.5 24C43.5 18.8283 41.4455 13.8684 37.7886 10.2114C34.1316 6.55446 29.1717 4.5 24 4.5C18.8283 4.5 13.8684 6.55446 10.2114 10.2114C6.55446 13.8684 4.5 18.8283 4.5 24C4.5 29.1717 6.55446 34.1316 10.2114 37.7886C13.8684 41.4455 18.8283 43.5 24 43.5C29.1717 43.5 34.1316 41.4455 37.7886 37.7886C41.4455 34.1316 43.5 29.1717 43.5 24ZM0 24C0 17.6348 2.52856 11.5303 7.02944 7.02944C11.5303 2.52856 17.6348 0 24 0C30.3652 0 36.4697 2.52856 40.9706 7.02944C45.4714 11.5303 48 17.6348 48 24C48 30.3652 45.4714 36.4697 40.9706 40.9706C36.4697 45.4714 30.3652 48 24 48C17.6348 48 11.5303 45.4714 7.02944 40.9706C2.52856 36.4697 0 30.3652 0 24ZM17.1 35.8594C15.9375 36.3469 14.6156 35.475 15.1219 34.3219C16.6219 30.8906 20.0344 28.5 24.0094 28.5C27.9844 28.5 31.3969 30.9 32.8969 34.3219C33.4031 35.475 32.0812 36.3469 30.9187 35.8594C28.8187 34.9688 26.475 34.4719 24.0094 34.4719C21.5438 34.4719 19.2 34.9688 17.1 35.8594ZM13.5 19.5C13.5 18.7044 13.8161 17.9413 14.3787 17.3787C14.9413 16.8161 15.7044 16.5 16.5 16.5C17.2956 16.5 18.0587 16.8161 18.6213 17.3787C19.1839 17.9413 19.5 18.7044 19.5 19.5C19.5 20.2956 19.1839 21.0587 18.6213 21.6213C18.0587 22.1839 17.2956 22.5 16.5 22.5C15.7044 22.5 14.9413 22.1839 14.3787 21.6213C13.8161 21.0587 13.5 20.2956 13.5 19.5ZM31.5 16.5C32.2957 16.5 33.0587 16.8161 33.6213 17.3787C34.1839 17.9413 34.5 18.7044 34.5 19.5C34.5 20.2956 34.1839 21.0587 33.6213 21.6213C33.0587 22.1839 32.2957 22.5 31.5 22.5C30.7044 22.5 29.9413 22.1839 29.3787 21.6213C28.8161 21.0587 28.5 20.2956 28.5 19.5C28.5 18.7044 28.8161 17.9413 29.3787 17.3787C29.9413 16.8161 30.7044 16.5 31.5 16.5Z" fill="#6ED3CF"/>
</svg>
