<svg width="56" height="76" viewBox="0 0 56 76" fill="none" xmlns="http://www.w3.org/2000/svg">
<path d="M20.932 68.438C20.932 68.97 20.792 69.4273 20.512 69.81C20.2413 70.1927 19.8727 70.4867 19.406 70.692C18.9393 70.8973 18.426 71 17.866 71H13.12V61.06H18.244C18.7107 61.06 19.112 61.186 19.448 61.438C19.7933 61.6807 20.0547 61.998 20.232 62.39C20.4187 62.7727 20.512 63.174 20.512 63.594C20.512 64.0793 20.386 64.5367 20.134 64.966C19.8913 65.386 19.5413 65.6987 19.084 65.904C19.6533 66.072 20.1013 66.38 20.428 66.828C20.764 67.2667 20.932 67.8033 20.932 68.438ZM19.322 68.144C19.322 67.864 19.2613 67.612 19.14 67.388C19.028 67.1547 18.8693 66.968 18.664 66.828C18.468 66.6787 18.2347 66.604 17.964 66.604H14.688V69.642H17.866C18.146 69.642 18.3933 69.5767 18.608 69.446C18.832 69.306 19.0047 69.124 19.126 68.9C19.2567 68.6667 19.322 68.4147 19.322 68.144ZM14.688 62.418V65.344H17.572C17.8333 65.344 18.0667 65.2833 18.272 65.162C18.4773 65.0313 18.6407 64.8587 18.762 64.644C18.8833 64.42 18.944 64.168 18.944 63.888C18.944 63.5987 18.888 63.3467 18.776 63.132C18.664 62.908 18.51 62.7353 18.314 62.614C18.1273 62.4833 17.908 62.418 17.656 62.418H14.688ZM21.8393 68.858C21.8393 68.3913 21.9699 67.9853 22.2313 67.64C22.5019 67.2853 22.8706 67.0147 23.3373 66.828C23.8039 66.632 24.3453 66.534 24.9613 66.534C25.2879 66.534 25.6193 66.5573 25.9553 66.604C26.3006 66.6507 26.6039 66.7253 26.8653 66.828V66.366C26.8653 65.8527 26.7113 65.4513 26.4033 65.162C26.0953 64.8727 25.6519 64.728 25.0733 64.728C24.6626 64.728 24.2753 64.8027 23.9113 64.952C23.5473 65.092 23.1599 65.2927 22.7493 65.554L22.2313 64.518C22.7166 64.1913 23.2019 63.9487 23.6873 63.79C24.1819 63.6313 24.6999 63.552 25.2413 63.552C26.2213 63.552 26.9913 63.8133 27.5513 64.336C28.1206 64.8493 28.4053 65.582 28.4053 66.534V69.264C28.4053 69.4413 28.4333 69.5673 28.4893 69.642C28.5546 69.7167 28.6619 69.7587 28.8113 69.768V71C28.6713 71.028 28.5453 71.0467 28.4333 71.056C28.3213 71.0653 28.2279 71.07 28.1533 71.07C27.8266 71.07 27.5793 70.9907 27.4113 70.832C27.2433 70.6733 27.1453 70.4867 27.1173 70.272L27.0753 69.852C26.7579 70.2627 26.3519 70.58 25.8573 70.804C25.3626 71.028 24.8633 71.14 24.3593 71.14C23.8739 71.14 23.4399 71.042 23.0573 70.846C22.6746 70.6407 22.3759 70.3653 22.1613 70.02C21.9466 69.6747 21.8393 69.2873 21.8393 68.858ZM26.5013 69.306C26.6133 69.1847 26.7019 69.0633 26.7673 68.942C26.8326 68.8207 26.8653 68.7133 26.8653 68.62V67.78C26.6039 67.6773 26.3286 67.6027 26.0393 67.556C25.7499 67.5 25.4653 67.472 25.1853 67.472C24.6253 67.472 24.1679 67.584 23.8133 67.808C23.4679 68.032 23.2953 68.34 23.2953 68.732C23.2953 68.9467 23.3513 69.152 23.4633 69.348C23.5846 69.544 23.7526 69.7027 23.9673 69.824C24.1913 69.9453 24.4666 70.006 24.7933 70.006C25.1293 70.006 25.4513 69.9407 25.7593 69.81C26.0673 69.6793 26.3146 69.5113 26.5013 69.306ZM33.5916 71.14C33.0223 71.14 32.5043 71.042 32.0376 70.846C31.5803 70.6407 31.1836 70.3607 30.8476 70.006C30.5116 69.6513 30.2503 69.2453 30.0636 68.788C29.8863 68.3307 29.7976 67.8453 29.7976 67.332C29.7976 66.6413 29.9516 66.0113 30.2596 65.442C30.5769 64.8727 31.0156 64.4153 31.5756 64.07C32.1449 63.7247 32.8169 63.552 33.5916 63.552C34.3383 63.552 34.9869 63.72 35.5376 64.056C36.0976 64.3827 36.5083 64.8213 36.7696 65.372L35.2716 65.848C35.1036 65.54 34.8656 65.302 34.5576 65.134C34.2589 64.9567 33.9276 64.868 33.5636 64.868C33.1529 64.868 32.7796 64.9753 32.4436 65.19C32.1169 65.3953 31.8556 65.6847 31.6596 66.058C31.4729 66.422 31.3796 66.8467 31.3796 67.332C31.3796 67.7987 31.4776 68.2233 31.6736 68.606C31.8696 68.9793 32.1309 69.278 32.4576 69.502C32.7936 69.7167 33.1669 69.824 33.5776 69.824C33.8296 69.824 34.0723 69.782 34.3056 69.698C34.5483 69.6047 34.7583 69.4833 34.9356 69.334C35.1129 69.1753 35.2389 69.0027 35.3136 68.816L36.8256 69.264C36.6669 69.628 36.4289 69.95 36.1116 70.23C35.8036 70.51 35.4349 70.734 35.0056 70.902C34.5856 71.0607 34.1143 71.14 33.5916 71.14ZM43.1899 71L40.8379 67.626L39.6339 68.774V71H38.0939V60.78H39.6339V67.22L43.0219 63.692H44.6739L41.8319 66.758L44.8279 71H43.1899Z" fill="black"/>
<path d="M56 28C56 43.464 43.464 56 28 56C12.536 56 0 43.464 0 28C0 12.536 12.536 0 28 0C43.464 0 56 12.536 56 28Z" fill="currentColor"/>
<path d="M20.2803 21.5007H23.6949C24.8964 21.5007 25.8672 22.4688 25.8672 23.6671C25.8672 24.8654 24.8964 25.8336 23.6949 25.8336H15.0057C13.8041 25.8336 12.8334 24.8654 12.8334 23.6671V15.0014C12.8334 13.8031 13.8041 12.835 15.0057 12.835C16.2072 12.835 17.178 13.8031 17.178 15.0014V18.4677L18.3727 17.2762C24.3126 11.3524 33.9386 11.3524 39.8785 17.2762C45.8183 23.2 45.8183 32.8 39.8785 38.7238C33.9386 44.6476 24.3126 44.6476 18.3727 38.7238C17.5242 37.8775 17.5242 36.5032 18.3727 35.657C19.2213 34.8107 20.5993 34.8107 21.4479 35.657C25.6907 39.8883 32.5673 39.8883 36.8101 35.657C41.0529 31.4257 41.0529 24.5676 36.8101 20.3363C32.5673 16.105 25.6907 16.105 21.4479 20.3363L20.2803 21.5007Z" fill="#EEEEEE"/>
</svg>
