<?xml version="1.0" encoding="utf-8"?>
<!-- Generator: Adobe Illustrator 27.5.0, SVG Export Plug-In . SVG Version: 6.00 Build 0)  -->
<svg version="1.1" id="Layer_1" xmlns="http://www.w3.org/2000/svg" xmlns:xlink="http://www.w3.org/1999/xlink" x="0px" y="0px"
	 viewBox="0 0 56 76" style="enable-background:new 0 0 56 76;" xml:space="preserve">
<path d="M20.9,68.4c0,0.5-0.1,1-0.4,1.4c-0.3,0.4-0.6,0.7-1.1,0.9s-1,0.3-1.5,0.3h-4.7v-9.9h5.1c0.5,0,0.9,0.1,1.2,0.4
	c0.3,0.2,0.6,0.6,0.8,1c0.2,0.4,0.3,0.8,0.3,1.2c0,0.5-0.1,0.9-0.4,1.4c-0.2,0.4-0.6,0.7-1.1,0.9c0.6,0.2,1,0.5,1.3,0.9
	C20.8,67.3,20.9,67.8,20.9,68.4z M19.3,68.1c0-0.3-0.1-0.5-0.2-0.8c-0.1-0.2-0.3-0.4-0.5-0.6c-0.2-0.1-0.4-0.2-0.7-0.2h-3.3v3h3.2
	c0.3,0,0.5-0.1,0.7-0.2c0.2-0.1,0.4-0.3,0.5-0.5C19.3,68.7,19.3,68.4,19.3,68.1z M14.7,62.4v2.9h2.9c0.3,0,0.5-0.1,0.7-0.2
	c0.2-0.1,0.4-0.3,0.5-0.5c0.1-0.2,0.2-0.5,0.2-0.8c0-0.3-0.1-0.5-0.2-0.8c-0.1-0.2-0.3-0.4-0.5-0.5c-0.2-0.1-0.4-0.2-0.7-0.2H14.7z
	 M21.8,68.9c0-0.5,0.1-0.9,0.4-1.2c0.3-0.4,0.6-0.6,1.1-0.8c0.5-0.2,1-0.3,1.6-0.3c0.3,0,0.7,0,1,0.1c0.3,0,0.6,0.1,0.9,0.2v-0.5
	c0-0.5-0.2-0.9-0.5-1.2c-0.3-0.3-0.8-0.4-1.3-0.4c-0.4,0-0.8,0.1-1.2,0.2c-0.4,0.1-0.8,0.3-1.2,0.6l-0.5-1c0.5-0.3,1-0.6,1.5-0.7
	c0.5-0.2,1-0.2,1.6-0.2c1,0,1.8,0.3,2.3,0.8c0.6,0.5,0.9,1.2,0.9,2.2v2.7c0,0.2,0,0.3,0.1,0.4c0.1,0.1,0.2,0.1,0.3,0.1V71
	c-0.1,0-0.3,0-0.4,0.1s-0.2,0-0.3,0c-0.3,0-0.6-0.1-0.7-0.2c-0.2-0.2-0.3-0.3-0.3-0.6l0-0.4c-0.3,0.4-0.7,0.7-1.2,1
	c-0.5,0.2-1,0.3-1.5,0.3c-0.5,0-0.9-0.1-1.3-0.3c-0.4-0.2-0.7-0.5-0.9-0.8C21.9,69.7,21.8,69.3,21.8,68.9z M26.5,69.3
	c0.1-0.1,0.2-0.2,0.3-0.4c0.1-0.1,0.1-0.2,0.1-0.3v-0.8c-0.3-0.1-0.5-0.2-0.8-0.2c-0.3-0.1-0.6-0.1-0.9-0.1c-0.6,0-1,0.1-1.4,0.3
	c-0.3,0.2-0.5,0.5-0.5,0.9c0,0.2,0.1,0.4,0.2,0.6c0.1,0.2,0.3,0.4,0.5,0.5c0.2,0.1,0.5,0.2,0.8,0.2c0.3,0,0.7-0.1,1-0.2
	S26.3,69.5,26.5,69.3z M33.6,71.1c-0.6,0-1.1-0.1-1.6-0.3c-0.5-0.2-0.9-0.5-1.2-0.8c-0.3-0.4-0.6-0.8-0.8-1.2
	c-0.2-0.5-0.3-0.9-0.3-1.5c0-0.7,0.2-1.3,0.5-1.9c0.3-0.6,0.8-1,1.3-1.4c0.6-0.3,1.2-0.5,2-0.5c0.7,0,1.4,0.2,1.9,0.5
	c0.6,0.3,1,0.8,1.2,1.3l-1.5,0.5c-0.2-0.3-0.4-0.5-0.7-0.7c-0.3-0.2-0.6-0.3-1-0.3c-0.4,0-0.8,0.1-1.1,0.3c-0.3,0.2-0.6,0.5-0.8,0.9
	c-0.2,0.4-0.3,0.8-0.3,1.3c0,0.5,0.1,0.9,0.3,1.3c0.2,0.4,0.5,0.7,0.8,0.9c0.3,0.2,0.7,0.3,1.1,0.3c0.3,0,0.5,0,0.7-0.1
	c0.2-0.1,0.5-0.2,0.6-0.4c0.2-0.2,0.3-0.3,0.4-0.5l1.5,0.4c-0.2,0.4-0.4,0.7-0.7,1c-0.3,0.3-0.7,0.5-1.1,0.7
	C34.6,71.1,34.1,71.1,33.6,71.1z M43.2,71l-2.4-3.4l-1.2,1.1V71h-1.5V60.8h1.5v6.4l3.4-3.5h1.7l-2.8,3.1l3,4.2H43.2z"/>
<path d="M28,0C12.5,0,0,12.5,0,28s12.5,28,28,28s28-12.5,28-28S43.5,0,28,0z M39.9,38.7c-5.9,5.9-15.6,5.9-21.5,0
	c-0.8-0.8-0.8-2.2,0-3.1c0.8-0.8,2.2-0.8,3.1,0c4.2,4.2,11.1,4.2,15.4,0c4.2-4.2,4.2-11.1,0-15.3s-11.1-4.2-15.4,0l-1.2,1.2h3.4
	c1.2,0,2.2,1,2.2,2.2s-1,2.2-2.2,2.2H15c-1.2,0-2.2-1-2.2-2.2V15c0-1.2,1-2.2,2.2-2.2c1.2,0,2.2,1,2.2,2.2v3.5l1.2-1.2
	c5.9-5.9,15.6-5.9,21.5,0C45.8,23.2,45.8,32.8,39.9,38.7z"/>
</svg>
