<svg width="56" height="78" viewBox="0 0 56 78" fill="none" xmlns="http://www.w3.org/2000/svg">
<path d="M23.932 70.438C23.932 70.97 23.792 71.4273 23.512 71.81C23.2413 72.1927 22.8727 72.4867 22.406 72.692C21.9393 72.8973 21.426 73 20.866 73H16.12V63.06H21.244C21.7107 63.06 22.112 63.186 22.448 63.438C22.7933 63.6807 23.0547 63.998 23.232 64.39C23.4187 64.7727 23.512 65.174 23.512 65.594C23.512 66.0793 23.386 66.5367 23.134 66.966C22.8913 67.386 22.5413 67.6987 22.084 67.904C22.6533 68.072 23.1013 68.38 23.428 68.828C23.764 69.2667 23.932 69.8033 23.932 70.438ZM22.322 70.144C22.322 69.864 22.2613 69.612 22.14 69.388C22.028 69.1547 21.8693 68.968 21.664 68.828C21.468 68.6787 21.2347 68.604 20.964 68.604H17.688V71.642H20.866C21.146 71.642 21.3933 71.5767 21.608 71.446C21.832 71.306 22.0047 71.124 22.126 70.9C22.2567 70.6667 22.322 70.4147 22.322 70.144ZM17.688 64.418V67.344H20.572C20.8333 67.344 21.0667 67.2833 21.272 67.162C21.4773 67.0313 21.6407 66.8587 21.762 66.644C21.8833 66.42 21.944 66.168 21.944 65.888C21.944 65.5987 21.888 65.3467 21.776 65.132C21.664 64.908 21.51 64.7353 21.314 64.614C21.1273 64.4833 20.908 64.418 20.656 64.418H17.688ZM24.8393 70.858C24.8393 70.3913 24.9699 69.9853 25.2313 69.64C25.5019 69.2853 25.8706 69.0147 26.3373 68.828C26.8039 68.632 27.3453 68.534 27.9613 68.534C28.2879 68.534 28.6193 68.5573 28.9553 68.604C29.3006 68.6507 29.6039 68.7253 29.8653 68.828V68.366C29.8653 67.8527 29.7113 67.4513 29.4033 67.162C29.0953 66.8727 28.6519 66.728 28.0733 66.728C27.6626 66.728 27.2753 66.8027 26.9113 66.952C26.5473 67.092 26.1599 67.2927 25.7493 67.554L25.2313 66.518C25.7166 66.1913 26.2019 65.9487 26.6873 65.79C27.1819 65.6313 27.6999 65.552 28.2413 65.552C29.2213 65.552 29.9913 65.8133 30.5513 66.336C31.1206 66.8493 31.4053 67.582 31.4053 68.534V71.264C31.4053 71.4413 31.4333 71.5673 31.4893 71.642C31.5546 71.7167 31.6619 71.7587 31.8113 71.768V73C31.6713 73.028 31.5453 73.0467 31.4333 73.056C31.3213 73.0653 31.2279 73.07 31.1533 73.07C30.8266 73.07 30.5793 72.9907 30.4113 72.832C30.2433 72.6733 30.1453 72.4867 30.1173 72.272L30.0753 71.852C29.7579 72.2627 29.3519 72.58 28.8573 72.804C28.3626 73.028 27.8633 73.14 27.3593 73.14C26.8739 73.14 26.4399 73.042 26.0573 72.846C25.6746 72.6407 25.3759 72.3653 25.1613 72.02C24.9466 71.6747 24.8393 71.2873 24.8393 70.858ZM29.5013 71.306C29.6133 71.1847 29.7019 71.0633 29.7673 70.942C29.8326 70.8207 29.8653 70.7133 29.8653 70.62V69.78C29.6039 69.6773 29.3286 69.6027 29.0393 69.556C28.7499 69.5 28.4653 69.472 28.1853 69.472C27.6253 69.472 27.1679 69.584 26.8133 69.808C26.4679 70.032 26.2953 70.34 26.2953 70.732C26.2953 70.9467 26.3513 71.152 26.4633 71.348C26.5846 71.544 26.7526 71.7027 26.9673 71.824C27.1913 71.9453 27.4666 72.006 27.7933 72.006C28.1293 72.006 28.4513 71.9407 28.7593 71.81C29.0673 71.6793 29.3146 71.5113 29.5013 71.306ZM32.8116 69.346C32.8116 68.646 32.9516 68.0113 33.2316 67.442C33.5209 66.8633 33.9129 66.406 34.4076 66.07C34.9023 65.7247 35.4716 65.552 36.1156 65.552C36.6756 65.552 37.1796 65.6967 37.6276 65.986C38.0849 66.2753 38.4396 66.6347 38.6916 67.064V62.78H40.2316V71.264C40.2316 71.4413 40.2643 71.5673 40.3296 71.642C40.3949 71.7167 40.5023 71.7587 40.6516 71.768V73C40.3623 73.0467 40.1383 73.07 39.9796 73.07C39.6903 73.07 39.4429 72.986 39.2376 72.818C39.0416 72.65 38.9389 72.4493 38.9296 72.216L38.9156 71.67C38.6356 72.1367 38.2576 72.5007 37.7816 72.762C37.3056 73.014 36.8109 73.14 36.2976 73.14C35.7936 73.14 35.3269 73.042 34.8976 72.846C34.4776 72.65 34.1089 72.3747 33.7916 72.02C33.4836 71.6653 33.2409 71.2593 33.0636 70.802C32.8956 70.3447 32.8116 69.8593 32.8116 69.346ZM38.6916 70.368V68.45C38.5889 68.1513 38.4209 67.8853 38.1876 67.652C37.9636 67.4093 37.7069 67.218 37.4176 67.078C37.1376 66.938 36.8576 66.868 36.5776 66.868C36.2509 66.868 35.9523 66.938 35.6816 67.078C35.4203 67.218 35.1916 67.4047 34.9956 67.638C34.8089 67.8713 34.6643 68.1373 34.5616 68.436C34.4589 68.7347 34.4076 69.0473 34.4076 69.374C34.4076 69.71 34.4636 70.0273 34.5756 70.326C34.6876 70.6153 34.8463 70.8767 35.0516 71.11C35.2663 71.334 35.5089 71.5113 35.7796 71.642C36.0596 71.7633 36.3629 71.824 36.6896 71.824C36.8949 71.824 37.1003 71.7867 37.3056 71.712C37.5203 71.6373 37.7209 71.5347 37.9076 71.404C38.1036 71.2733 38.2669 71.1193 38.3976 70.942C38.5376 70.7647 38.6356 70.5733 38.6916 70.368Z" fill="#333333"/>
<path d="M56 28C56 43.464 43.464 56 28 56C12.536 56 0 43.464 0 28C0 12.536 12.536 0 28 0C43.464 0 56 12.536 56 28Z" fill="#FFD166"/>
<path d="M35.6774 15.1667C37.1734 15.1667 38.3871 16.4644 38.3871 18.0638C38.3871 18.4441 38.3137 18.8002 38.1952 19.1322C39.3468 19.4641 40.1935 20.5868 40.1935 21.9267C40.1935 22.476 40.0468 22.989 39.7984 23.4297C41.0516 23.6832 42 24.8601 42 26.2725C42 27.4616 41.3282 28.4816 40.3685 28.9283C41.3282 29.3749 42 30.3949 42 31.584C42 33.1835 40.7863 34.4812 39.2903 34.4812H30.2581L31.85 38.7304C31.9911 39.1106 32.0645 39.521 32.0645 39.9315V40.185C32.0645 41.8328 30.8169 43.1667 29.2758 43.1667C28.2202 43.1667 27.2548 42.5269 26.7806 41.5189L23.6024 34.7407C23.2242 33.938 23.0323 33.0507 23.0323 32.1514V20.8886C23.0323 19.7176 23.5347 18.6071 24.3871 17.8707L25.0758 17.2852C26.679 15.9151 28.6661 15.1667 30.7153 15.1667H35.6774ZM18.5161 19.0296C19.5153 19.0296 20.3226 19.8927 20.3226 20.961V36.4126C20.3226 37.481 19.5153 38.3441 18.5161 38.3441H15.8065C14.8073 38.3441 14 37.481 14 36.4126V20.961C14 19.8927 14.8073 19.0296 15.8065 19.0296H18.5161Z" fill="#FFF9F5"/>
</svg>
