<?xml version="1.0" encoding="utf-8"?>
<!-- Generator: Adobe Illustrator 27.5.0, SVG Export Plug-In . SVG Version: 6.00 Build 0)  -->
<svg version="1.1" id="Layer_1" xmlns="http://www.w3.org/2000/svg" xmlns:xlink="http://www.w3.org/1999/xlink" x="0px" y="0px"
	 viewBox="0 0 56 78" style="enable-background:new 0 0 56 78;" xml:space="preserve">
<path class="st0" d="M23.9,70.4c0,0.5-0.1,1-0.4,1.4c-0.3,0.4-0.6,0.7-1.1,0.9s-1,0.3-1.5,0.3h-4.7v-9.9h5.1c0.5,0,0.9,0.1,1.2,0.4
	c0.3,0.2,0.6,0.6,0.8,1c0.2,0.4,0.3,0.8,0.3,1.2c0,0.5-0.1,0.9-0.4,1.4c-0.2,0.4-0.6,0.7-1.1,0.9c0.6,0.2,1,0.5,1.3,0.9
	C23.8,69.3,23.9,69.8,23.9,70.4z M22.3,70.1c0-0.3-0.1-0.5-0.2-0.8c-0.1-0.2-0.3-0.4-0.5-0.6c-0.2-0.1-0.4-0.2-0.7-0.2h-3.3v3h3.2
	c0.3,0,0.5-0.1,0.7-0.2c0.2-0.1,0.4-0.3,0.5-0.5C22.3,70.7,22.3,70.4,22.3,70.1z M17.7,64.4v2.9h2.9c0.3,0,0.5-0.1,0.7-0.2
	c0.2-0.1,0.4-0.3,0.5-0.5c0.1-0.2,0.2-0.5,0.2-0.8c0-0.3-0.1-0.5-0.2-0.8c-0.1-0.2-0.3-0.4-0.5-0.5c-0.2-0.1-0.4-0.2-0.7-0.2H17.7z
	 M24.8,70.9c0-0.5,0.1-0.9,0.4-1.2c0.3-0.4,0.6-0.6,1.1-0.8c0.5-0.2,1-0.3,1.6-0.3c0.3,0,0.7,0,1,0.1c0.3,0,0.6,0.1,0.9,0.2v-0.5
	c0-0.5-0.2-0.9-0.5-1.2c-0.3-0.3-0.8-0.4-1.3-0.4c-0.4,0-0.8,0.1-1.2,0.2c-0.4,0.1-0.8,0.3-1.2,0.6l-0.5-1c0.5-0.3,1-0.6,1.5-0.7
	c0.5-0.2,1-0.2,1.6-0.2c1,0,1.8,0.3,2.3,0.8c0.6,0.5,0.9,1.2,0.9,2.2v2.7c0,0.2,0,0.3,0.1,0.4c0.1,0.1,0.2,0.1,0.3,0.1V73
	c-0.1,0-0.3,0-0.4,0.1s-0.2,0-0.3,0c-0.3,0-0.6-0.1-0.7-0.2c-0.2-0.2-0.3-0.3-0.3-0.6l0-0.4c-0.3,0.4-0.7,0.7-1.2,1
	c-0.5,0.2-1,0.3-1.5,0.3c-0.5,0-0.9-0.1-1.3-0.3c-0.4-0.2-0.7-0.5-0.9-0.8C24.9,71.7,24.8,71.3,24.8,70.9z M29.5,71.3
	c0.1-0.1,0.2-0.2,0.3-0.4c0.1-0.1,0.1-0.2,0.1-0.3v-0.8c-0.3-0.1-0.5-0.2-0.8-0.2c-0.3-0.1-0.6-0.1-0.9-0.1c-0.6,0-1,0.1-1.4,0.3
	c-0.3,0.2-0.5,0.5-0.5,0.9c0,0.2,0.1,0.4,0.2,0.6c0.1,0.2,0.3,0.4,0.5,0.5c0.2,0.1,0.5,0.2,0.8,0.2c0.3,0,0.7-0.1,1-0.2
	S29.3,71.5,29.5,71.3z M32.8,69.3c0-0.7,0.1-1.3,0.4-1.9c0.3-0.6,0.7-1,1.2-1.4c0.5-0.3,1.1-0.5,1.7-0.5c0.6,0,1.1,0.1,1.5,0.4
	c0.5,0.3,0.8,0.6,1.1,1.1v-4.3h1.5v8.5c0,0.2,0,0.3,0.1,0.4s0.2,0.1,0.3,0.1V73c-0.3,0-0.5,0.1-0.7,0.1c-0.3,0-0.5-0.1-0.7-0.3
	c-0.2-0.2-0.3-0.4-0.3-0.6l0-0.5c-0.3,0.5-0.7,0.8-1.1,1.1c-0.5,0.3-1,0.4-1.5,0.4c-0.5,0-1-0.1-1.4-0.3c-0.4-0.2-0.8-0.5-1.1-0.8
	c-0.3-0.4-0.6-0.8-0.7-1.2C32.9,70.3,32.8,69.9,32.8,69.3z M38.7,70.4v-1.9c-0.1-0.3-0.3-0.6-0.5-0.8c-0.2-0.2-0.5-0.4-0.8-0.6
	c-0.3-0.1-0.6-0.2-0.8-0.2c-0.3,0-0.6,0.1-0.9,0.2c-0.3,0.1-0.5,0.3-0.7,0.6c-0.2,0.2-0.3,0.5-0.4,0.8c-0.1,0.3-0.2,0.6-0.2,0.9
	c0,0.3,0.1,0.7,0.2,1c0.1,0.3,0.3,0.6,0.5,0.8c0.2,0.2,0.5,0.4,0.7,0.5c0.3,0.1,0.6,0.2,0.9,0.2c0.2,0,0.4,0,0.6-0.1
	c0.2-0.1,0.4-0.2,0.6-0.3c0.2-0.1,0.4-0.3,0.5-0.5C38.5,70.8,38.6,70.6,38.7,70.4z"/>
<path d="M28,0C12.5,0,0,12.5,0,28s12.5,28,28,28s28-12.5,28-28S43.5,0,28,0z M20.3,36.4c0,1.1-0.8,1.9-1.8,1.9h-2.7
	c-1,0-1.8-0.9-1.8-1.9V21c0-1.1,0.8-1.9,1.8-1.9h2.7c1,0,1.8,0.9,1.8,1.9V36.4z M42,31.6c0,1.6-1.2,2.9-2.7,2.9h-9l1.6,4.2
	c0.1,0.4,0.2,0.8,0.2,1.2v0.3c0,1.6-1.2,3-2.8,3c-1.1,0-2-0.6-2.5-1.6l-3.2-6.8c-0.4-0.8-0.6-1.7-0.6-2.6V20.9c0-1.2,0.5-2.3,1.4-3
	l0.7-0.6c1.6-1.4,3.6-2.1,5.6-2.1h5c1.5,0,2.7,1.3,2.7,2.9c0,0.4-0.1,0.7-0.2,1.1c1.2,0.3,2,1.5,2,2.8c0,0.5-0.1,1.1-0.4,1.5
	c1.3,0.3,2.2,1.4,2.2,2.8c0,1.2-0.7,2.2-1.6,2.7C41.3,29.4,42,30.4,42,31.6z"/>
</svg>
