<svg width="64" height="64" viewBox="0 0 64 64" fill="none" xmlns="http://www.w3.org/2000/svg">
<circle cx="32" cy="32" r="32" fill="currentColor"/>
<path d="M34.4 11C34.4 9.34062 33.3275 8 32 8C30.6725 8 29.6 9.34062 29.6 11V17H22.4C18.425 17 15.2 21.0312 15.2 26V47C15.2 51.9688 18.425 56 22.4 56H41.6C45.575 56 48.8 51.9688 48.8 47V26C48.8 21.0312 45.575 17 41.6 17H34.4V11ZM20 45.5C20 44.2531 20.8025 43.25 21.8 43.25H24.2C25.1975 43.25 26 44.2531 26 45.5C26 46.7469 25.1975 47.75 24.2 47.75H21.8C20.8025 47.75 20 46.7469 20 45.5ZM29 45.5C29 44.2531 29.8025 43.25 30.8 43.25H33.2C34.1975 43.25 35 44.2531 35 45.5C35 46.7469 34.1975 47.75 33.2 47.75H30.8C29.8025 47.75 29 46.7469 29 45.5ZM38 45.5C38 44.2531 38.8025 43.25 39.8 43.25H42.2C43.1975 43.25 44 44.2531 44 45.5C44 46.7469 43.1975 47.75 42.2 47.75H39.8C38.8025 47.75 38 46.7469 38 45.5ZM24.8 27.5C25.2728 27.5 25.7409 27.6164 26.1777 27.8425C26.6144 28.0687 27.0113 28.4002 27.3456 28.818C27.6799 29.2359 27.9451 29.732 28.126 30.2779C28.3069 30.8239 28.4 31.4091 28.4 32C28.4 32.5909 28.3069 33.1761 28.126 33.7221C27.9451 34.268 27.6799 34.7641 27.3456 35.182C27.0113 35.5998 26.6144 35.9313 26.1777 36.1575C25.7409 36.3836 25.2728 36.5 24.8 36.5C24.3272 36.5 23.8591 36.3836 23.4223 36.1575C22.9856 35.9313 22.5887 35.5998 22.2544 35.182C21.9201 34.7641 21.655 34.268 21.474 33.7221C21.2931 33.1761 21.2 32.5909 21.2 32C21.2 31.4091 21.2931 30.8239 21.474 30.2779C21.655 29.732 21.9201 29.2359 22.2544 28.818C22.5887 28.4002 22.9856 28.0687 23.4223 27.8425C23.8591 27.6164 24.3272 27.5 24.8 27.5ZM35.6 32C35.6 30.8065 35.9793 29.6619 36.6544 28.818C37.3295 27.9741 38.2452 27.5 39.2 27.5C40.1548 27.5 41.0705 27.9741 41.7456 28.818C42.4207 29.6619 42.8 30.8065 42.8 32C42.8 33.1935 42.4207 34.3381 41.7456 35.182C41.0705 36.0259 40.1548 36.5 39.2 36.5C38.2452 36.5 37.3295 36.0259 36.6544 35.182C35.9793 34.3381 35.6 33.1935 35.6 32ZM12.8 32C12.8 30.3406 11.7275 29 10.4 29C9.0725 29 8 30.3406 8 32V41C8 42.6594 9.0725 44 10.4 44C11.7275 44 12.8 42.6594 12.8 41V32ZM53.6 29C52.2725 29 51.2 30.3406 51.2 32V41C51.2 42.6594 52.2725 44 53.6 44C54.9275 44 56 42.6594 56 41V32C56 30.3406 54.9275 29 53.6 29Z" fill="#FFF9F5"/>
</svg>
