<?xml version="1.0" encoding="utf-8"?>
<!-- Generator: Adobe Illustrator 27.5.0, SVG Export Plug-In . SVG Version: 6.00 Build 0)  -->
<svg version="1.1" id="Layer_1" xmlns="http://www.w3.org/2000/svg" xmlns:xlink="http://www.w3.org/1999/xlink" x="0px" y="0px"
	 viewBox="0 0 64 64" style="enable-background:new 0 0 64 64;" xml:space="preserve">
<g>
	<path d="M33.2,43.2h-2.4c-1,0-1.8,1-1.8,2.2s0.8,2.2,1.8,2.2h2.4c1,0,1.8-1,1.8-2.2S34.2,43.2,33.2,43.2z"/>
	<path d="M24.2,43.2h-2.4c-1,0-1.8,1-1.8,2.2s0.8,2.2,1.8,2.2h2.4c1,0,1.8-1,1.8-2.2S25.2,43.2,24.2,43.2z"/>
	<path d="M41.7,35.2c0.7-0.8,1.1-2,1.1-3.2s-0.4-2.3-1.1-3.2c-0.7-0.8-1.6-1.3-2.5-1.3c-1,0-1.9,0.5-2.5,1.3c-0.7,0.8-1.1,2-1.1,3.2
		s0.4,2.3,1.1,3.2c0.7,0.8,1.6,1.3,2.5,1.3C40.2,36.5,41.1,36,41.7,35.2z"/>
	<path d="M27.3,28.8c-0.3-0.4-0.7-0.7-1.2-1c-0.4-0.2-0.9-0.3-1.4-0.3c-0.5,0-0.9,0.1-1.4,0.3c-0.4,0.2-0.8,0.6-1.2,1
		c-0.3,0.4-0.6,0.9-0.8,1.5c-0.2,0.5-0.3,1.1-0.3,1.7s0.1,1.2,0.3,1.7c0.2,0.5,0.4,1,0.8,1.5c0.3,0.4,0.7,0.7,1.2,1
		c0.4,0.2,0.9,0.3,1.4,0.3c0.5,0,0.9-0.1,1.4-0.3c0.4-0.2,0.8-0.6,1.2-1c0.3-0.4,0.6-0.9,0.8-1.5c0.2-0.5,0.3-1.1,0.3-1.7
		s-0.1-1.2-0.3-1.7C27.9,29.7,27.7,29.2,27.3,28.8z"/>
	<path d="M32,0C14.3,0,0,14.3,0,32s14.3,32,32,32s32-14.3,32-32S49.7,0,32,0z M12.8,41c0,1.7-1.1,3-2.4,3C9.1,44,8,42.7,8,41v-9
		c0-1.7,1.1-3,2.4-3c1.3,0,2.4,1.3,2.4,3V41z M48.8,47c0,5-3.2,9-7.2,9H22.4c-4,0-7.2-4-7.2-9V26c0-5,3.2-9,7.2-9h7.2v-6
		c0-1.7,1.1-3,2.4-3s2.4,1.3,2.4,3v6h7.2c4,0,7.2,4,7.2,9V47z M53.6,44c-1.3,0-2.4-1.3-2.4-3v-9c0-1.7,1.1-3,2.4-3
		c1.3,0,2.4,1.3,2.4,3v9C56,42.7,54.9,44,53.6,44z"/>
	<path d="M42.2,43.2h-2.4c-1,0-1.8,1-1.8,2.2s0.8,2.2,1.8,2.2h2.4c1,0,1.8-1,1.8-2.2S43.2,43.2,42.2,43.2z"/>
</g>
</svg>
