<?xml version="1.0" encoding="utf-8"?>
<!-- Generator: Adobe Illustrator 27.5.0, SVG Export Plug-In . SVG Version: 6.00 Build 0)  -->
<svg version="1.1" id="Layer_1" xmlns="http://www.w3.org/2000/svg" xmlns:xlink="http://www.w3.org/1999/xlink" x="0px" y="0px"
	 viewBox="0 0 64 64" style="enable-background:new 0 0 64 64;" xml:space="preserve">
<style type="text/css">
	.st0{fill:#6ED3CF;}
</style>
<g>
	<path class="st0" d="M25.8,30.8c0.7,0,1.3-0.3,1.8-0.7c0.5-0.5,0.7-1.1,0.7-1.8S28,27,27.5,26.5c-0.5-0.5-1.1-0.7-1.8-0.7
		S24.5,26,24,26.5c-0.5,0.5-0.7,1.1-0.7,1.8s0.3,1.3,0.7,1.8C24.5,30.5,25.1,30.8,25.8,30.8z"/>
	<path class="st0" d="M41.7,36.7c-0.8-0.6-2-0.4-2.6,0.4c-1.6,2.2-4.2,3.6-7.1,3.6s-5.5-1.4-7.1-3.6c-0.6-0.8-1.8-1-2.6-0.4
		c-0.8,0.6-1,1.8-0.4,2.6c2.3,3.1,6,5.1,10.1,5.1s7.8-2,10.1-5.1C42.7,38.5,42.5,37.3,41.7,36.7z"/>
	<path class="st0" d="M38.2,30.8c0.7,0,1.3-0.3,1.8-0.7c0.5-0.5,0.7-1.1,0.7-1.8S40.5,27,40,26.5c-0.5-0.5-1.1-0.7-1.8-0.7
		S37,26,36.5,26.5c-0.5,0.5-0.7,1.1-0.7,1.8s0.3,1.3,0.7,1.8C37,30.5,37.6,30.8,38.2,30.8z"/>
	<path class="st0" d="M32,0C14.3,0,0,14.3,0,32s14.3,32,32,32s32-14.3,32-32S49.7,0,32,0z M46.1,46.1C42.4,49.9,37.3,52,32,52
		s-10.4-2.1-14.1-5.9C14.1,42.4,12,37.3,12,32s2.1-10.4,5.9-14.1C21.6,14.1,26.7,12,32,12s10.4,2.1,14.1,5.9
		C49.9,21.6,52,26.7,52,32S49.9,42.4,46.1,46.1z"/>
</g>
</svg>
