<svg width="64" height="64" viewBox="0 0 64 64" fill="none" xmlns="http://www.w3.org/2000/svg">
<path d="M64 32C64 49.6731 49.6731 64 32 64C14.3269 64 0 49.6731 0 32C0 14.3269 14.3269 0 32 0C49.6731 0 64 14.3269 64 32Z" fill="#6ED3CF"/>
<path d="M32 52C37.3043 52 42.3914 49.8929 46.1421 46.1421C49.8929 42.3914 52 37.3043 52 32C52 26.6957 49.8929 21.6086 46.1421 17.8579C42.3914 14.1071 37.3043 12 32 12C26.6957 12 21.6086 14.1071 17.8579 17.8579C14.1071 21.6086 12 26.6957 12 32C12 37.3043 14.1071 42.3914 17.8579 46.1421C21.6086 49.8929 26.6957 52 32 52ZM24.9219 37.1484C26.5156 39.3359 29.0938 40.75 32 40.75C34.9062 40.75 37.4844 39.3359 39.0781 37.1484C39.6875 36.3125 40.8594 36.125 41.6953 36.7344C42.5312 37.3438 42.7188 38.5156 42.1094 39.3516C39.8359 42.4688 36.1562 44.5 32 44.5C27.8438 44.5 24.1641 42.4688 21.8906 39.3516C21.2812 38.5156 21.4688 37.3438 22.3047 36.7344C23.1406 36.125 24.3125 36.3125 24.9219 37.1484ZM23.25 28.25C23.25 27.587 23.5134 26.9511 23.9822 26.4822C24.4511 26.0134 25.087 25.75 25.75 25.75C26.413 25.75 27.0489 26.0134 27.5178 26.4822C27.9866 26.9511 28.25 27.587 28.25 28.25C28.25 28.913 27.9866 29.5489 27.5178 30.0178C27.0489 30.4866 26.413 30.75 25.75 30.75C25.087 30.75 24.4511 30.4866 23.9822 30.0178C23.5134 29.5489 23.25 28.913 23.25 28.25ZM38.25 25.75C38.913 25.75 39.5489 26.0134 40.0178 26.4822C40.4866 26.9511 40.75 27.587 40.75 28.25C40.75 28.913 40.4866 29.5489 40.0178 30.0178C39.5489 30.4866 38.913 30.75 38.25 30.75C37.587 30.75 36.9511 30.4866 36.4822 30.0178C36.0134 29.5489 35.75 28.913 35.75 28.25C35.75 27.587 36.0134 26.9511 36.4822 26.4822C36.9511 26.0134 37.587 25.75 38.25 25.75Z" fill="#FFF9F5"/>
</svg>
