<svg width="56" height="76" viewBox="0 0 56 76" fill="none" xmlns="http://www.w3.org/2000/svg">
<path d="M8.12 71V61.06H11.648C12.7213 61.06 13.6173 61.284 14.336 61.732C15.0547 62.1707 15.5913 62.768 15.946 63.524C16.31 64.2707 16.492 65.1013 16.492 66.016C16.492 67.024 16.2913 67.9013 15.89 68.648C15.498 69.3947 14.938 69.9733 14.21 70.384C13.482 70.7947 12.628 71 11.648 71H8.12ZM14.896 66.016C14.896 65.316 14.7653 64.7 14.504 64.168C14.252 63.6267 13.8833 63.2067 13.398 62.908C12.922 62.6 12.3387 62.446 11.648 62.446H9.688V69.614H11.648C12.348 69.614 12.936 69.4553 13.412 69.138C13.8973 68.8207 14.266 68.3913 14.518 67.85C14.77 67.3087 14.896 66.6973 14.896 66.016ZM21.2635 71.14C20.6942 71.14 20.1762 71.042 19.7095 70.846C19.2522 70.6407 18.8555 70.3653 18.5195 70.02C18.1835 69.6653 17.9222 69.264 17.7355 68.816C17.5582 68.3587 17.4695 67.8733 17.4695 67.36C17.4695 66.6693 17.6282 66.0393 17.9455 65.47C18.2628 64.8913 18.7062 64.4293 19.2755 64.084C19.8448 63.7293 20.5122 63.552 21.2775 63.552C22.0428 63.552 22.7008 63.7293 23.2515 64.084C23.8115 64.4293 24.2455 64.8867 24.5535 65.456C24.8615 66.0253 25.0155 66.6367 25.0155 67.29C25.0155 67.402 25.0108 67.5093 25.0015 67.612C24.9922 67.7053 24.9828 67.7847 24.9735 67.85H19.1075C19.1355 68.2793 19.2522 68.6573 19.4575 68.984C19.6722 69.3013 19.9428 69.5533 20.2695 69.74C20.5962 69.9173 20.9462 70.006 21.3195 70.006C21.7302 70.006 22.1175 69.9033 22.4815 69.698C22.8548 69.4927 23.1068 69.222 23.2375 68.886L24.5535 69.264C24.3948 69.6187 24.1522 69.9407 23.8255 70.23C23.5082 70.51 23.1302 70.734 22.6915 70.902C22.2528 71.0607 21.7768 71.14 21.2635 71.14ZM19.0655 66.828H23.4895C23.4615 66.408 23.3402 66.0393 23.1255 65.722C22.9202 65.3953 22.6542 65.1433 22.3275 64.966C22.0102 64.7793 21.6555 64.686 21.2635 64.686C20.8808 64.686 20.5262 64.7793 20.1995 64.966C19.8822 65.1433 19.6208 65.3953 19.4155 65.722C19.2102 66.0393 19.0935 66.408 19.0655 66.828ZM26.2857 60.78H27.8257V68.886C27.8257 69.2593 27.8817 69.4973 27.9937 69.6C28.1057 69.7027 28.2457 69.754 28.4137 69.754C28.6003 69.754 28.773 69.7353 28.9317 69.698C29.0997 69.6607 29.2443 69.614 29.3657 69.558L29.5897 70.776C29.3657 70.8693 29.0997 70.9487 28.7917 71.014C28.4837 71.0793 28.2083 71.112 27.9657 71.112C27.443 71.112 27.0323 70.9673 26.7337 70.678C26.435 70.3793 26.2857 69.9687 26.2857 69.446V60.78ZM33.8006 71.14C33.2313 71.14 32.7133 71.042 32.2466 70.846C31.7893 70.6407 31.3926 70.3653 31.0566 70.02C30.7206 69.6653 30.4593 69.264 30.2726 68.816C30.0953 68.3587 30.0066 67.8733 30.0066 67.36C30.0066 66.6693 30.1653 66.0393 30.4826 65.47C30.7999 64.8913 31.2433 64.4293 31.8126 64.084C32.3819 63.7293 33.0493 63.552 33.8146 63.552C34.5799 63.552 35.2379 63.7293 35.7886 64.084C36.3486 64.4293 36.7826 64.8867 37.0906 65.456C37.3986 66.0253 37.5526 66.6367 37.5526 67.29C37.5526 67.402 37.5479 67.5093 37.5386 67.612C37.5293 67.7053 37.5199 67.7847 37.5106 67.85H31.6446C31.6726 68.2793 31.7893 68.6573 31.9946 68.984C32.2093 69.3013 32.4799 69.5533 32.8066 69.74C33.1333 69.9173 33.4833 70.006 33.8566 70.006C34.2673 70.006 34.6546 69.9033 35.0186 69.698C35.3919 69.4927 35.6439 69.222 35.7746 68.886L37.0906 69.264C36.9319 69.6187 36.6893 69.9407 36.3626 70.23C36.0453 70.51 35.6673 70.734 35.2286 70.902C34.7899 71.0607 34.3139 71.14 33.8006 71.14ZM31.6026 66.828H36.0266C35.9986 66.408 35.8773 66.0393 35.6626 65.722C35.4573 65.3953 35.1913 65.1433 34.8646 64.966C34.5473 64.7793 34.1926 64.686 33.8006 64.686C33.4179 64.686 33.0633 64.7793 32.7366 64.966C32.4193 65.1433 32.1579 65.3953 31.9526 65.722C31.7473 66.0393 31.6306 66.408 31.6026 66.828ZM42.8144 70.622C42.6837 70.6873 42.5204 70.7573 42.3244 70.832C42.1284 70.9067 41.9044 70.972 41.6524 71.028C41.4097 71.084 41.1577 71.112 40.8964 71.112C40.5791 71.112 40.2851 71.056 40.0144 70.944C39.7437 70.832 39.5244 70.6547 39.3564 70.412C39.1977 70.16 39.1184 69.838 39.1184 69.446V64.868H38.1524V63.678H39.1184V61.27H40.6584V63.678H42.2544V64.868H40.6584V68.956C40.6771 69.208 40.7564 69.3947 40.8964 69.516C41.0457 69.6373 41.2277 69.698 41.4424 69.698C41.6571 69.698 41.8624 69.6607 42.0584 69.586C42.2544 69.5113 42.3991 69.4507 42.4924 69.404L42.8144 70.622ZM47.1033 71.14C46.534 71.14 46.016 71.042 45.5493 70.846C45.092 70.6407 44.6953 70.3653 44.3593 70.02C44.0233 69.6653 43.762 69.264 43.5753 68.816C43.398 68.3587 43.3093 67.8733 43.3093 67.36C43.3093 66.6693 43.468 66.0393 43.7853 65.47C44.1027 64.8913 44.546 64.4293 45.1153 64.084C45.6847 63.7293 46.352 63.552 47.1173 63.552C47.8827 63.552 48.5407 63.7293 49.0913 64.084C49.6513 64.4293 50.0853 64.8867 50.3933 65.456C50.7013 66.0253 50.8553 66.6367 50.8553 67.29C50.8553 67.402 50.8507 67.5093 50.8413 67.612C50.832 67.7053 50.8227 67.7847 50.8133 67.85H44.9473C44.9753 68.2793 45.092 68.6573 45.2973 68.984C45.512 69.3013 45.7827 69.5533 46.1093 69.74C46.436 69.9173 46.786 70.006 47.1593 70.006C47.57 70.006 47.9573 69.9033 48.3213 69.698C48.6947 69.4927 48.9467 69.222 49.0773 68.886L50.3933 69.264C50.2347 69.6187 49.992 69.9407 49.6653 70.23C49.348 70.51 48.97 70.734 48.5313 70.902C48.0927 71.0607 47.6167 71.14 47.1033 71.14ZM44.9053 66.828H49.3293C49.3013 66.408 49.18 66.0393 48.9653 65.722C48.76 65.3953 48.494 65.1433 48.1673 64.966C47.85 64.7793 47.4953 64.686 47.1033 64.686C46.7207 64.686 46.366 64.7793 46.0393 64.966C45.722 65.1433 45.4607 65.3953 45.2553 65.722C45.05 66.0393 44.9333 66.408 44.9053 66.828Z" fill="#333333"/>
<path d="M56 28C56 43.464 43.464 56 28 56C12.536 56 0 43.464 0 28C0 12.536 12.536 0 28 0C43.464 0 56 12.536 56 28Z" fill="#FFD166"/>
<path d="M22.45 12.796L22 13.7083H16C14.8937 13.7083 14 14.6207 14 15.75C14 16.8793 14.8937 17.7917 16 17.7917H40C41.1063 17.7917 42 16.8793 42 15.75C42 14.6207 41.1063 13.7083 40 13.7083H34L33.55 12.796C33.2125 12.1005 32.5188 11.6667 31.7625 11.6667H24.2375C23.4812 11.6667 22.7875 12.1005 22.45 12.796ZM40 19.8333H16L17.325 41.4622C17.425 43.0764 18.7375 44.3333 20.3187 44.3333H35.6812C37.2625 44.3333 38.575 43.0764 38.675 41.4622L40 19.8333Z" fill="#FFF9F5"/>
</svg>
