<?xml version="1.0" encoding="utf-8"?>
<!-- Generator: Adobe Illustrator 27.5.0, SVG Export Plug-In . SVG Version: 6.00 Build 0)  -->
<svg version="1.1" id="Layer_1" xmlns="http://www.w3.org/2000/svg" xmlns:xlink="http://www.w3.org/1999/xlink" x="0px" y="0px"
	 viewBox="0 0 56 76" style="enable-background:new 0 0 56 76;" xml:space="preserve">
<style type="text/css">
	.st0{fill:#333333;}
</style>
<path class="st0" d="M8.1,71v-9.9h3.5c1.1,0,2,0.2,2.7,0.7c0.7,0.4,1.3,1,1.6,1.8c0.4,0.7,0.5,1.6,0.5,2.5c0,1-0.2,1.9-0.6,2.6
	c-0.4,0.7-1,1.3-1.7,1.7c-0.7,0.4-1.6,0.6-2.6,0.6H8.1z M14.9,66c0-0.7-0.1-1.3-0.4-1.8c-0.3-0.5-0.6-1-1.1-1.3
	c-0.5-0.3-1.1-0.5-1.8-0.5h-2v7.2h2c0.7,0,1.3-0.2,1.8-0.5c0.5-0.3,0.9-0.7,1.1-1.3C14.8,67.3,14.9,66.7,14.9,66z M21.3,71.1
	c-0.6,0-1.1-0.1-1.6-0.3c-0.5-0.2-0.9-0.5-1.2-0.8c-0.3-0.4-0.6-0.8-0.8-1.2c-0.2-0.5-0.3-0.9-0.3-1.5c0-0.7,0.2-1.3,0.5-1.9
	c0.3-0.6,0.8-1,1.3-1.4c0.6-0.4,1.2-0.5,2-0.5s1.4,0.2,2,0.5c0.6,0.3,1,0.8,1.3,1.4c0.3,0.6,0.5,1.2,0.5,1.8c0,0.1,0,0.2,0,0.3
	c0,0.1,0,0.2,0,0.2h-5.9c0,0.4,0.1,0.8,0.4,1.1c0.2,0.3,0.5,0.6,0.8,0.8c0.3,0.2,0.7,0.3,1,0.3c0.4,0,0.8-0.1,1.2-0.3
	c0.4-0.2,0.6-0.5,0.8-0.8l1.3,0.4c-0.2,0.4-0.4,0.7-0.7,1c-0.3,0.3-0.7,0.5-1.1,0.7C22.3,71.1,21.8,71.1,21.3,71.1z M19.1,66.8h4.4
	c0-0.4-0.1-0.8-0.4-1.1c-0.2-0.3-0.5-0.6-0.8-0.8c-0.3-0.2-0.7-0.3-1.1-0.3c-0.4,0-0.7,0.1-1.1,0.3c-0.3,0.2-0.6,0.4-0.8,0.8
	C19.2,66,19.1,66.4,19.1,66.8z M26.3,60.8h1.5v8.1c0,0.4,0.1,0.6,0.2,0.7s0.3,0.2,0.4,0.2c0.2,0,0.4,0,0.5-0.1
	c0.2,0,0.3-0.1,0.4-0.1l0.2,1.2c-0.2,0.1-0.5,0.2-0.8,0.2s-0.6,0.1-0.8,0.1c-0.5,0-0.9-0.1-1.2-0.4c-0.3-0.3-0.4-0.7-0.4-1.2V60.8z
	 M33.8,71.1c-0.6,0-1.1-0.1-1.6-0.3c-0.5-0.2-0.9-0.5-1.2-0.8c-0.3-0.4-0.6-0.8-0.8-1.2c-0.2-0.5-0.3-0.9-0.3-1.5
	c0-0.7,0.2-1.3,0.5-1.9c0.3-0.6,0.8-1,1.3-1.4c0.6-0.4,1.2-0.5,2-0.5c0.8,0,1.4,0.2,2,0.5c0.6,0.3,1,0.8,1.3,1.4
	c0.3,0.6,0.5,1.2,0.5,1.8c0,0.1,0,0.2,0,0.3c0,0.1,0,0.2,0,0.2h-5.9c0,0.4,0.1,0.8,0.4,1.1c0.2,0.3,0.5,0.6,0.8,0.8
	c0.3,0.2,0.7,0.3,1.1,0.3c0.4,0,0.8-0.1,1.2-0.3c0.4-0.2,0.6-0.5,0.8-0.8l1.3,0.4c-0.2,0.4-0.4,0.7-0.7,1c-0.3,0.3-0.7,0.5-1.1,0.7
	C34.8,71.1,34.3,71.1,33.8,71.1z M31.6,66.8H36c0-0.4-0.1-0.8-0.4-1.1c-0.2-0.3-0.5-0.6-0.8-0.8c-0.3-0.2-0.7-0.3-1.1-0.3
	c-0.4,0-0.7,0.1-1.1,0.3c-0.3,0.2-0.6,0.4-0.8,0.8C31.7,66,31.6,66.4,31.6,66.8z M42.8,70.6c-0.1,0.1-0.3,0.1-0.5,0.2
	c-0.2,0.1-0.4,0.1-0.7,0.2c-0.2,0.1-0.5,0.1-0.8,0.1c-0.3,0-0.6-0.1-0.9-0.2c-0.3-0.1-0.5-0.3-0.7-0.5c-0.2-0.3-0.2-0.6-0.2-1v-4.6
	h-1v-1.2h1v-2.4h1.5v2.4h1.6v1.2h-1.6V69c0,0.3,0.1,0.4,0.2,0.6c0.1,0.1,0.3,0.2,0.5,0.2c0.2,0,0.4,0,0.6-0.1s0.3-0.1,0.4-0.2
	L42.8,70.6z M47.1,71.1c-0.6,0-1.1-0.1-1.6-0.3c-0.5-0.2-0.9-0.5-1.2-0.8c-0.3-0.4-0.6-0.8-0.8-1.2c-0.2-0.5-0.3-0.9-0.3-1.5
	c0-0.7,0.2-1.3,0.5-1.9c0.3-0.6,0.8-1,1.3-1.4c0.6-0.4,1.2-0.5,2-0.5c0.8,0,1.4,0.2,2,0.5c0.6,0.3,1,0.8,1.3,1.4
	c0.3,0.6,0.5,1.2,0.5,1.8c0,0.1,0,0.2,0,0.3c0,0.1,0,0.2,0,0.2h-5.9c0,0.4,0.1,0.8,0.3,1.1c0.2,0.3,0.5,0.6,0.8,0.8
	c0.3,0.2,0.7,0.3,1.1,0.3c0.4,0,0.8-0.1,1.2-0.3c0.4-0.2,0.6-0.5,0.8-0.8l1.3,0.4c-0.2,0.4-0.4,0.7-0.7,1c-0.3,0.3-0.7,0.5-1.1,0.7
	C48.1,71.1,47.6,71.1,47.1,71.1z M44.9,66.8h4.4c0-0.4-0.1-0.8-0.4-1.1c-0.2-0.3-0.5-0.6-0.8-0.8c-0.3-0.2-0.7-0.3-1.1-0.3
	c-0.4,0-0.7,0.1-1.1,0.3c-0.3,0.2-0.6,0.4-0.8,0.8C45,66,44.9,66.4,44.9,66.8z"/>
<path d="M28,0C12.5,0,0,12.5,0,28s12.5,28,28,28s28-12.5,28-28S43.5,0,28,0z M38.7,41.5c-0.1,1.6-1.4,2.9-3,2.9H20.3
	c-1.6,0-2.9-1.3-3-2.9L16,19.8h24L38.7,41.5z M40,17.8H16c-1.1,0-2-0.9-2-2s0.9-2,2-2h6l0.5-0.9c0.3-0.7,1-1.1,1.8-1.1h7.5
	c0.8,0,1.5,0.4,1.8,1.1l0.5,0.9h6c1.1,0,2,0.9,2,2S41.1,17.8,40,17.8z"/>
</svg>
