<?xml version="1.0" encoding="utf-8"?>
<!-- Generator: Adobe Illustrator 27.5.0, SVG Export Plug-In . SVG Version: 6.00 Build 0)  -->
<svg version="1.1" id="Layer_1" xmlns="http://www.w3.org/2000/svg" xmlns:xlink="http://www.w3.org/1999/xlink" x="0px" y="0px"
	 viewBox="0 0 56 76" style="enable-background:new 0 0 56 76;" xml:space="preserve">
<style type="text/css">
	.st0{fill:#333333;}
</style>
<path d="M28,0C12.5,0,0,12.5,0,28s12.5,28,28,28s28-12.5,28-28S43.5,0,28,0z M33.6,16.1l6.3,6.3L29.1,33.2c-0.4,0.4-0.9,0.7-1.4,0.9
	L22,36c-0.6,0.2-1.2,0-1.6-0.4c-0.4-0.4-0.6-1-0.4-1.6l1.9-5.7c0.2-0.5,0.5-1,0.9-1.4L33.6,16.1z M40.5,38.1c0,3.4-2.8,6.2-6.2,6.2
	H17.9c-3.4,0-6.2-2.8-6.2-6.2V21.6c0-3.4,2.8-6.2,6.2-6.2H24c1.1,0,2.1,0.9,2.1,2.1c0,1.1-0.9,2.1-2.1,2.1h-6.2
	c-1.1,0-2.1,0.9-2.1,2.1v16.5c0,1.1,0.9,2.1,2.1,2.1h16.5c1.1,0,2.1-0.9,2.1-2.1V32c0-1.1,0.9-2.1,2.1-2.1c1.1,0,2.1,0.9,2.1,2.1
	V38.1z M43.3,19L41.3,21L35,14.7l1.9-1.9c1.4-1.4,3.7-1.4,5.1,0l1.2,1.2C44.7,15.3,44.7,17.6,43.3,19z"/>
<path class="st0" d="M22.9,69.6V71h-6.8v-9.9h6.7v1.4h-5.1v2.8h4.4v1.3h-4.4v3H22.9z M23.7,67.3c0-0.7,0.1-1.3,0.4-1.9
	c0.3-0.6,0.7-1,1.2-1.4c0.5-0.3,1.1-0.5,1.7-0.5c0.6,0,1.1,0.1,1.5,0.4c0.5,0.3,0.8,0.6,1.1,1.1v-4.3h1.5v8.5c0,0.2,0,0.3,0.1,0.4
	c0.1,0.1,0.2,0.1,0.3,0.1V71c-0.3,0-0.5,0.1-0.7,0.1c-0.3,0-0.5-0.1-0.7-0.3c-0.2-0.2-0.3-0.4-0.3-0.6l0-0.5
	c-0.3,0.5-0.7,0.8-1.1,1.1c-0.5,0.3-1,0.4-1.5,0.4c-0.5,0-1-0.1-1.4-0.3c-0.4-0.2-0.8-0.5-1.1-0.8c-0.3-0.4-0.6-0.8-0.7-1.2
	C23.8,68.3,23.7,67.9,23.7,67.3z M29.6,68.4v-1.9c-0.1-0.3-0.3-0.6-0.5-0.8c-0.2-0.2-0.5-0.4-0.8-0.6c-0.3-0.1-0.6-0.2-0.8-0.2
	c-0.3,0-0.6,0.1-0.9,0.2c-0.3,0.1-0.5,0.3-0.7,0.6c-0.2,0.2-0.3,0.5-0.4,0.8c-0.1,0.3-0.2,0.6-0.2,0.9c0,0.3,0.1,0.7,0.2,1
	c0.1,0.3,0.3,0.6,0.5,0.8c0.2,0.2,0.5,0.4,0.7,0.5c0.3,0.1,0.6,0.2,0.9,0.2c0.2,0,0.4,0,0.6-0.1c0.2-0.1,0.4-0.2,0.6-0.3
	c0.2-0.1,0.4-0.3,0.5-0.5C29.5,68.8,29.6,68.6,29.6,68.4z M33.1,71v-7.3h1.5V71H33.1z M33.1,62.5v-1.7h1.5v1.7H33.1z M40.6,70.6
	c-0.1,0.1-0.3,0.1-0.5,0.2c-0.2,0.1-0.4,0.1-0.7,0.2c-0.2,0.1-0.5,0.1-0.8,0.1c-0.3,0-0.6-0.1-0.9-0.2c-0.3-0.1-0.5-0.3-0.7-0.5
	c-0.2-0.3-0.2-0.6-0.2-1v-4.6h-1v-1.2h1v-2.4h1.5v2.4H40v1.2h-1.6V69c0,0.3,0.1,0.4,0.2,0.6c0.1,0.1,0.3,0.2,0.5,0.2
	c0.2,0,0.4,0,0.6-0.1c0.2-0.1,0.3-0.1,0.4-0.2L40.6,70.6z"/>
</svg>
