<svg width="56" height="76" viewBox="0 0 56 76" fill="none" xmlns="http://www.w3.org/2000/svg">
<path d="M56 28C56 43.464 43.464 56 28 56C12.536 56 0 43.464 0 28C0 12.536 12.536 0 28 0C43.464 0 56 12.536 56 28Z" fill="currentColor"/>
<path d="M42.0689 12.7255C40.6571 11.3137 38.375 11.3137 36.9632 12.7255L35.0228 14.6595L41.334 20.9708L43.2744 19.0303C44.6862 17.6185 44.6862 15.3364 43.2744 13.9246L42.0689 12.7255ZM22.7806 26.9081C22.3874 27.3014 22.0844 27.7848 21.9103 28.3199L20.0021 34.0445C19.8152 34.5989 19.9634 35.2114 20.376 35.6304C20.7886 36.0494 21.401 36.1912 21.9619 36.0043L27.6865 34.0961C28.2151 33.922 28.6986 33.619 29.0983 33.2258L39.8835 22.4341L33.5658 16.1165L22.7806 26.9081ZM17.8554 15.4525C14.4387 15.4525 11.6666 18.2245 11.6666 21.6412V38.1446C11.6666 41.5613 14.4387 44.3333 17.8554 44.3333H34.3588C37.7755 44.3333 40.5475 41.5613 40.5475 38.1446V31.9558C40.5475 30.8148 39.6256 29.8929 38.4846 29.8929C37.3435 29.8929 36.4217 30.8148 36.4217 31.9558V38.1446C36.4217 39.2856 35.4998 40.2075 34.3588 40.2075H17.8554C16.7143 40.2075 15.7925 39.2856 15.7925 38.1446V21.6412C15.7925 20.5002 16.7143 19.5783 17.8554 19.5783H24.0441C25.1852 19.5783 26.1071 18.6564 26.1071 17.5154C26.1071 16.3743 25.1852 15.4525 24.0441 15.4525H17.8554Z" fill="#FFF9F5"/>
<path d="M22.938 69.614V71H16.12V61.06H22.812V62.446H17.688V65.274H22.126V66.576H17.688V69.614H22.938ZM23.7472 67.346C23.7472 66.646 23.8872 66.0113 24.1672 65.442C24.4565 64.8633 24.8485 64.406 25.3432 64.07C25.8378 63.7247 26.4072 63.552 27.0512 63.552C27.6112 63.552 28.1152 63.6967 28.5632 63.986C29.0205 64.2753 29.3752 64.6347 29.6272 65.064V60.78H31.1672V69.264C31.1672 69.4413 31.1998 69.5673 31.2652 69.642C31.3305 69.7167 31.4378 69.7587 31.5872 69.768V71C31.2978 71.0467 31.0738 71.07 30.9152 71.07C30.6258 71.07 30.3785 70.986 30.1732 70.818C29.9772 70.65 29.8745 70.4493 29.8652 70.216L29.8512 69.67C29.5712 70.1367 29.1932 70.5007 28.7172 70.762C28.2412 71.014 27.7465 71.14 27.2332 71.14C26.7292 71.14 26.2625 71.042 25.8332 70.846C25.4132 70.65 25.0445 70.3747 24.7272 70.02C24.4192 69.6653 24.1765 69.2593 23.9992 68.802C23.8312 68.3447 23.7472 67.8593 23.7472 67.346ZM29.6272 68.368V66.45C29.5245 66.1513 29.3565 65.8853 29.1232 65.652C28.8992 65.4093 28.6425 65.218 28.3532 65.078C28.0732 64.938 27.7932 64.868 27.5132 64.868C27.1865 64.868 26.8878 64.938 26.6172 65.078C26.3558 65.218 26.1272 65.4047 25.9312 65.638C25.7445 65.8713 25.5998 66.1373 25.4972 66.436C25.3945 66.7347 25.3432 67.0473 25.3432 67.374C25.3432 67.71 25.3992 68.0273 25.5112 68.326C25.6232 68.6153 25.7818 68.8767 25.9872 69.11C26.2018 69.334 26.4445 69.5113 26.7152 69.642C26.9952 69.7633 27.2985 69.824 27.6252 69.824C27.8305 69.824 28.0358 69.7867 28.2412 69.712C28.4558 69.6373 28.6565 69.5347 28.8432 69.404C29.0392 69.2733 29.2025 69.1193 29.3332 68.942C29.4732 68.7647 29.5712 68.5733 29.6272 68.368ZM33.1232 71V63.678H34.6632V71H33.1232ZM33.1232 62.474V60.78H34.6632V62.474H33.1232ZM40.5878 70.622C40.4572 70.6873 40.2938 70.7573 40.0978 70.832C39.9018 70.9067 39.6778 70.972 39.4258 71.028C39.1832 71.084 38.9312 71.112 38.6698 71.112C38.3525 71.112 38.0585 71.056 37.7878 70.944C37.5172 70.832 37.2978 70.6547 37.1298 70.412C36.9712 70.16 36.8918 69.838 36.8918 69.446V64.868H35.9258V63.678H36.8918V61.27H38.4318V63.678H40.0278V64.868H38.4318V68.956C38.4505 69.208 38.5298 69.3947 38.6698 69.516C38.8192 69.6373 39.0012 69.698 39.2158 69.698C39.4305 69.698 39.6358 69.6607 39.8318 69.586C40.0278 69.5113 40.1725 69.4507 40.2658 69.404L40.5878 70.622Z" fill="#333333"/>
</svg>
