<?xml version="1.0" encoding="utf-8"?>
<!-- Generator: Adobe Illustrator 27.5.0, SVG Export Plug-In . SVG Version: 6.00 Build 0)  -->
<svg version="1.1" id="Layer_1" xmlns="http://www.w3.org/2000/svg" xmlns:xlink="http://www.w3.org/1999/xlink" x="0px" y="0px"
	 viewBox="0 0 56 77" style="enable-background:new 0 0 56 77;" xml:space="preserve">
<style type="text/css">
	.st0{fill:#333333;}
</style>
<path class="st0" d="M9.9,70.6V72H3.1v-9.9h6.7v1.4H4.7v2.8h4.4v1.3H4.7v3H9.9z M13.2,72l-2.8-7.3H12l2.1,5.9l2.1-5.9h1.5L14.9,72
	H13.2z M21.9,72.1c-0.6,0-1.1-0.1-1.6-0.3c-0.5-0.2-0.9-0.5-1.2-0.8c-0.3-0.4-0.6-0.8-0.8-1.2c-0.2-0.5-0.3-0.9-0.3-1.5
	c0-0.7,0.2-1.3,0.5-1.9c0.3-0.6,0.8-1,1.3-1.4c0.6-0.4,1.2-0.5,2-0.5c0.8,0,1.4,0.2,2,0.5c0.6,0.3,1,0.8,1.3,1.4s0.5,1.2,0.5,1.8
	c0,0.1,0,0.2,0,0.3c0,0.1,0,0.2,0,0.2h-5.9c0,0.4,0.1,0.8,0.3,1.1c0.2,0.3,0.5,0.6,0.8,0.8c0.3,0.2,0.7,0.3,1.1,0.3
	c0.4,0,0.8-0.1,1.2-0.3c0.4-0.2,0.6-0.5,0.8-0.8l1.3,0.4c-0.2,0.4-0.4,0.7-0.7,1c-0.3,0.3-0.7,0.5-1.1,0.7
	C22.9,72.1,22.4,72.1,21.9,72.1z M19.7,67.8h4.4c0-0.4-0.1-0.8-0.4-1.1c-0.2-0.3-0.5-0.6-0.8-0.8c-0.3-0.2-0.7-0.3-1.1-0.3
	c-0.4,0-0.7,0.1-1.1,0.3c-0.3,0.2-0.6,0.4-0.8,0.8C19.8,67,19.7,67.4,19.7,67.8z M33.5,72h-1.5v-4.1c0-0.7-0.1-1.2-0.3-1.5
	c-0.2-0.3-0.5-0.5-1-0.5c-0.3,0-0.6,0.1-0.9,0.2c-0.3,0.1-0.6,0.4-0.8,0.6c-0.2,0.3-0.4,0.5-0.5,0.9V72h-1.5v-7.3h1.4v1.5
	c0.2-0.3,0.4-0.6,0.7-0.8c0.3-0.2,0.7-0.4,1-0.6s0.8-0.2,1.2-0.2c0.4,0,0.8,0.1,1.1,0.2c0.3,0.2,0.5,0.4,0.7,0.7
	c0.2,0.3,0.3,0.6,0.3,1c0.1,0.4,0.1,0.7,0.1,1.1V72z M35.2,72v-7.3h1.5V72H35.2z M35.2,63.5v-1.7h1.5v1.7H35.2z M45.2,72h-1.5v-4.1
	c0-0.7-0.1-1.2-0.3-1.5c-0.2-0.3-0.5-0.5-1-0.5c-0.3,0-0.6,0.1-0.9,0.2c-0.3,0.1-0.6,0.4-0.8,0.6c-0.2,0.3-0.4,0.5-0.5,0.9V72h-1.5
	v-7.3H40v1.5c0.2-0.3,0.4-0.6,0.7-0.8c0.3-0.2,0.7-0.4,1-0.6c0.4-0.1,0.8-0.2,1.2-0.2c0.4,0,0.8,0.1,1.1,0.2
	c0.3,0.2,0.5,0.4,0.7,0.7c0.2,0.3,0.3,0.6,0.3,1c0.1,0.4,0.1,0.7,0.1,1.1V72z M49.9,72.1c-0.5,0-0.9-0.1-1.4-0.3
	c-0.4-0.2-0.8-0.5-1.1-0.8c-0.3-0.3-0.5-0.7-0.7-1.2c-0.2-0.4-0.2-0.9-0.2-1.4c0-0.5,0.1-1,0.3-1.5s0.4-0.9,0.7-1.2
	c0.3-0.4,0.7-0.6,1.1-0.8c0.4-0.2,0.9-0.3,1.4-0.3c0.6,0,1.1,0.1,1.5,0.4c0.4,0.3,0.8,0.6,1.1,1.1v-1.4h1.4v7.1
	c0,0.7-0.2,1.3-0.5,1.8c-0.3,0.5-0.8,0.9-1.4,1.1c-0.6,0.3-1.3,0.4-2,0.4c-0.8,0-1.5-0.1-2-0.4c-0.5-0.3-1-0.7-1.4-1.1l0.9-0.8
	c0.3,0.4,0.6,0.7,1.1,0.9c0.4,0.2,0.9,0.3,1.4,0.3c0.4,0,0.8-0.1,1.2-0.2c0.4-0.1,0.7-0.4,0.9-0.7c0.2-0.3,0.3-0.7,0.3-1.2v-1.1
	c-0.3,0.4-0.6,0.8-1.1,1C50.9,71.9,50.4,72.1,49.9,72.1z M50.4,70.8c0.2,0,0.5,0,0.7-0.1c0.2-0.1,0.4-0.2,0.6-0.3
	c0.2-0.1,0.3-0.3,0.5-0.5c0.1-0.2,0.2-0.4,0.3-0.6v-1.9c-0.1-0.3-0.3-0.6-0.5-0.8c-0.2-0.2-0.5-0.4-0.8-0.6
	c-0.3-0.1-0.6-0.2-0.9-0.2c-0.3,0-0.6,0.1-0.9,0.2c-0.3,0.1-0.5,0.3-0.7,0.6c-0.2,0.2-0.3,0.5-0.4,0.8c-0.1,0.3-0.2,0.6-0.2,0.9
	c0,0.3,0.1,0.6,0.2,0.9c0.1,0.3,0.3,0.6,0.5,0.8c0.2,0.2,0.4,0.4,0.7,0.5C49.8,70.8,50.1,70.8,50.4,70.8z"/>
<path d="M28,0C12.5,0,0,12.5,0,28s12.5,28,28,28s28-12.5,28-28S43.5,0,28,0z M31.6,42h-13c-2.5,0-4.6-2.4-4.6-5.3
	c0-2.6,1.7-4.8,3.8-5.2c0-2.9,2-5.3,4.6-5.3c1.7,0,3.1,1,3.9,2.5c0.6-0.5,1.4-0.8,2.2-0.8c2.1,0,3.8,2,3.8,4.4c0,0.3,0,0.6-0.1,0.9
	c1.8,0.4,3.1,2.2,3.1,4.3C35.4,40,33.7,42,31.6,42z M41.7,32.1c-1.2,1.4-2.8,2.3-4.6,2.7c-0.5-1.4-1.4-2.5-2.6-3.3
	c-0.4-3.5-2.9-6.2-6.1-6.2c-0.5,0-1.1,0.1-1.6,0.2c-0.2-0.2-0.5-0.4-0.7-0.6c0-0.2,0-0.3,0-0.5c0-5.8,4.1-10.5,9.2-10.5v0
	c0.7,0,1.4,0.1,2,0.3c0.4,0.1,0.6,0.4,0.7,0.8c0,0.4-0.1,0.8-0.5,1c-2.2,1.2-3.7,3.8-3.7,6.8c0,4.2,3,7.5,6.6,7.5c0.2,0,0.4,0,0.5,0
	c0.4,0,0.7,0.2,0.8,0.6C42.1,31.4,42,31.8,41.7,32.1z"/>
</svg>
