<svg width="56" height="77" viewBox="0 0 56 77" fill="none" xmlns="http://www.w3.org/2000/svg">
<path d="M9.938 70.614V72H3.12V62.06H9.812V63.446H4.688V66.274H9.126V67.576H4.688V70.614H9.938ZM13.2395 72L10.4535 64.678H12.0495L14.1355 70.572L16.2215 64.678H17.7055L14.9195 72H13.2395ZM21.8826 72.14C21.3133 72.14 20.7953 72.042 20.3286 71.846C19.8713 71.6407 19.4746 71.3653 19.1386 71.02C18.8026 70.6653 18.5413 70.264 18.3546 69.816C18.1773 69.3587 18.0886 68.8733 18.0886 68.36C18.0886 67.6693 18.2473 67.0393 18.5646 66.47C18.882 65.8913 19.3253 65.4293 19.8946 65.084C20.464 64.7293 21.1313 64.552 21.8966 64.552C22.662 64.552 23.32 64.7293 23.8706 65.084C24.4306 65.4293 24.8646 65.8867 25.1726 66.456C25.4806 67.0253 25.6346 67.6367 25.6346 68.29C25.6346 68.402 25.63 68.5093 25.6206 68.612C25.6113 68.7053 25.602 68.7847 25.5926 68.85H19.7266C19.7546 69.2793 19.8713 69.6573 20.0766 69.984C20.2913 70.3013 20.562 70.5533 20.8886 70.74C21.2153 70.9173 21.5653 71.006 21.9386 71.006C22.3493 71.006 22.7366 70.9033 23.1006 70.698C23.474 70.4927 23.726 70.222 23.8566 69.886L25.1726 70.264C25.014 70.6187 24.7713 70.9407 24.4446 71.23C24.1273 71.51 23.7493 71.734 23.3106 71.902C22.872 72.0607 22.396 72.14 21.8826 72.14ZM19.6846 67.828H24.1086C24.0806 67.408 23.9593 67.0393 23.7446 66.722C23.5393 66.3953 23.2733 66.1433 22.9466 65.966C22.6293 65.7793 22.2746 65.686 21.8826 65.686C21.5 65.686 21.1453 65.7793 20.8186 65.966C20.5013 66.1433 20.24 66.3953 20.0346 66.722C19.8293 67.0393 19.7126 67.408 19.6846 67.828ZM33.4568 72H31.9168V67.898C31.9168 67.2167 31.8048 66.7173 31.5808 66.4C31.3661 66.0827 31.0441 65.924 30.6148 65.924C30.3161 65.924 30.0175 65.9987 29.7188 66.148C29.4295 66.2973 29.1681 66.5027 28.9348 66.764C28.7015 67.016 28.5335 67.31 28.4308 67.646V72H26.8908V64.678H28.2908V66.148C28.4775 65.8213 28.7201 65.5413 29.0188 65.308C29.3268 65.0653 29.6721 64.8787 30.0548 64.748C30.4375 64.6173 30.8435 64.552 31.2728 64.552C31.7115 64.552 32.0708 64.6313 32.3508 64.79C32.6401 64.9487 32.8641 65.168 33.0228 65.448C33.1908 65.7187 33.3028 66.036 33.3588 66.4C33.4241 66.7547 33.4568 67.1327 33.4568 67.534V72ZM35.2443 72V64.678H36.7843V72H35.2443ZM35.2443 63.474V61.78H36.7843V63.474H35.2443ZM45.2009 72H43.6609V67.898C43.6609 67.2167 43.5489 66.7173 43.3249 66.4C43.1103 66.0827 42.7883 65.924 42.3589 65.924C42.0603 65.924 41.7616 65.9987 41.4629 66.148C41.1736 66.2973 40.9123 66.5027 40.6789 66.764C40.4456 67.016 40.2776 67.31 40.1749 67.646V72H38.6349V64.678H40.0349V66.148C40.2216 65.8213 40.4643 65.5413 40.7629 65.308C41.0709 65.0653 41.4163 64.8787 41.7989 64.748C42.1816 64.6173 42.5876 64.552 43.0169 64.552C43.4556 64.552 43.8149 64.6313 44.0949 64.79C44.3843 64.9487 44.6083 65.168 44.7669 65.448C44.9349 65.7187 45.0469 66.036 45.1029 66.4C45.1683 66.7547 45.2009 67.1327 45.2009 67.534V72ZM49.8865 72.07C49.3918 72.07 48.9391 71.972 48.5285 71.776C48.1178 71.5707 47.7631 71.2953 47.4645 70.95C47.1751 70.6047 46.9465 70.208 46.7785 69.76C46.6198 69.312 46.5405 68.8407 46.5405 68.346C46.5405 67.8233 46.6245 67.3333 46.7925 66.876C46.9605 66.4187 47.1938 66.0173 47.4925 65.672C47.8005 65.3173 48.1598 65.042 48.5705 64.846C48.9811 64.65 49.4385 64.552 49.9425 64.552C50.5305 64.552 51.0438 64.692 51.4825 64.972C51.9305 65.252 52.2991 65.616 52.5885 66.064V64.678H53.9465V71.79C53.9465 72.4993 53.7738 73.1013 53.4285 73.596C53.0925 74.0907 52.6305 74.4687 52.0425 74.73C51.4545 74.9913 50.7918 75.122 50.0545 75.122C49.2425 75.122 48.5705 74.982 48.0385 74.702C47.5065 74.422 47.0538 74.0393 46.6805 73.554L47.5485 72.742C47.8285 73.134 48.1878 73.4327 48.6265 73.638C49.0745 73.8433 49.5505 73.946 50.0545 73.946C50.4745 73.946 50.8618 73.8667 51.2165 73.708C51.5805 73.5587 51.8698 73.3207 52.0845 72.994C52.2991 72.6767 52.4065 72.2753 52.4065 71.79V70.67C52.1451 71.1087 51.7858 71.454 51.3285 71.706C50.8711 71.9487 50.3905 72.07 49.8865 72.07ZM50.3905 70.824C50.6238 70.824 50.8478 70.7867 51.0625 70.712C51.2771 70.628 51.4731 70.5207 51.6505 70.39C51.8371 70.25 51.9958 70.096 52.1265 69.928C52.2571 69.7507 52.3505 69.564 52.4065 69.368V67.45C52.2851 67.1327 52.1125 66.8573 51.8885 66.624C51.6645 66.3813 51.4125 66.1947 51.1325 66.064C50.8525 65.9333 50.5678 65.868 50.2785 65.868C49.9425 65.868 49.6391 65.9427 49.3685 66.092C49.1071 66.232 48.8831 66.4233 48.6965 66.666C48.5098 66.8993 48.3651 67.1653 48.2625 67.464C48.1598 67.7627 48.1085 68.0707 48.1085 68.388C48.1085 68.724 48.1645 69.0367 48.2765 69.326C48.3978 69.6153 48.5611 69.8767 48.7665 70.11C48.9718 70.334 49.2145 70.5113 49.4945 70.642C49.7745 70.7633 50.0731 70.824 50.3905 70.824Z" fill="#333333"/>
<path d="M56 28C56 43.464 43.464 56 28 56C12.536 56 0 43.464 0 28C0 12.536 12.536 0 28 0C43.464 0 56 12.536 56 28Z" fill="#FFD166"/>
<path d="M35.3891 14C36.0861 14 36.7641 14.0875 37.4182 14.2571C37.7715 14.3501 38.0388 14.6837 38.0818 15.0994C38.1248 15.5151 37.9386 15.9144 37.6139 16.1004C35.4464 17.3366 33.9568 19.9019 33.9568 22.8611C33.9568 27.0291 36.9073 30.4095 40.5454 30.4095C40.722 30.4095 40.8987 30.404 41.0753 30.3876C41.4382 30.3548 41.7772 30.5845 41.9252 30.9674C42.0732 31.3503 41.9968 31.7933 41.739 32.0832C40.4976 33.4507 38.9173 34.4188 37.1604 34.8127C36.6304 33.4288 35.7185 32.2801 34.5774 31.5417C34.2146 28.0738 31.6364 25.3827 28.5092 25.3827C27.9745 25.3827 27.4541 25.4647 26.9576 25.6124C26.7284 25.3827 26.4849 25.1639 26.2319 24.967C26.2271 24.8138 26.2223 24.6607 26.2223 24.5075C26.2223 18.7095 30.3283 14.0055 35.3891 14.0055V14ZM35.3843 37.6241C35.3843 40.0418 33.6751 42 31.5648 42H18.5834C16.053 42 14 39.648 14 36.749C14 34.1453 15.6519 31.9902 17.8195 31.5745C17.8004 28.6865 19.8677 26.2524 22.4029 26.2524C24.0691 26.2524 25.5253 27.2698 26.3274 28.7904C26.948 28.2926 27.7024 28.0027 28.514 28.0027C30.6243 28.0027 32.3335 29.9609 32.3335 32.3786C32.3335 32.7013 32.3049 33.0186 32.2428 33.3194C34.0284 33.6859 35.3843 35.4745 35.3843 37.6241Z" fill="#FFF9F5"/>
</svg>
