<svg width="48" height="48" viewBox="0 0 48 48" fill="none" xmlns="http://www.w3.org/2000/svg">
<path d="M43.5 24C43.5 18.8283 41.4455 13.8684 37.7886 10.2114C34.1316 6.55446 29.1717 4.5 24 4.5C18.8283 4.5 13.8684 6.55446 10.2114 10.2114C6.55446 13.8684 4.5 18.8283 4.5 24C4.5 29.1717 6.55446 34.1316 10.2114 37.7886C13.8684 41.4455 18.8283 43.5 24 43.5C29.1717 43.5 34.1316 41.4455 37.7886 37.7886C41.4455 34.1316 43.5 29.1717 43.5 24ZM0 24C0 17.6348 2.52856 11.5303 7.02944 7.02944C11.5303 2.52856 17.6348 0 24 0C30.3652 0 36.4697 2.52856 40.9706 7.02944C45.4714 11.5303 48 17.6348 48 24C48 30.3652 45.4714 36.4697 40.9706 40.9706C36.4697 45.4714 30.3652 48 24 48C17.6348 48 11.5303 45.4714 7.02944 40.9706C2.52856 36.4697 0 30.3652 0 24ZM16.6219 29.9438C18.0281 31.4063 20.475 33 24 33C27.525 33 29.9719 31.4063 31.3781 29.9438C32.2406 29.0438 33.6656 29.0156 34.5563 29.8781C35.4469 30.7406 35.4844 32.1656 34.6219 33.0563C32.55 35.2125 28.9969 37.5 24 37.5C19.0031 37.5 15.45 35.2125 13.3781 33.0563C12.5156 32.1562 12.5437 30.7313 13.4437 29.8781C14.3437 29.025 15.7688 29.0438 16.6219 29.9438ZM13.5 19.5C13.5 18.7044 13.8161 17.9413 14.3787 17.3787C14.9413 16.8161 15.7044 16.5 16.5 16.5C17.2957 16.5 18.0587 16.8161 18.6213 17.3787C19.1839 17.9413 19.5 18.7044 19.5 19.5C19.5 20.2957 19.1839 21.0587 18.6213 21.6213C18.0587 22.1839 17.2957 22.5 16.5 22.5C15.7044 22.5 14.9413 22.1839 14.3787 21.6213C13.8161 21.0587 13.5 20.2957 13.5 19.5ZM31.5 16.5C32.2957 16.5 33.0587 16.8161 33.6213 17.3787C34.1839 17.9413 34.5 18.7044 34.5 19.5C34.5 20.2957 34.1839 21.0587 33.6213 21.6213C33.0587 22.1839 32.2957 22.5 31.5 22.5C30.7044 22.5 29.9413 22.1839 29.3787 21.6213C28.8161 21.0587 28.5 20.2957 28.5 19.5C28.5 18.7044 28.8161 17.9413 29.3787 17.3787C29.9413 16.8161 30.7044 16.5 31.5 16.5Z" fill="#6ED3CF"/>
</svg>
