<svg width="56" height="76" viewBox="0 0 56 76" fill="none" xmlns="http://www.w3.org/2000/svg">
<path d="M15.12 71V61.06H21.742V62.446H16.688V65.414H20.916V66.716H16.688V71H15.12ZM23.0314 71V63.678H24.5714V71H23.0314ZM23.0314 62.474V60.78H24.5714V62.474H23.0314ZM32.988 71H31.448V66.898C31.448 66.2167 31.336 65.7173 31.112 65.4C30.8974 65.0827 30.5754 64.924 30.146 64.924C29.8474 64.924 29.5487 64.9987 29.25 65.148C28.9607 65.2973 28.6994 65.5027 28.466 65.764C28.2327 66.016 28.0647 66.31 27.962 66.646V71H26.422V63.678H27.822V65.148C28.0087 64.8213 28.2514 64.5413 28.55 64.308C28.858 64.0653 29.2034 63.8787 29.586 63.748C29.9687 63.6173 30.3747 63.552 30.804 63.552C31.2427 63.552 31.602 63.6313 31.882 63.79C32.1714 63.9487 32.3954 64.168 32.554 64.448C32.722 64.7187 32.834 65.036 32.89 65.4C32.9554 65.7547 32.988 66.1327 32.988 66.534V71ZM38.0936 71.14C37.5242 71.14 37.0062 71.042 36.5396 70.846C36.0822 70.6407 35.6856 70.3653 35.3496 70.02C35.0136 69.6653 34.7522 69.264 34.5656 68.816C34.3882 68.3587 34.2996 67.8733 34.2996 67.36C34.2996 66.6693 34.4582 66.0393 34.7756 65.47C35.0929 64.8913 35.5362 64.4293 36.1056 64.084C36.6749 63.7293 37.3422 63.552 38.1076 63.552C38.8729 63.552 39.5309 63.7293 40.0816 64.084C40.6416 64.4293 41.0756 64.8867 41.3836 65.456C41.6916 66.0253 41.8456 66.6367 41.8456 67.29C41.8456 67.402 41.8409 67.5093 41.8316 67.612C41.8222 67.7053 41.8129 67.7847 41.8036 67.85H35.9376C35.9656 68.2793 36.0822 68.6573 36.2876 68.984C36.5022 69.3013 36.7729 69.5533 37.0996 69.74C37.4262 69.9173 37.7762 70.006 38.1496 70.006C38.5602 70.006 38.9476 69.9033 39.3116 69.698C39.6849 69.4927 39.9369 69.222 40.0676 68.886L41.3836 69.264C41.2249 69.6187 40.9822 69.9407 40.6556 70.23C40.3382 70.51 39.9602 70.734 39.5216 70.902C39.0829 71.0607 38.6069 71.14 38.0936 71.14ZM35.8956 66.828H40.3196C40.2916 66.408 40.1702 66.0393 39.9556 65.722C39.7502 65.3953 39.4842 65.1433 39.1576 64.966C38.8402 64.7793 38.4856 64.686 38.0936 64.686C37.7109 64.686 37.3562 64.7793 37.0296 64.966C36.7122 65.1433 36.4509 65.3953 36.2456 65.722C36.0402 66.0393 35.9236 66.408 35.8956 66.828Z" fill="#333333"/>
<path d="M50.75 28C50.75 21.9663 48.3531 16.1798 44.0867 11.9133C39.8202 7.64687 34.0337 5.25 28 5.25C21.9663 5.25 16.1798 7.64687 11.9133 11.9133C7.64687 16.1798 5.25 21.9663 5.25 28C5.25 34.0337 7.64687 39.8202 11.9133 44.0867C16.1798 48.3531 21.9663 50.75 28 50.75C34.0337 50.75 39.8202 48.3531 44.0867 44.0867C48.3531 39.8202 50.75 34.0337 50.75 28ZM0 28C0 20.5739 2.94999 13.452 8.20101 8.20101C13.452 2.94999 20.5739 0 28 0C35.4261 0 42.548 2.94999 47.799 8.20101C53.05 13.452 56 20.5739 56 28C56 35.4261 53.05 42.548 47.799 47.799C42.548 53.05 35.4261 56 28 56C20.5739 56 13.452 53.05 8.20101 47.799C2.94999 42.548 0 35.4261 0 28ZM19.3922 34.9344C21.0328 36.6406 23.8875 38.5 28 38.5C32.1125 38.5 34.9672 36.6406 36.6078 34.9344C37.6141 33.8844 39.2766 33.8516 40.3156 34.8578C41.3547 35.8641 41.3984 37.5266 40.3922 38.5656C37.975 41.0812 33.8297 43.75 28 43.75C22.1703 43.75 18.025 41.0812 15.6078 38.5656C14.6016 37.5156 14.6344 35.8531 15.6844 34.8578C16.7344 33.8625 18.3969 33.8844 19.3922 34.9344ZM15.75 22.75C15.75 21.8217 16.1187 20.9315 16.7751 20.2751C17.4315 19.6187 18.3217 19.25 19.25 19.25C20.1783 19.25 21.0685 19.6187 21.7249 20.2751C22.3813 20.9315 22.75 21.8217 22.75 22.75C22.75 23.6783 22.3813 24.5685 21.7249 25.2249C21.0685 25.8813 20.1783 26.25 19.25 26.25C18.3217 26.25 17.4315 25.8813 16.7751 25.2249C16.1187 24.5685 15.75 23.6783 15.75 22.75ZM36.75 19.25C37.6783 19.25 38.5685 19.6187 39.2249 20.2751C39.8812 20.9315 40.25 21.8217 40.25 22.75C40.25 23.6783 39.8812 24.5685 39.2249 25.2249C38.5685 25.8813 37.6783 26.25 36.75 26.25C35.8217 26.25 34.9315 25.8813 34.2751 25.2249C33.6188 24.5685 33.25 23.6783 33.25 22.75C33.25 21.8217 33.6188 20.9315 34.2751 20.2751C34.9315 19.6187 35.8217 19.25 36.75 19.25Z" fill="currentColor"/>
</svg>
