<svg width="24" height="28" viewBox="0 0 24 28" fill="none" xmlns="http://www.w3.org/2000/svg">
<path d="M8.60013 0.289987C9.09846 -0.111533 9.83255 -0.0960902 10.3094 0.336316C10.9685 0.933448 11.5579 1.59235 12.1259 2.26155C12.8493 3.11092 13.7173 4.23312 14.5532 5.56637C14.8319 5.21633 15.0891 4.90746 15.3141 4.64493C15.3731 4.57801 15.432 4.50594 15.491 4.43388C15.9143 3.9294 16.4394 3.29624 17.1413 3.29624C17.8593 3.29624 18.363 3.90881 18.7917 4.43388C18.8614 4.52139 18.931 4.60375 19.0007 4.68097C19.5526 5.31928 20.2867 6.24072 21.0208 7.37836C22.4782 9.63819 24 12.8555 24 16.4692C24 22.8369 18.6256 28 11.9973 28C5.36906 28 0 22.842 0 16.4743C0 11.7848 2.20228 7.72325 4.31346 4.89202C5.37977 3.46611 6.44072 2.32332 7.23912 1.54088C7.6785 1.10847 8.12324 0.681211 8.60549 0.295134L8.60013 0.289987ZM12.0938 23.0634C13.4494 23.0634 14.6497 22.703 15.7803 21.9823C18.0362 20.4689 18.6417 17.4421 17.286 15.0639C17.0449 14.6006 16.4287 14.5697 16.0804 14.9609L14.7301 16.4692C14.3764 16.8604 13.7388 16.8501 13.4066 16.4434C12.4796 15.3058 10.7756 13.2313 9.90757 12.1709C9.61822 11.8157 9.0931 11.759 8.75553 12.073C7.77495 12.9893 5.99598 14.9969 5.99598 17.4421C5.99598 20.9734 8.7073 23.0634 12.0884 23.0634H12.0938Z" fill="#FF6363"/>
</svg>
