<svg width="56" height="78" viewBox="0 0 56 78" fill="none" xmlns="http://www.w3.org/2000/svg">
<path d="M15.18 73.07C14.5267 73.07 13.9153 72.9347 13.346 72.664C12.7767 72.3933 12.2773 72.02 11.848 71.544C11.428 71.068 11.0967 70.5267 10.854 69.92C10.6207 69.3133 10.504 68.6693 10.504 67.988C10.504 67.3067 10.6207 66.6673 10.854 66.07C11.0967 65.4727 11.428 64.9407 11.848 64.474C12.2773 64.0073 12.7767 63.6433 13.346 63.382C13.9247 63.1207 14.5547 62.99 15.236 62.99C16.1787 62.99 16.972 63.1907 17.616 63.592C18.2693 63.984 18.7593 64.5067 19.086 65.16L17.882 66.028C17.6207 65.4867 17.2473 65.0807 16.762 64.81C16.286 64.5393 15.7633 64.404 15.194 64.404C14.7273 64.404 14.3027 64.502 13.92 64.698C13.5373 64.894 13.206 65.1647 12.926 65.51C12.6553 65.846 12.45 66.2333 12.31 66.672C12.17 67.1013 12.1 67.554 12.1 68.03C12.1 68.534 12.1793 69.0053 12.338 69.444C12.4967 69.8827 12.7207 70.27 13.01 70.606C13.2993 70.9327 13.64 71.1893 14.032 71.376C14.424 71.5627 14.8487 71.656 15.306 71.656C15.8473 71.656 16.3607 71.5207 16.846 71.25C17.3407 70.97 17.8027 70.5547 18.232 70.004V71.6C17.364 72.58 16.3467 73.07 15.18 73.07ZM18.078 69.136H15.992V67.974H19.394V73H18.078V69.136ZM24.2765 73.14C23.6978 73.14 23.1798 73.042 22.7225 72.846C22.2652 72.6407 21.8685 72.3607 21.5325 72.006C21.2058 71.6513 20.9538 71.25 20.7765 70.802C20.5992 70.3447 20.5105 69.8593 20.5105 69.346C20.5105 68.8327 20.5992 68.3473 20.7765 67.89C20.9538 67.4327 21.2058 67.0313 21.5325 66.686C21.8685 66.3313 22.2652 66.056 22.7225 65.86C23.1892 65.6547 23.7072 65.552 24.2765 65.552C24.8458 65.552 25.3592 65.6547 25.8165 65.86C26.2832 66.056 26.6798 66.3313 27.0065 66.686C27.3425 67.0313 27.5992 67.4327 27.7765 67.89C27.9538 68.3473 28.0425 68.8327 28.0425 69.346C28.0425 69.8593 27.9538 70.3447 27.7765 70.802C27.5992 71.25 27.3425 71.6513 27.0065 72.006C26.6798 72.3607 26.2832 72.6407 25.8165 72.846C25.3592 73.042 24.8458 73.14 24.2765 73.14ZM22.0925 69.36C22.0925 69.8267 22.1905 70.2467 22.3865 70.62C22.5825 70.9933 22.8438 71.2873 23.1705 71.502C23.4972 71.7167 23.8658 71.824 24.2765 71.824C24.6778 71.824 25.0418 71.7167 25.3685 71.502C25.7045 71.278 25.9705 70.9793 26.1665 70.606C26.3625 70.2233 26.4605 69.8033 26.4605 69.346C26.4605 68.8793 26.3625 68.4593 26.1665 68.086C25.9705 67.7127 25.7045 67.4187 25.3685 67.204C25.0418 66.98 24.6778 66.868 24.2765 66.868C23.8658 66.868 23.4972 66.98 23.1705 67.204C22.8438 67.428 22.5825 67.7267 22.3865 68.1C22.1905 68.464 22.0925 68.884 22.0925 69.36ZM32.6984 73.14C32.1197 73.14 31.6017 73.042 31.1444 72.846C30.687 72.6407 30.2904 72.3607 29.9544 72.006C29.6277 71.6513 29.3757 71.25 29.1984 70.802C29.021 70.3447 28.9324 69.8593 28.9324 69.346C28.9324 68.8327 29.021 68.3473 29.1984 67.89C29.3757 67.4327 29.6277 67.0313 29.9544 66.686C30.2904 66.3313 30.687 66.056 31.1444 65.86C31.611 65.6547 32.129 65.552 32.6984 65.552C33.2677 65.552 33.781 65.6547 34.2384 65.86C34.705 66.056 35.1017 66.3313 35.4284 66.686C35.7644 67.0313 36.021 67.4327 36.1984 67.89C36.3757 68.3473 36.4644 68.8327 36.4644 69.346C36.4644 69.8593 36.3757 70.3447 36.1984 70.802C36.021 71.25 35.7644 71.6513 35.4284 72.006C35.1017 72.3607 34.705 72.6407 34.2384 72.846C33.781 73.042 33.2677 73.14 32.6984 73.14ZM30.5144 69.36C30.5144 69.8267 30.6124 70.2467 30.8084 70.62C31.0044 70.9933 31.2657 71.2873 31.5924 71.502C31.919 71.7167 32.2877 71.824 32.6984 71.824C33.0997 71.824 33.4637 71.7167 33.7904 71.502C34.1264 71.278 34.3924 70.9793 34.5884 70.606C34.7844 70.2233 34.8824 69.8033 34.8824 69.346C34.8824 68.8793 34.7844 68.4593 34.5884 68.086C34.3924 67.7127 34.1264 67.4187 33.7904 67.204C33.4637 66.98 33.0997 66.868 32.6984 66.868C32.2877 66.868 31.919 66.98 31.5924 67.204C31.2657 67.428 31.0044 67.7267 30.8084 68.1C30.6124 68.464 30.5144 68.884 30.5144 69.36ZM37.3682 69.346C37.3682 68.646 37.5083 68.0113 37.7883 67.442C38.0776 66.8633 38.4696 66.406 38.9642 66.07C39.4589 65.7247 40.0283 65.552 40.6723 65.552C41.2323 65.552 41.7363 65.6967 42.1843 65.986C42.6416 66.2753 42.9963 66.6347 43.2483 67.064V62.78H44.7883V71.264C44.7883 71.4413 44.8209 71.5673 44.8863 71.642C44.9516 71.7167 45.0589 71.7587 45.2083 71.768V73C44.9189 73.0467 44.6949 73.07 44.5363 73.07C44.2469 73.07 43.9996 72.986 43.7943 72.818C43.5983 72.65 43.4956 72.4493 43.4863 72.216L43.4723 71.67C43.1923 72.1367 42.8143 72.5007 42.3383 72.762C41.8623 73.014 41.3676 73.14 40.8543 73.14C40.3503 73.14 39.8836 73.042 39.4543 72.846C39.0343 72.65 38.6656 72.3747 38.3483 72.02C38.0403 71.6653 37.7976 71.2593 37.6203 70.802C37.4523 70.3447 37.3682 69.8593 37.3682 69.346ZM43.2483 70.368V68.45C43.1456 68.1513 42.9776 67.8853 42.7443 67.652C42.5203 67.4093 42.2636 67.218 41.9743 67.078C41.6943 66.938 41.4143 66.868 41.1343 66.868C40.8076 66.868 40.5089 66.938 40.2383 67.078C39.9769 67.218 39.7483 67.4047 39.5523 67.638C39.3656 67.8713 39.2209 68.1373 39.1183 68.436C39.0156 68.7347 38.9642 69.0473 38.9642 69.374C38.9642 69.71 39.0203 70.0273 39.1323 70.326C39.2443 70.6153 39.4029 70.8767 39.6083 71.11C39.8229 71.334 40.0656 71.5113 40.3363 71.642C40.6163 71.7633 40.9196 71.824 41.2463 71.824C41.4516 71.824 41.6569 71.7867 41.8623 71.712C42.0769 71.6373 42.2776 71.5347 42.4643 71.404C42.6603 71.2733 42.8236 71.1193 42.9543 70.942C43.0943 70.7647 43.1923 70.5733 43.2483 70.368Z" fill="#333333"/>
<path d="M56 28C56 43.464 43.464 56 28 56C12.536 56 0 43.464 0 28C0 12.536 12.536 0 28 0C43.464 0 56 12.536 56 28Z" fill="currentColor"/>
<path d="M18.5161 22.6897C19.5153 22.6897 20.3226 23.5526 20.3226 24.6207V40.069C20.3226 41.1371 19.5153 42 18.5161 42H15.8065C14.8073 42 14 41.1371 14 40.069V24.6207C14 23.5526 14.8073 22.6897 15.8065 22.6897H18.5161ZM29.2758 14C30.8169 14 32.0645 15.3336 32.0645 16.981V17.2345C32.0645 17.6448 31.9911 18.0552 31.85 18.4353L30.2581 22.6897H39.2903C40.7863 22.6897 42 23.9871 42 25.5862C42 26.775 41.3282 27.7948 40.3685 28.2414C41.3282 28.6879 42 29.7078 42 30.8966C42 32.3086 41.0516 33.4853 39.7984 33.7388C40.0468 34.1793 40.1935 34.6922 40.1935 35.2414C40.1935 36.581 39.3468 37.7034 38.1952 38.0353C38.3194 38.3672 38.3871 38.7293 38.3871 39.1034C38.3871 40.7026 37.1734 42 35.6774 42H30.7153C28.6661 42 26.6734 41.2517 25.0758 39.8819L24.3871 39.2966C23.529 38.5664 23.0323 37.456 23.0323 36.2793V25.019C23.0323 24.1198 23.2298 23.2328 23.6024 22.4302L26.775 15.6474C27.2492 14.6397 28.2145 14 29.2758 14Z" fill="#FFF9F5"/>
</svg>
