<?xml version="1.0" encoding="utf-8"?>
<!-- Generator: Adobe Illustrator 27.5.0, SVG Export Plug-In . SVG Version: 6.00 Build 0)  -->
<svg version="1.1" id="Layer_1" xmlns="http://www.w3.org/2000/svg" xmlns:xlink="http://www.w3.org/1999/xlink" x="0px" y="0px"
	 viewBox="0 0 56 78" style="enable-background:new 0 0 56 78;" xml:space="preserve">
<path class="st0" d="M15.2,73.1c-0.7,0-1.3-0.1-1.8-0.4c-0.6-0.3-1.1-0.6-1.5-1.1c-0.4-0.5-0.8-1-1-1.6c-0.2-0.6-0.4-1.3-0.4-1.9
	s0.1-1.3,0.4-1.9c0.2-0.6,0.6-1.1,1-1.6c0.4-0.5,0.9-0.8,1.5-1.1c0.6-0.3,1.2-0.4,1.9-0.4c0.9,0,1.7,0.2,2.4,0.6
	c0.7,0.4,1.1,0.9,1.5,1.6L17.9,66c-0.3-0.5-0.6-0.9-1.1-1.2c-0.5-0.3-1-0.4-1.6-0.4c-0.5,0-0.9,0.1-1.3,0.3s-0.7,0.5-1,0.8
	c-0.3,0.3-0.5,0.7-0.6,1.2c-0.1,0.4-0.2,0.9-0.2,1.4c0,0.5,0.1,1,0.2,1.4s0.4,0.8,0.7,1.2c0.3,0.3,0.6,0.6,1,0.8
	c0.4,0.2,0.8,0.3,1.3,0.3c0.5,0,1.1-0.1,1.5-0.4c0.5-0.3,1-0.7,1.4-1.2v1.6C17.4,72.6,16.3,73.1,15.2,73.1z M18.1,69.1H16V68h3.4v5
	h-1.3V69.1z M24.3,73.1c-0.6,0-1.1-0.1-1.6-0.3c-0.5-0.2-0.9-0.5-1.2-0.8c-0.3-0.4-0.6-0.8-0.8-1.2c-0.2-0.5-0.3-0.9-0.3-1.5
	s0.1-1,0.3-1.5c0.2-0.5,0.4-0.9,0.8-1.2c0.3-0.4,0.7-0.6,1.2-0.8c0.5-0.2,1-0.3,1.6-0.3c0.6,0,1.1,0.1,1.5,0.3
	c0.5,0.2,0.9,0.5,1.2,0.8c0.3,0.3,0.6,0.7,0.8,1.2c0.2,0.5,0.3,0.9,0.3,1.5s-0.1,1-0.3,1.5c-0.2,0.4-0.4,0.8-0.8,1.2
	c-0.3,0.4-0.7,0.6-1.2,0.8C25.4,73,24.8,73.1,24.3,73.1z M22.1,69.4c0,0.5,0.1,0.9,0.3,1.3c0.2,0.4,0.5,0.7,0.8,0.9s0.7,0.3,1.1,0.3
	c0.4,0,0.8-0.1,1.1-0.3c0.3-0.2,0.6-0.5,0.8-0.9c0.2-0.4,0.3-0.8,0.3-1.3c0-0.5-0.1-0.9-0.3-1.3s-0.5-0.7-0.8-0.9
	c-0.3-0.2-0.7-0.3-1.1-0.3c-0.4,0-0.8,0.1-1.1,0.3s-0.6,0.5-0.8,0.9C22.2,68.5,22.1,68.9,22.1,69.4z M32.7,73.1
	c-0.6,0-1.1-0.1-1.6-0.3c-0.5-0.2-0.9-0.5-1.2-0.8c-0.3-0.4-0.6-0.8-0.8-1.2c-0.2-0.5-0.3-0.9-0.3-1.5s0.1-1,0.3-1.5
	c0.2-0.5,0.4-0.9,0.8-1.2c0.3-0.4,0.7-0.6,1.2-0.8c0.5-0.2,1-0.3,1.6-0.3c0.6,0,1.1,0.1,1.5,0.3c0.5,0.2,0.9,0.5,1.2,0.8
	c0.3,0.3,0.6,0.7,0.8,1.2c0.2,0.5,0.3,0.9,0.3,1.5s-0.1,1-0.3,1.5c-0.2,0.4-0.4,0.8-0.8,1.2c-0.3,0.4-0.7,0.6-1.2,0.8
	C33.8,73,33.3,73.1,32.7,73.1z M30.5,69.4c0,0.5,0.1,0.9,0.3,1.3c0.2,0.4,0.5,0.7,0.8,0.9c0.3,0.2,0.7,0.3,1.1,0.3
	c0.4,0,0.8-0.1,1.1-0.3c0.3-0.2,0.6-0.5,0.8-0.9c0.2-0.4,0.3-0.8,0.3-1.3c0-0.5-0.1-0.9-0.3-1.3c-0.2-0.4-0.5-0.7-0.8-0.9
	c-0.3-0.2-0.7-0.3-1.1-0.3c-0.4,0-0.8,0.1-1.1,0.3c-0.3,0.2-0.6,0.5-0.8,0.9C30.6,68.5,30.5,68.9,30.5,69.4z M37.4,69.3
	c0-0.7,0.1-1.3,0.4-1.9c0.3-0.6,0.7-1,1.2-1.4c0.5-0.3,1.1-0.5,1.7-0.5c0.6,0,1.1,0.1,1.5,0.4c0.5,0.3,0.8,0.6,1.1,1.1v-4.3h1.5v8.5
	c0,0.2,0,0.3,0.1,0.4c0.1,0.1,0.2,0.1,0.3,0.1V73c-0.3,0-0.5,0.1-0.7,0.1c-0.3,0-0.5-0.1-0.7-0.3c-0.2-0.2-0.3-0.4-0.3-0.6l0-0.5
	c-0.3,0.5-0.7,0.8-1.1,1.1c-0.5,0.3-1,0.4-1.5,0.4c-0.5,0-1-0.1-1.4-0.3c-0.4-0.2-0.8-0.5-1.1-0.8c-0.3-0.4-0.6-0.8-0.7-1.2
	C37.5,70.3,37.4,69.9,37.4,69.3z M43.2,70.4v-1.9c-0.1-0.3-0.3-0.6-0.5-0.8c-0.2-0.2-0.5-0.4-0.8-0.6c-0.3-0.1-0.6-0.2-0.8-0.2
	c-0.3,0-0.6,0.1-0.9,0.2c-0.3,0.1-0.5,0.3-0.7,0.6c-0.2,0.2-0.3,0.5-0.4,0.8C39,68.7,39,69,39,69.4c0,0.3,0.1,0.7,0.2,1
	c0.1,0.3,0.3,0.6,0.5,0.8c0.2,0.2,0.5,0.4,0.7,0.5c0.3,0.1,0.6,0.2,0.9,0.2c0.2,0,0.4,0,0.6-0.1c0.2-0.1,0.4-0.2,0.6-0.3
	c0.2-0.1,0.4-0.3,0.5-0.5C43.1,70.8,43.2,70.6,43.2,70.4z"/>
<path d="M28,0C12.5,0,0,12.5,0,28s12.5,28,28,28s28-12.5,28-28S43.5,0,28,0z M20.3,40.1c0,1.1-0.8,1.9-1.8,1.9h-2.7
	c-1,0-1.8-0.9-1.8-1.9V24.6c0-1.1,0.8-1.9,1.8-1.9h2.7c1,0,1.8,0.9,1.8,1.9V40.1z M42,30.9c0,1.4-0.9,2.6-2.2,2.8
	c0.2,0.4,0.4,1,0.4,1.5c0,1.3-0.8,2.5-2,2.8c0.1,0.3,0.2,0.7,0.2,1.1c0,1.6-1.2,2.9-2.7,2.9h-5c-2,0-4-0.7-5.6-2.1l-0.7-0.6
	c-0.9-0.7-1.4-1.8-1.4-3V25c0-0.9,0.2-1.8,0.6-2.6l3.2-6.8c0.5-1,1.4-1.6,2.5-1.6c1.5,0,2.8,1.3,2.8,3v0.3c0,0.4-0.1,0.8-0.2,1.2
	l-1.6,4.3h9c1.5,0,2.7,1.3,2.7,2.9c0,1.2-0.7,2.2-1.6,2.7C41.3,28.7,42,29.7,42,30.9z"/>
</svg>
