<svg width="64" height="64" viewBox="0 0 64 64" fill="none" xmlns="http://www.w3.org/2000/svg">
<path d="M64 32C64 49.6731 49.6731 64 32 64C14.3269 64 0 49.6731 0 32C0 14.3269 14.3269 0 32 0C49.6731 0 64 14.3269 64 32Z" fill="#6ED3CF"/>
<path d="M31.9961 22.0904C31.9961 22.0927 31.9932 22.0936 31.9919 22.0918L30.8244 20.4267C28.8717 17.647 25.7395 16 22.3964 16C16.6553 16 12 20.7882 12 26.6931V26.902C12 30.529 15.6597 32.7106 19.2866 32.7106H21.5763C21.8262 32.7106 22.0527 32.5579 22.1543 32.3169L24.6382 26.187C24.9272 25.48 25.5989 25.0141 26.341 24.998C27.083 24.9819 27.7704 25.4318 28.075 26.1308L29.1151 28.5061C30.2837 31.1747 34.0421 31.2494 35.3158 28.6293C35.636 27.9786 36.2843 27.5608 36.9951 27.5608C37.7059 27.5608 38.3542 27.9705 38.6745 28.6293L40.4866 32.349C40.596 32.5659 40.8069 32.7025 41.049 32.7025H44.7127C48.3423 32.7025 52 30.5236 52 26.894V26.6851C51.9922 20.7882 47.3368 16 41.5958 16C38.2605 16 35.1205 17.647 33.1677 20.4267L31.9965 22.0891C31.9962 22.0895 31.9961 22.09 31.9961 22.0904ZM44.0727 42.6493C46.2806 40.1563 44.3713 36.5668 41.0412 36.5668C39.3853 36.5668 37.8699 35.6028 37.1279 34.0763C37.0741 33.9656 36.9162 33.9656 36.8625 34.0764L33.6755 40.64C33.3552 41.3069 32.6835 41.7246 31.957 41.7085C31.2306 41.6925 30.5823 41.2506 30.2855 40.5758L27.3106 33.7797C26.984 33.0335 25.9204 33.0482 25.6145 33.8032C24.935 35.4823 23.3415 36.5749 21.5763 36.5749C18.8454 36.5749 17.2599 39.5296 19.0202 41.6174C22.281 45.4848 26.0053 48.812 28.6218 50.8672C29.5903 51.6224 30.7776 52 31.9883 52C33.199 52 34.3941 51.6304 35.3548 50.8672C37.7437 48.9934 41.042 46.0716 44.0727 42.6493Z" fill="#FFF9F5"/>
</svg>
