<?xml version="1.0" encoding="utf-8"?>
<!-- Generator: Adobe Illustrator 27.5.0, SVG Export Plug-In . SVG Version: 6.00 Build 0)  -->
<svg version="1.1" id="Layer_1" xmlns="http://www.w3.org/2000/svg" xmlns:xlink="http://www.w3.org/1999/xlink" x="0px" y="0px"
	 viewBox="0 0 64 64" style="enable-background:new 0 0 64 64;" xml:space="preserve">
<style type="text/css">
	.st0{fill:#6ED3CF;}
</style>
<path class="st0" d="M32,0C14.3,0,0,14.3,0,32s14.3,32,32,32s32-14.3,32-32S49.7,0,32,0z M44.1,42.6c-3,3.4-6.3,6.3-8.7,8.2
	c-1,0.8-2.2,1.1-3.4,1.1s-2.4-0.4-3.4-1.1c-2.6-2.1-6.3-5.4-9.6-9.2c-1.8-2.1-0.2-5,2.6-5c1.8,0,3.4-1.1,4-2.8
	c0.3-0.8,1.4-0.8,1.7,0l3,6.8c0.3,0.7,0.9,1.1,1.7,1.1c0.7,0,1.4-0.4,1.7-1.1l3.2-6.6c0.1-0.1,0.2-0.1,0.3,0
	c0.7,1.5,2.3,2.5,3.9,2.5C44.4,36.6,46.3,40.2,44.1,42.6z M52,26.9c0,3.6-3.7,5.8-7.3,5.8H41c-0.2,0-0.5-0.1-0.6-0.4l-1.8-3.7
	c-0.3-0.7-1-1.1-1.7-1.1c-0.7,0-1.4,0.4-1.7,1.1c-1.3,2.6-5,2.5-6.2-0.1l-1-2.4c-0.3-0.7-1-1.1-1.7-1.1c-0.7,0-1.4,0.5-1.7,1.2
	l-2.5,6.1c-0.1,0.2-0.3,0.4-0.6,0.4h-2.3c-3.6,0-7.3-2.2-7.3-5.8v-0.2C12,20.8,16.7,16,22.4,16c3.3,0,6.5,1.6,8.4,4.4l1.2,1.7
	c0,0,0,0,0,0c0,0,0,0,0,0l1.2-1.7c2-2.8,5.1-4.4,8.4-4.4C47.3,16,52,20.8,52,26.7V26.9z"/>
</svg>
