<svg width="48" height="48" viewBox="0 0 48 48" fill="none" xmlns="http://www.w3.org/2000/svg">
<path d="M43.5 24C43.5 18.8283 41.4455 13.8684 37.7886 10.2114C34.1316 6.55446 29.1717 4.5 24 4.5C18.8283 4.5 13.8684 6.55446 10.2114 10.2114C6.55446 13.8684 4.5 18.8283 4.5 24C4.5 29.1717 6.55446 34.1316 10.2114 37.7886C13.8684 41.4455 18.8283 43.5 24 43.5C29.1717 43.5 34.1316 41.4455 37.7886 37.7886C41.4455 34.1316 43.5 29.1717 43.5 24ZM0 24C0 17.6348 2.52856 11.5303 7.02944 7.02944C11.5303 2.52856 17.6348 0 24 0C30.3652 0 36.4697 2.52856 40.9706 7.02944C45.4714 11.5303 48 17.6348 48 24C48 30.3652 45.4714 36.4697 40.9706 40.9706C36.4697 45.4714 30.3652 48 24 48C17.6348 48 11.5303 45.4714 7.02944 40.9706C2.52856 36.4697 0 30.3652 0 24ZM11.0906 29.4563C10.6969 28.1719 11.7562 27 13.0969 27H34.9031C36.2437 27 37.3031 28.1719 36.9094 29.4563C35.2219 34.9781 30.075 39 24 39C17.925 39 12.7781 34.9781 11.0906 29.4563ZM13.5 18C13.5 17.2044 13.8161 16.4413 14.3787 15.8787C14.9413 15.3161 15.7044 15 16.5 15C17.2956 15 18.0587 15.3161 18.6213 15.8787C19.1839 16.4413 19.5 17.2044 19.5 18C19.5 18.7956 19.1839 19.5587 18.6213 20.1213C18.0587 20.6839 17.2956 21 16.5 21C15.7044 21 14.9413 20.6839 14.3787 20.1213C13.8161 19.5587 13.5 18.7956 13.5 18ZM31.5 15C32.2956 15 33.0587 15.3161 33.6213 15.8787C34.1839 16.4413 34.5 17.2044 34.5 18C34.5 18.7956 34.1839 19.5587 33.6213 20.1213C33.0587 20.6839 32.2956 21 31.5 21C30.7044 21 29.9413 20.6839 29.3787 20.1213C28.8161 19.5587 28.5 18.7956 28.5 18C28.5 17.2044 28.8161 16.4413 29.3787 15.8787C29.9413 15.3161 30.7044 15 31.5 15Z" fill="currentColor"/>
</svg>
