<svg width="56" height="76" viewBox="0 0 56 76" fill="none" xmlns="http://www.w3.org/2000/svg">
<path d="M16.282 61.06V71H14.7V66.618H9.688V71H8.12V61.06H9.688V65.218H14.7V61.06H16.282ZM17.7143 68.858C17.7143 68.3913 17.8449 67.9853 18.1063 67.64C18.3769 67.2853 18.7456 67.0147 19.2123 66.828C19.6789 66.632 20.2203 66.534 20.8363 66.534C21.1629 66.534 21.4943 66.5573 21.8303 66.604C22.1756 66.6507 22.4789 66.7253 22.7403 66.828V66.366C22.7403 65.8527 22.5863 65.4513 22.2783 65.162C21.9703 64.8727 21.5269 64.728 20.9483 64.728C20.5376 64.728 20.1503 64.8027 19.7863 64.952C19.4223 65.092 19.0349 65.2927 18.6243 65.554L18.1063 64.518C18.5916 64.1913 19.0769 63.9487 19.5623 63.79C20.0569 63.6313 20.5749 63.552 21.1163 63.552C22.0963 63.552 22.8663 63.8133 23.4263 64.336C23.9956 64.8493 24.2803 65.582 24.2803 66.534V69.264C24.2803 69.4413 24.3083 69.5673 24.3643 69.642C24.4296 69.7167 24.5369 69.7587 24.6863 69.768V71C24.5463 71.028 24.4203 71.0467 24.3083 71.056C24.1963 71.0653 24.1029 71.07 24.0283 71.07C23.7016 71.07 23.4543 70.9907 23.2863 70.832C23.1183 70.6733 23.0203 70.4867 22.9923 70.272L22.9503 69.852C22.6329 70.2627 22.2269 70.58 21.7323 70.804C21.2376 71.028 20.7383 71.14 20.2343 71.14C19.7489 71.14 19.3149 71.042 18.9323 70.846C18.5496 70.6407 18.2509 70.3653 18.0363 70.02C17.8216 69.6747 17.7143 69.2873 17.7143 68.858ZM22.3763 69.306C22.4883 69.1847 22.5769 69.0633 22.6423 68.942C22.7076 68.8207 22.7403 68.7133 22.7403 68.62V67.78C22.4789 67.6773 22.2036 67.6027 21.9143 67.556C21.6249 67.5 21.3403 67.472 21.0603 67.472C20.5003 67.472 20.0429 67.584 19.6883 67.808C19.3429 68.032 19.1703 68.34 19.1703 68.732C19.1703 68.9467 19.2263 69.152 19.3383 69.348C19.4596 69.544 19.6276 69.7027 19.8423 69.824C20.0663 69.9453 20.3416 70.006 20.6683 70.006C21.0043 70.006 21.3263 69.9407 21.6343 69.81C21.9423 69.6793 22.1896 69.5113 22.3763 69.306ZM30.3066 71.14C29.7186 71.14 29.2006 71 28.7526 70.72C28.3046 70.44 27.9499 70.076 27.6886 69.628V73.982H26.1486V63.678H27.5066V64.994C27.7866 64.5553 28.1506 64.2053 28.5986 63.944C29.0466 63.6827 29.5459 63.552 30.0966 63.552C30.6006 63.552 31.0626 63.6547 31.4826 63.86C31.9026 64.056 32.2666 64.3313 32.5746 64.686C32.8826 65.0407 33.1206 65.4467 33.2886 65.904C33.4659 66.352 33.5546 66.828 33.5546 67.332C33.5546 68.032 33.4146 68.6713 33.1346 69.25C32.8639 69.8287 32.4813 70.2907 31.9866 70.636C31.5013 70.972 30.9413 71.14 30.3066 71.14ZM29.8026 69.824C30.1293 69.824 30.4233 69.754 30.6846 69.614C30.9553 69.474 31.1839 69.2873 31.3706 69.054C31.5666 68.8207 31.7159 68.5547 31.8186 68.256C31.9213 67.9573 31.9726 67.6493 31.9726 67.332C31.9726 66.996 31.9166 66.6787 31.8046 66.38C31.6926 66.0813 31.5293 65.82 31.3146 65.596C31.1093 65.372 30.8666 65.1947 30.5866 65.064C30.3159 64.9333 30.0173 64.868 29.6906 64.868C29.4946 64.868 29.2893 64.9053 29.0746 64.98C28.8599 65.0547 28.6593 65.1573 28.4726 65.288C28.2859 65.4187 28.1226 65.5727 27.9826 65.75C27.8426 65.9273 27.7446 66.114 27.6886 66.31V68.228C27.8193 68.5267 27.9919 68.7973 28.2066 69.04C28.4213 69.2733 28.6686 69.4647 28.9486 69.614C29.2286 69.754 29.5133 69.824 29.8026 69.824ZM39.0976 71.14C38.5096 71.14 37.9916 71 37.5436 70.72C37.0956 70.44 36.741 70.076 36.4796 69.628V73.982H34.9396V63.678H36.2976V64.994C36.5776 64.5553 36.9416 64.2053 37.3896 63.944C37.8376 63.6827 38.337 63.552 38.8876 63.552C39.3916 63.552 39.8536 63.6547 40.2736 63.86C40.6936 64.056 41.0576 64.3313 41.3656 64.686C41.6736 65.0407 41.9116 65.4467 42.0796 65.904C42.257 66.352 42.3456 66.828 42.3456 67.332C42.3456 68.032 42.2056 68.6713 41.9256 69.25C41.655 69.8287 41.2723 70.2907 40.7776 70.636C40.2923 70.972 39.7323 71.14 39.0976 71.14ZM38.5936 69.824C38.9203 69.824 39.2143 69.754 39.4756 69.614C39.7463 69.474 39.975 69.2873 40.1616 69.054C40.3576 68.8207 40.507 68.5547 40.6096 68.256C40.7123 67.9573 40.7636 67.6493 40.7636 67.332C40.7636 66.996 40.7076 66.6787 40.5956 66.38C40.4836 66.0813 40.3203 65.82 40.1056 65.596C39.9003 65.372 39.6576 65.1947 39.3776 65.064C39.107 64.9333 38.8083 64.868 38.4816 64.868C38.2856 64.868 38.0803 64.9053 37.8656 64.98C37.651 65.0547 37.4503 65.1573 37.2636 65.288C37.077 65.4187 36.9136 65.5727 36.7736 65.75C36.6336 65.9273 36.5356 66.114 36.4796 66.31V68.228C36.6103 68.5267 36.783 68.7973 36.9976 69.04C37.2123 69.2733 37.4596 69.4647 37.7396 69.614C38.0196 69.754 38.3043 69.824 38.5936 69.824ZM43.7365 72.722C43.8765 72.7407 44.0119 72.7593 44.1425 72.778C44.2825 72.806 44.3945 72.82 44.4785 72.82C44.6372 72.82 44.7725 72.7687 44.8845 72.666C45.0059 72.5727 45.1272 72.3953 45.2485 72.134C45.3699 71.8727 45.5192 71.4947 45.6965 71L42.6865 63.678H44.2965L46.5365 69.432L48.5245 63.678H50.0085L46.6905 72.694C46.5879 72.9647 46.4385 73.212 46.2425 73.436C46.0465 73.6693 45.8039 73.8513 45.5145 73.982C45.2252 74.1127 44.8845 74.178 44.4925 74.178C44.3805 74.178 44.2639 74.1687 44.1425 74.15C44.0212 74.1313 43.8859 74.1033 43.7365 74.066V72.722Z" fill="#333333"/>
<path d="M50.75 28C50.75 21.9663 48.3531 16.1798 44.0867 11.9133C39.8202 7.64687 34.0337 5.25 28 5.25C21.9663 5.25 16.1798 7.64687 11.9133 11.9133C7.64687 16.1798 5.25 21.9663 5.25 28C5.25 34.0337 7.64687 39.8202 11.9133 44.0867C16.1798 48.3531 21.9663 50.75 28 50.75C34.0337 50.75 39.8202 48.3531 44.0867 44.0867C48.3531 39.8202 50.75 34.0337 50.75 28ZM0 28C0 20.5739 2.94999 13.452 8.20101 8.20101C13.452 2.94999 20.5739 0 28 0C35.4261 0 42.548 2.94999 47.799 8.20101C53.05 13.452 56 20.5739 56 28C56 35.4261 53.05 42.548 47.799 47.799C42.548 53.05 35.4261 56 28 56C20.5739 56 13.452 53.05 8.20101 47.799C2.94999 42.548 0 35.4261 0 28ZM12.9391 34.3656C12.4797 32.8672 13.7156 31.5 15.2797 31.5H40.7203C42.2844 31.5 43.5203 32.8672 43.0609 34.3656C41.0922 40.8078 35.0875 45.5 28 45.5C20.9125 45.5 14.9078 40.8078 12.9391 34.3656ZM15.75 21C15.75 20.0717 16.1187 19.1815 16.7751 18.5251C17.4315 17.8687 18.3217 17.5 19.25 17.5C20.1783 17.5 21.0685 17.8687 21.7249 18.5251C22.3813 19.1815 22.75 20.0717 22.75 21C22.75 21.9283 22.3813 22.8185 21.7249 23.4749C21.0685 24.1313 20.1783 24.5 19.25 24.5C18.3217 24.5 17.4315 24.1313 16.7751 23.4749C16.1187 22.8185 15.75 21.9283 15.75 21ZM36.75 17.5C37.6783 17.5 38.5685 17.8687 39.2249 18.5251C39.8812 19.1815 40.25 20.0717 40.25 21C40.25 21.9283 39.8812 22.8185 39.2249 23.4749C38.5685 24.1313 37.6783 24.5 36.75 24.5C35.8217 24.5 34.9315 24.1313 34.2751 23.4749C33.6188 22.8185 33.25 21.9283 33.25 21C33.25 20.0717 33.6188 19.1815 34.2751 18.5251C34.9315 17.8687 35.8217 17.5 36.75 17.5Z" fill="#6ED3CF"/>
</svg>
