<?xml version="1.0" encoding="utf-8"?>
<!-- Generator: Adobe Illustrator 27.5.0, SVG Export Plug-In . SVG Version: 6.00 Build 0)  -->
<svg version="1.1" id="Layer_1" xmlns="http://www.w3.org/2000/svg" xmlns:xlink="http://www.w3.org/1999/xlink" x="0px" y="0px"
	 viewBox="0 0 64 64" style="enable-background:new 0 0 64 64;" xml:space="preserve">
<style type="text/css">
	.st0{fill:#6ED3CF;}
</style>
<g>
	<path class="st0" d="M32,36.4c1.2,0,2.3-0.5,3.1-1.3c0.8-0.8,1.3-1.9,1.3-3.1c0-1.2-0.5-2.3-1.3-3.1c-0.8-0.8-1.9-1.3-3.1-1.3
		s-2.3,0.5-3.1,1.3c-0.8,0.8-1.3,1.9-1.3,3.1c0,1.2,0.5,2.3,1.3,3.1C29.7,35.9,30.8,36.4,32,36.4z"/>
	<path class="st0" d="M34.5,39.5h-5c-3.5,0-6.2,2.8-6.2,6.3c0,0.7,0.6,1.3,1.2,1.3h15c0.7,0,1.2-0.6,1.2-1.3
		C40.7,42.3,38,39.5,34.5,39.5z"/>
	<path class="st0" d="M32,0C14.3,0,0,14.3,0,32s14.3,32,32,32s32-14.3,32-32S49.7,0,32,0z M51.8,31.7c-0.4,1-1.3,1.6-2.3,1.6
		c-0.7,0-1.2,0.6-1.2,1.2V47c0,2.8-2.2,5-5,5H20.8c-2.8,0-5-2.2-5-5V34.5c0-0.7-0.6-1.2-1.2-1.2c-1,0-2-0.6-2.3-1.6s-0.1-2,0.6-2.7
		l17.5-16.3c1-0.9,2.4-0.9,3.4,0l6.3,5.9c0.3,0.2,0.7,0.1,0.7-0.3c0-1.4,1.1-2.5,2.5-2.5h2.5c1.4,0,2.5,1.1,2.5,2.5v3.9
		c0,2.6,1.1,5,3,6.8C52,29.6,52.2,30.7,51.8,31.7z"/>
</g>
</svg>
