<svg width="64" height="64" viewBox="0 0 64 64" fill="none" xmlns="http://www.w3.org/2000/svg">
<path d="M64 32C64 49.6731 49.6731 64 32 64C14.3269 64 0 49.6731 0 32C0 14.3269 14.3269 0 32 0C49.6731 0 64 14.3269 64 32Z" fill="#6ED3CF"/>
<path d="M30.2969 12.668C31.2578 11.7773 32.7422 11.7773 33.6953 12.668L40.045 18.5544C40.3136 18.8033 40.7498 18.6129 40.7498 18.2467C40.7498 16.8638 41.867 15.7465 43.2498 15.7465H45.7497C47.1325 15.7465 48.2497 16.8638 48.2497 18.2467V22.1471C48.2497 24.717 49.3196 27.1708 51.2027 28.9196C51.9527 29.6228 52.2027 30.7089 51.8277 31.6621C51.4527 32.6153 50.5309 33.2482 49.4996 33.2482C48.8093 33.2482 48.2497 33.8078 48.2497 34.4981V46.9995C48.2497 49.7576 46.0075 52 43.2498 52H20.7502C17.9925 52 15.7503 49.7576 15.7503 46.9995V34.4981C15.7503 33.8078 15.1907 33.2482 14.5004 33.2482C13.4691 33.2482 12.5473 32.6153 12.1723 31.6621C11.7973 30.7089 12.0473 29.615 12.7973 28.9196L30.2969 12.668ZM36.3749 31.998C36.3749 30.8376 35.914 29.7247 35.0935 28.9042C34.2731 28.0836 33.1603 27.6226 32 27.6226C30.8397 27.6226 29.7269 28.0836 28.9065 28.9042C28.086 29.7247 27.6251 30.8376 27.6251 31.998C27.6251 33.1585 28.086 34.2714 28.9065 35.0919C29.7269 35.9125 30.8397 36.3735 32 36.3735C33.1603 36.3735 34.2731 35.9125 35.0935 35.0919C35.914 34.2714 36.3749 33.1585 36.3749 31.998ZM23.2502 45.7494C23.2502 46.437 23.8127 46.9995 24.5002 46.9995H39.4998C40.1873 46.9995 40.7498 46.437 40.7498 45.7494C40.7498 42.2959 37.953 39.4988 34.4999 39.4988H29.5001C26.047 39.4988 23.2502 42.2959 23.2502 45.7494Z" fill="#FFF9F5"/>
</svg>
