<svg width="64" height="64" viewBox="0 0 64 64" fill="none" xmlns="http://www.w3.org/2000/svg">
<path d="M64 32C64 49.6731 49.6731 64 32 64C14.3269 64 0 49.6731 0 32C0 14.3269 14.3269 0 32 0C49.6731 0 64 14.3269 64 32Z" fill="#6ED3CF"/>
<path d="M16.4444 19C13.9931 19 12 21.018 12 23.5V41.5C12 43.982 13.9931 46 16.4444 46H47.5556C50.0069 46 52 43.982 52 41.5V23.5C52 21.018 50.0069 19 47.5556 19H16.4444ZM17.5556 23.5H19.7778C20.3889 23.5 20.8889 24.0062 20.8889 24.625V26.875C20.8889 27.4938 20.3889 28 19.7778 28H17.5556C16.9444 28 16.4444 27.4938 16.4444 26.875V24.625C16.4444 24.0062 16.9444 23.5 17.5556 23.5ZM16.4444 31.375C16.4444 30.7562 16.9444 30.25 17.5556 30.25H19.7778C20.3889 30.25 20.8889 30.7562 20.8889 31.375V33.625C20.8889 34.2438 20.3889 34.75 19.7778 34.75H17.5556C16.9444 34.75 16.4444 34.2438 16.4444 33.625V31.375ZM24.2222 23.5H26.4444C27.0556 23.5 27.5556 24.0062 27.5556 24.625V26.875C27.5556 27.4938 27.0556 28 26.4444 28H24.2222C23.6111 28 23.1111 27.4938 23.1111 26.875V24.625C23.1111 24.0062 23.6111 23.5 24.2222 23.5ZM23.1111 31.375C23.1111 30.7562 23.6111 30.25 24.2222 30.25H26.4444C27.0556 30.25 27.5556 30.7562 27.5556 31.375V33.625C27.5556 34.2438 27.0556 34.75 26.4444 34.75H24.2222C23.6111 34.75 23.1111 34.2438 23.1111 33.625V31.375ZM24.2222 37H39.7778C40.3889 37 40.8889 37.5062 40.8889 38.125V40.375C40.8889 40.9938 40.3889 41.5 39.7778 41.5H24.2222C23.6111 41.5 23.1111 40.9938 23.1111 40.375V38.125C23.1111 37.5062 23.6111 37 24.2222 37ZM29.7778 24.625C29.7778 24.0062 30.2778 23.5 30.8889 23.5H33.1111C33.7222 23.5 34.2222 24.0062 34.2222 24.625V26.875C34.2222 27.4938 33.7222 28 33.1111 28H30.8889C30.2778 28 29.7778 27.4938 29.7778 26.875V24.625ZM30.8889 30.25H33.1111C33.7222 30.25 34.2222 30.7562 34.2222 31.375V33.625C34.2222 34.2438 33.7222 34.75 33.1111 34.75H30.8889C30.2778 34.75 29.7778 34.2438 29.7778 33.625V31.375C29.7778 30.7562 30.2778 30.25 30.8889 30.25ZM36.4444 24.625C36.4444 24.0062 36.9444 23.5 37.5556 23.5H39.7778C40.3889 23.5 40.8889 24.0062 40.8889 24.625V26.875C40.8889 27.4938 40.3889 28 39.7778 28H37.5556C36.9444 28 36.4444 27.4938 36.4444 26.875V24.625ZM37.5556 30.25H39.7778C40.3889 30.25 40.8889 30.7562 40.8889 31.375V33.625C40.8889 34.2438 40.3889 34.75 39.7778 34.75H37.5556C36.9444 34.75 36.4444 34.2438 36.4444 33.625V31.375C36.4444 30.7562 36.9444 30.25 37.5556 30.25ZM43.1111 24.625C43.1111 24.0062 43.6111 23.5 44.2222 23.5H46.4444C47.0556 23.5 47.5556 24.0062 47.5556 24.625V26.875C47.5556 27.4938 47.0556 28 46.4444 28H44.2222C43.6111 28 43.1111 27.4938 43.1111 26.875V24.625ZM44.2222 30.25H46.4444C47.0556 30.25 47.5556 30.7562 47.5556 31.375V33.625C47.5556 34.2438 47.0556 34.75 46.4444 34.75H44.2222C43.6111 34.75 43.1111 34.2438 43.1111 33.625V31.375C43.1111 30.7562 43.6111 30.25 44.2222 30.25Z" fill="#FFF9F5"/>
</svg>
