<svg width="24" height="24" viewBox="0 0 24 24" fill="none" xmlns="http://www.w3.org/2000/svg">
<path d="M22.0922 0.335066C22.3922 0.0300668 22.8281 -0.0799329 23.2313 0.0600667C23.6906 0.225066 24 0.685065 24 1.20006V10.545C24 17.105 18.9328 22.4 12.8063 22.4C9.19688 22.4 6.08437 19.925 4.95469 16.465C3.29531 18.005 2.25 20.27 2.25 22.8C2.25 23.465 1.74844 24 1.125 24C0.501562 24 0 23.465 0 22.8C0 19.055 1.79062 15.755 4.50469 13.815C6.15937 12.635 8.13281 12 10.125 12H13.875C14.4984 12 15 11.465 15 10.8C15 10.135 14.4984 9.60004 13.875 9.60004H10.125C8.26406 9.60004 6.50156 10.04 4.92188 10.825C6.01406 7.32505 9.10312 4.80005 12.75 4.80005C15.8625 4.80005 18.1781 3.69506 19.7203 2.60006C20.6203 1.96006 21.3844 1.19506 22.0969 0.335066H22.0922Z" fill="#6ED3CF"/>
</svg>
