<svg width="67" height="76" viewBox="0 0 67 76" fill="none" xmlns="http://www.w3.org/2000/svg">
<path d="M9.478 71V63.916L6.552 69.292H5.628L2.688 63.916V71H1.12V61.06H2.8L6.09 67.136L9.38 61.06H11.06V71H9.478ZM16.3006 71.14C15.7313 71.14 15.2133 71.042 14.7466 70.846C14.2893 70.6407 13.8926 70.3653 13.5566 70.02C13.2206 69.6653 12.9593 69.264 12.7726 68.816C12.5953 68.3587 12.5066 67.8733 12.5066 67.36C12.5066 66.6693 12.6653 66.0393 12.9826 65.47C13.2999 64.8913 13.7433 64.4293 14.3126 64.084C14.8819 63.7293 15.5493 63.552 16.3146 63.552C17.0799 63.552 17.7379 63.7293 18.2886 64.084C18.8486 64.4293 19.2826 64.8867 19.5906 65.456C19.8986 66.0253 20.0526 66.6367 20.0526 67.29C20.0526 67.402 20.0479 67.5093 20.0386 67.612C20.0293 67.7053 20.0199 67.7847 20.0106 67.85H14.1446C14.1726 68.2793 14.2893 68.6573 14.4946 68.984C14.7093 69.3013 14.9799 69.5533 15.3066 69.74C15.6333 69.9173 15.9833 70.006 16.3566 70.006C16.7673 70.006 17.1546 69.9033 17.5186 69.698C17.8919 69.4927 18.1439 69.222 18.2746 68.886L19.5906 69.264C19.4319 69.6187 19.1893 69.9407 18.8626 70.23C18.5453 70.51 18.1673 70.734 17.7286 70.902C17.2899 71.0607 16.8139 71.14 16.3006 71.14ZM14.1026 66.828H18.5266C18.4986 66.408 18.3773 66.0393 18.1626 65.722C17.9573 65.3953 17.6913 65.1433 17.3646 64.966C17.0473 64.7793 16.6926 64.686 16.3006 64.686C15.9179 64.686 15.5633 64.7793 15.2366 64.966C14.9193 65.1433 14.6579 65.3953 14.4526 65.722C14.2473 66.0393 14.1306 66.408 14.1026 66.828ZM23.9128 71.14C23.2968 71.14 22.7134 71.042 22.1628 70.846C21.6121 70.6407 21.1408 70.3373 20.7488 69.936L21.3228 68.9C21.7428 69.2733 22.1628 69.544 22.5828 69.712C23.0121 69.88 23.4368 69.964 23.8568 69.964C24.2861 69.964 24.6361 69.8847 24.9068 69.726C25.1774 69.558 25.3128 69.3153 25.3128 68.998C25.3128 68.7647 25.2428 68.592 25.1028 68.48C24.9628 68.368 24.7574 68.27 24.4868 68.186C24.2254 68.102 23.9081 68.0087 23.5348 67.906C23.0121 67.7473 22.5734 67.584 22.2188 67.416C21.8641 67.2387 21.5981 67.024 21.4208 66.772C21.2434 66.52 21.1548 66.198 21.1548 65.806C21.1548 65.33 21.2761 64.924 21.5188 64.588C21.7614 64.252 22.0974 63.9953 22.5268 63.818C22.9654 63.6407 23.4694 63.552 24.0388 63.552C24.5708 63.552 25.0608 63.636 25.5088 63.804C25.9661 63.9627 26.3674 64.2147 26.7128 64.56L26.0548 65.582C25.7281 65.2833 25.3921 65.064 25.0468 64.924C24.7108 64.784 24.3468 64.714 23.9548 64.714C23.7308 64.714 23.5161 64.742 23.3108 64.798C23.1054 64.8447 22.9328 64.938 22.7928 65.078C22.6621 65.2087 22.5968 65.3953 22.5968 65.638C22.5968 65.834 22.6528 65.9927 22.7648 66.114C22.8768 66.2353 23.0448 66.338 23.2688 66.422C23.4928 66.506 23.7681 66.5993 24.0948 66.702C24.6641 66.87 25.1494 67.038 25.5508 67.206C25.9521 67.3647 26.2601 67.5747 26.4748 67.836C26.6988 68.088 26.8108 68.438 26.8108 68.886C26.8108 69.5953 26.5448 70.1507 26.0128 70.552C25.4901 70.944 24.7901 71.14 23.9128 71.14ZM30.7897 71.14C30.1737 71.14 29.5904 71.042 29.0397 70.846C28.4891 70.6407 28.0177 70.3373 27.6257 69.936L28.1997 68.9C28.6197 69.2733 29.0397 69.544 29.4597 69.712C29.8891 69.88 30.3137 69.964 30.7337 69.964C31.1631 69.964 31.5131 69.8847 31.7837 69.726C32.0544 69.558 32.1897 69.3153 32.1897 68.998C32.1897 68.7647 32.1197 68.592 31.9797 68.48C31.8397 68.368 31.6344 68.27 31.3637 68.186C31.1024 68.102 30.7851 68.0087 30.4117 67.906C29.8891 67.7473 29.4504 67.584 29.0957 67.416C28.7411 67.2387 28.4751 67.024 28.2977 66.772C28.1204 66.52 28.0317 66.198 28.0317 65.806C28.0317 65.33 28.1531 64.924 28.3957 64.588C28.6384 64.252 28.9744 63.9953 29.4037 63.818C29.8424 63.6407 30.3464 63.552 30.9157 63.552C31.4477 63.552 31.9377 63.636 32.3857 63.804C32.8431 63.9627 33.2444 64.2147 33.5897 64.56L32.9317 65.582C32.6051 65.2833 32.2691 65.064 31.9237 64.924C31.5877 64.784 31.2237 64.714 30.8317 64.714C30.6077 64.714 30.3931 64.742 30.1877 64.798C29.9824 64.8447 29.8097 64.938 29.6697 65.078C29.5391 65.2087 29.4737 65.3953 29.4737 65.638C29.4737 65.834 29.5297 65.9927 29.6417 66.114C29.7537 66.2353 29.9217 66.338 30.1457 66.422C30.3697 66.506 30.6451 66.5993 30.9717 66.702C31.5411 66.87 32.0264 67.038 32.4277 67.206C32.8291 67.3647 33.1371 67.5747 33.3517 67.836C33.5757 68.088 33.6877 68.438 33.6877 68.886C33.6877 69.5953 33.4217 70.1507 32.8897 70.552C32.3671 70.944 31.6671 71.14 30.7897 71.14ZM34.5307 68.858C34.5307 68.3913 34.6613 67.9853 34.9227 67.64C35.1933 67.2853 35.562 67.0147 36.0287 66.828C36.4953 66.632 37.0367 66.534 37.6527 66.534C37.9793 66.534 38.3107 66.5573 38.6467 66.604C38.992 66.6507 39.2953 66.7253 39.5567 66.828V66.366C39.5567 65.8527 39.4027 65.4513 39.0947 65.162C38.7867 64.8727 38.3433 64.728 37.7647 64.728C37.354 64.728 36.9667 64.8027 36.6027 64.952C36.2387 65.092 35.8513 65.2927 35.4407 65.554L34.9227 64.518C35.408 64.1913 35.8933 63.9487 36.3787 63.79C36.8733 63.6313 37.3913 63.552 37.9327 63.552C38.9127 63.552 39.6827 63.8133 40.2427 64.336C40.812 64.8493 41.0967 65.582 41.0967 66.534V69.264C41.0967 69.4413 41.1247 69.5673 41.1807 69.642C41.246 69.7167 41.3533 69.7587 41.5027 69.768V71C41.3627 71.028 41.2367 71.0467 41.1247 71.056C41.0127 71.0653 40.9193 71.07 40.8447 71.07C40.518 71.07 40.2707 70.9907 40.1027 70.832C39.9347 70.6733 39.8367 70.4867 39.8087 70.272L39.7667 69.852C39.4493 70.2627 39.0433 70.58 38.5487 70.804C38.054 71.028 37.5547 71.14 37.0507 71.14C36.5653 71.14 36.1313 71.042 35.7487 70.846C35.366 70.6407 35.0673 70.3653 34.8527 70.02C34.638 69.6747 34.5307 69.2873 34.5307 68.858ZM39.1927 69.306C39.3047 69.1847 39.3933 69.0633 39.4587 68.942C39.524 68.8207 39.5567 68.7133 39.5567 68.62V67.78C39.2953 67.6773 39.02 67.6027 38.7307 67.556C38.4413 67.5 38.1567 67.472 37.8767 67.472C37.3167 67.472 36.8593 67.584 36.5047 67.808C36.1593 68.032 35.9867 68.34 35.9867 68.732C35.9867 68.9467 36.0427 69.152 36.1547 69.348C36.276 69.544 36.444 69.7027 36.6587 69.824C36.8827 69.9453 37.158 70.006 37.4847 70.006C37.8207 70.006 38.1427 69.9407 38.4507 69.81C38.7587 69.6793 39.006 69.5113 39.1927 69.306ZM45.863 71.07C45.3683 71.07 44.9157 70.972 44.505 70.776C44.0943 70.5707 43.7397 70.2953 43.441 69.95C43.1517 69.6047 42.923 69.208 42.755 68.76C42.5963 68.312 42.517 67.8407 42.517 67.346C42.517 66.8233 42.601 66.3333 42.769 65.876C42.937 65.4187 43.1703 65.0173 43.469 64.672C43.777 64.3173 44.1363 64.042 44.547 63.846C44.9577 63.65 45.415 63.552 45.919 63.552C46.507 63.552 47.0203 63.692 47.459 63.972C47.907 64.252 48.2757 64.616 48.565 65.064V63.678H49.923V70.79C49.923 71.4993 49.7503 72.1013 49.405 72.596C49.069 73.0907 48.607 73.4687 48.019 73.73C47.431 73.9913 46.7683 74.122 46.031 74.122C45.219 74.122 44.547 73.982 44.015 73.702C43.483 73.422 43.0303 73.0393 42.657 72.554L43.525 71.742C43.805 72.134 44.1643 72.4327 44.603 72.638C45.051 72.8433 45.527 72.946 46.031 72.946C46.451 72.946 46.8383 72.8667 47.193 72.708C47.557 72.5587 47.8463 72.3207 48.061 71.994C48.2757 71.6767 48.383 71.2753 48.383 70.79V69.67C48.1217 70.1087 47.7623 70.454 47.305 70.706C46.8477 70.9487 46.367 71.07 45.863 71.07ZM46.367 69.824C46.6003 69.824 46.8243 69.7867 47.039 69.712C47.2537 69.628 47.4497 69.5207 47.627 69.39C47.8137 69.25 47.9723 69.096 48.103 68.928C48.2337 68.7507 48.327 68.564 48.383 68.368V66.45C48.2617 66.1327 48.089 65.8573 47.865 65.624C47.641 65.3813 47.389 65.1947 47.109 65.064C46.829 64.9333 46.5443 64.868 46.255 64.868C45.919 64.868 45.6157 64.9427 45.345 65.092C45.0837 65.232 44.8597 65.4233 44.673 65.666C44.4863 65.8993 44.3417 66.1653 44.239 66.464C44.1363 66.7627 44.085 67.0707 44.085 67.388C44.085 67.724 44.141 68.0367 44.253 68.326C44.3743 68.6153 44.5377 68.8767 44.743 69.11C44.9483 69.334 45.191 69.5113 45.471 69.642C45.751 69.7633 46.0497 69.824 46.367 69.824ZM55.0877 71.14C54.5184 71.14 54.0004 71.042 53.5337 70.846C53.0764 70.6407 52.6797 70.3653 52.3437 70.02C52.0077 69.6653 51.7464 69.264 51.5597 68.816C51.3824 68.3587 51.2937 67.8733 51.2937 67.36C51.2937 66.6693 51.4524 66.0393 51.7697 65.47C52.087 64.8913 52.5304 64.4293 53.0997 64.084C53.669 63.7293 54.3364 63.552 55.1017 63.552C55.867 63.552 56.525 63.7293 57.0757 64.084C57.6357 64.4293 58.0697 64.8867 58.3777 65.456C58.6857 66.0253 58.8397 66.6367 58.8397 67.29C58.8397 67.402 58.835 67.5093 58.8257 67.612C58.8164 67.7053 58.807 67.7847 58.7977 67.85H52.9317C52.9597 68.2793 53.0764 68.6573 53.2817 68.984C53.4964 69.3013 53.767 69.5533 54.0937 69.74C54.4204 69.9173 54.7704 70.006 55.1437 70.006C55.5544 70.006 55.9417 69.9033 56.3057 69.698C56.679 69.4927 56.931 69.222 57.0617 68.886L58.3777 69.264C58.219 69.6187 57.9764 69.9407 57.6497 70.23C57.3324 70.51 56.9544 70.734 56.5157 70.902C56.077 71.0607 55.601 71.14 55.0877 71.14ZM52.8897 66.828H57.3137C57.2857 66.408 57.1644 66.0393 56.9497 65.722C56.7444 65.3953 56.4784 65.1433 56.1517 64.966C55.8344 64.7793 55.4797 64.686 55.0877 64.686C54.705 64.686 54.3504 64.7793 54.0237 64.966C53.7064 65.1433 53.445 65.3953 53.2397 65.722C53.0344 66.0393 52.9177 66.408 52.8897 66.828ZM62.6999 71.14C62.0839 71.14 61.5005 71.042 60.9499 70.846C60.3992 70.6407 59.9279 70.3373 59.5359 69.936L60.1099 68.9C60.5299 69.2733 60.9499 69.544 61.3699 69.712C61.7992 69.88 62.2239 69.964 62.6439 69.964C63.0732 69.964 63.4232 69.8847 63.6939 69.726C63.9645 69.558 64.0999 69.3153 64.0999 68.998C64.0999 68.7647 64.0299 68.592 63.8899 68.48C63.7499 68.368 63.5445 68.27 63.2739 68.186C63.0125 68.102 62.6952 68.0087 62.3219 67.906C61.7992 67.7473 61.3605 67.584 61.0059 67.416C60.6512 67.2387 60.3852 67.024 60.2079 66.772C60.0305 66.52 59.9419 66.198 59.9419 65.806C59.9419 65.33 60.0632 64.924 60.3059 64.588C60.5485 64.252 60.8845 63.9953 61.3139 63.818C61.7525 63.6407 62.2565 63.552 62.8259 63.552C63.3579 63.552 63.8479 63.636 64.2959 63.804C64.7532 63.9627 65.1545 64.2147 65.4999 64.56L64.8419 65.582C64.5152 65.2833 64.1792 65.064 63.8339 64.924C63.4979 64.784 63.1339 64.714 62.7419 64.714C62.5179 64.714 62.3032 64.742 62.0979 64.798C61.8925 64.8447 61.7199 64.938 61.5799 65.078C61.4492 65.2087 61.3839 65.3953 61.3839 65.638C61.3839 65.834 61.4399 65.9927 61.5519 66.114C61.6639 66.2353 61.8319 66.338 62.0559 66.422C62.2799 66.506 62.5552 66.5993 62.8819 66.702C63.4512 66.87 63.9365 67.038 64.3379 67.206C64.7392 67.3647 65.0472 67.5747 65.2619 67.836C65.4859 68.088 65.5979 68.438 65.5979 68.886C65.5979 69.5953 65.3319 70.1507 64.7999 70.552C64.2772 70.944 63.5772 71.14 62.6999 71.14Z" fill="#333333"/>
<path d="M62 28C62 43.464 49.464 56 34 56C18.536 56 6 43.464 6 28C6 12.536 18.536 0 34 0C49.464 0 62 12.536 62 28Z" fill="currentColor"/>
<path d="M34 40.2479C41.7328 40.2479 48 34.3694 48 27.1239C48 19.8784 41.7328 14 34 14C26.2672 14 20 19.8784 20 27.1239C20 30.0932 21.05 32.8274 22.8219 35.0256L20.1531 40.0729C19.8906 40.565 19.9727 41.1665 20.35 41.5767C20.7273 41.9868 21.3234 42.1126 21.832 41.8938L28.307 39.1214C30.0461 39.8432 31.9711 40.2479 34 40.2479ZM27 25.3741C27.4641 25.3741 27.9092 25.5584 28.2374 25.8866C28.5656 26.2148 28.75 26.6598 28.75 27.1239C28.75 27.588 28.5656 28.0331 28.2374 28.3613C27.9092 28.6894 27.4641 28.8738 27 28.8738C26.5359 28.8738 26.0908 28.6894 25.7626 28.3613C25.4344 28.0331 25.25 27.588 25.25 27.1239C25.25 26.6598 25.4344 26.2148 25.7626 25.8866C26.0908 25.5584 26.5359 25.3741 27 25.3741ZM34 25.3741C34.4641 25.3741 34.9092 25.5584 35.2374 25.8866C35.5656 26.2148 35.75 26.6598 35.75 27.1239C35.75 27.588 35.5656 28.0331 35.2374 28.3613C34.9092 28.6894 34.4641 28.8738 34 28.8738C33.5359 28.8738 33.0908 28.6894 32.7626 28.3613C32.4344 28.0331 32.25 27.588 32.25 27.1239C32.25 26.6598 32.4344 26.2148 32.7626 25.8866C33.0908 25.5584 33.5359 25.3741 34 25.3741ZM39.25 27.1239C39.25 26.6598 39.4344 26.2148 39.7626 25.8866C40.0908 25.5584 40.5359 25.3741 41 25.3741C41.4641 25.3741 41.9092 25.5584 42.2374 25.8866C42.5656 26.2148 42.75 26.6598 42.75 27.1239C42.75 27.588 42.5656 28.0331 42.2374 28.3613C41.9092 28.6894 41.4641 28.8738 41 28.8738C40.5359 28.8738 40.0908 28.6894 39.7626 28.3613C39.4344 28.0331 39.25 27.588 39.25 27.1239Z" fill="#FFF9F5"/>
</svg>
