<?xml version="1.0" encoding="utf-8"?>
<!-- Generator: Adobe Illustrator 27.5.0, SVG Export Plug-In . SVG Version: 6.00 Build 0)  -->
<svg version="1.1" id="Layer_1" xmlns="http://www.w3.org/2000/svg" xmlns:xlink="http://www.w3.org/1999/xlink" x="0px" y="0px"
	 viewBox="0 0 67 76" style="enable-background:new 0 0 67 76;" xml:space="preserve">
<style type="text/css">
	.st0{fill:#333333;}
</style>
<path class="st0" d="M9.5,71v-7.1l-2.9,5.4H5.6l-2.9-5.4V71H1.1v-9.9h1.7l3.3,6.1l3.3-6.1h1.7V71H9.5z M16.3,71.1
	c-0.6,0-1.1-0.1-1.6-0.3c-0.5-0.2-0.9-0.5-1.2-0.8c-0.3-0.4-0.6-0.8-0.8-1.2c-0.2-0.5-0.3-0.9-0.3-1.5c0-0.7,0.2-1.3,0.5-1.9
	c0.3-0.6,0.8-1,1.3-1.4c0.6-0.4,1.2-0.5,2-0.5c0.8,0,1.4,0.2,2,0.5c0.6,0.3,1,0.8,1.3,1.4c0.3,0.6,0.5,1.2,0.5,1.8
	c0,0.1,0,0.2,0,0.3c0,0.1,0,0.2,0,0.2h-5.9c0,0.4,0.1,0.8,0.4,1.1c0.2,0.3,0.5,0.6,0.8,0.8c0.3,0.2,0.7,0.3,1.1,0.3
	c0.4,0,0.8-0.1,1.2-0.3c0.4-0.2,0.6-0.5,0.8-0.8l1.3,0.4c-0.2,0.4-0.4,0.7-0.7,1c-0.3,0.3-0.7,0.5-1.1,0.7
	C17.3,71.1,16.8,71.1,16.3,71.1z M14.1,66.8h4.4c0-0.4-0.1-0.8-0.4-1.1c-0.2-0.3-0.5-0.6-0.8-0.8c-0.3-0.2-0.7-0.3-1.1-0.3
	c-0.4,0-0.7,0.1-1.1,0.3c-0.3,0.2-0.6,0.4-0.8,0.8C14.2,66,14.1,66.4,14.1,66.8z M23.9,71.1c-0.6,0-1.2-0.1-1.8-0.3
	c-0.6-0.2-1-0.5-1.4-0.9l0.6-1c0.4,0.4,0.8,0.6,1.3,0.8c0.4,0.2,0.9,0.3,1.3,0.3c0.4,0,0.8-0.1,1-0.2c0.3-0.2,0.4-0.4,0.4-0.7
	c0-0.2-0.1-0.4-0.2-0.5c-0.1-0.1-0.3-0.2-0.6-0.3c-0.3-0.1-0.6-0.2-1-0.3c-0.5-0.2-1-0.3-1.3-0.5c-0.4-0.2-0.6-0.4-0.8-0.6
	c-0.2-0.3-0.3-0.6-0.3-1c0-0.5,0.1-0.9,0.4-1.2c0.2-0.3,0.6-0.6,1-0.8c0.4-0.2,0.9-0.3,1.5-0.3c0.5,0,1,0.1,1.5,0.3
	c0.5,0.2,0.9,0.4,1.2,0.8l-0.7,1c-0.3-0.3-0.7-0.5-1-0.7c-0.3-0.1-0.7-0.2-1.1-0.2c-0.2,0-0.4,0-0.6,0.1c-0.2,0-0.4,0.1-0.5,0.3
	c-0.1,0.1-0.2,0.3-0.2,0.6c0,0.2,0.1,0.4,0.2,0.5c0.1,0.1,0.3,0.2,0.5,0.3c0.2,0.1,0.5,0.2,0.8,0.3c0.6,0.2,1.1,0.3,1.5,0.5
	c0.4,0.2,0.7,0.4,0.9,0.6c0.2,0.3,0.3,0.6,0.3,1.1c0,0.7-0.3,1.3-0.8,1.7C25.5,70.9,24.8,71.1,23.9,71.1z M30.8,71.1
	c-0.6,0-1.2-0.1-1.8-0.3c-0.6-0.2-1-0.5-1.4-0.9l0.6-1c0.4,0.4,0.8,0.6,1.3,0.8c0.4,0.2,0.9,0.3,1.3,0.3c0.4,0,0.8-0.1,1.1-0.2
	c0.3-0.2,0.4-0.4,0.4-0.7c0-0.2-0.1-0.4-0.2-0.5c-0.1-0.1-0.3-0.2-0.6-0.3c-0.3-0.1-0.6-0.2-1-0.3c-0.5-0.2-1-0.3-1.3-0.5
	c-0.4-0.2-0.6-0.4-0.8-0.6c-0.2-0.3-0.3-0.6-0.3-1c0-0.5,0.1-0.9,0.4-1.2c0.2-0.3,0.6-0.6,1-0.8c0.4-0.2,0.9-0.3,1.5-0.3
	c0.5,0,1,0.1,1.5,0.3c0.5,0.2,0.9,0.4,1.2,0.8l-0.7,1c-0.3-0.3-0.7-0.5-1-0.7c-0.3-0.1-0.7-0.2-1.1-0.2c-0.2,0-0.4,0-0.6,0.1
	c-0.2,0-0.4,0.1-0.5,0.3c-0.1,0.1-0.2,0.3-0.2,0.6c0,0.2,0.1,0.4,0.2,0.5c0.1,0.1,0.3,0.2,0.5,0.3c0.2,0.1,0.5,0.2,0.8,0.3
	c0.6,0.2,1.1,0.3,1.5,0.5c0.4,0.2,0.7,0.4,0.9,0.6c0.2,0.3,0.3,0.6,0.3,1.1c0,0.7-0.3,1.3-0.8,1.7C32.4,70.9,31.7,71.1,30.8,71.1z
	 M34.5,68.9c0-0.5,0.1-0.9,0.4-1.2c0.3-0.4,0.6-0.6,1.1-0.8c0.5-0.2,1-0.3,1.6-0.3c0.3,0,0.7,0,1,0.1c0.3,0,0.6,0.1,0.9,0.2v-0.5
	c0-0.5-0.2-0.9-0.5-1.2s-0.8-0.4-1.3-0.4c-0.4,0-0.8,0.1-1.2,0.2c-0.4,0.1-0.8,0.3-1.2,0.6l-0.5-1c0.5-0.3,1-0.6,1.5-0.7
	c0.5-0.2,1-0.2,1.6-0.2c1,0,1.8,0.3,2.3,0.8c0.6,0.5,0.9,1.2,0.9,2.2v2.7c0,0.2,0,0.3,0.1,0.4c0.1,0.1,0.2,0.1,0.3,0.1V71
	c-0.1,0-0.3,0-0.4,0.1s-0.2,0-0.3,0c-0.3,0-0.6-0.1-0.7-0.2s-0.3-0.3-0.3-0.6l0-0.4c-0.3,0.4-0.7,0.7-1.2,1c-0.5,0.2-1,0.3-1.5,0.3
	c-0.5,0-0.9-0.1-1.3-0.3c-0.4-0.2-0.7-0.5-0.9-0.8C34.6,69.7,34.5,69.3,34.5,68.9z M39.2,69.3c0.1-0.1,0.2-0.2,0.3-0.4
	c0.1-0.1,0.1-0.2,0.1-0.3v-0.8c-0.3-0.1-0.5-0.2-0.8-0.2c-0.3-0.1-0.6-0.1-0.9-0.1c-0.6,0-1,0.1-1.4,0.3C36.2,68,36,68.3,36,68.7
	c0,0.2,0.1,0.4,0.2,0.6c0.1,0.2,0.3,0.4,0.5,0.5c0.2,0.1,0.5,0.2,0.8,0.2c0.3,0,0.7-0.1,1-0.2C38.8,69.7,39,69.5,39.2,69.3z
	 M45.9,71.1c-0.5,0-0.9-0.1-1.4-0.3c-0.4-0.2-0.8-0.5-1.1-0.8c-0.3-0.3-0.5-0.7-0.7-1.2c-0.2-0.4-0.2-0.9-0.2-1.4
	c0-0.5,0.1-1,0.3-1.5s0.4-0.9,0.7-1.2c0.3-0.4,0.7-0.6,1.1-0.8c0.4-0.2,0.9-0.3,1.4-0.3c0.6,0,1.1,0.1,1.5,0.4
	c0.4,0.3,0.8,0.6,1.1,1.1v-1.4h1.4v7.1c0,0.7-0.2,1.3-0.5,1.8c-0.3,0.5-0.8,0.9-1.4,1.1c-0.6,0.3-1.3,0.4-2,0.4
	c-0.8,0-1.5-0.1-2-0.4c-0.5-0.3-1-0.7-1.4-1.1l0.9-0.8c0.3,0.4,0.6,0.7,1.1,0.9c0.4,0.2,0.9,0.3,1.4,0.3c0.4,0,0.8-0.1,1.2-0.2
	c0.4-0.1,0.7-0.4,0.9-0.7c0.2-0.3,0.3-0.7,0.3-1.2v-1.1c-0.3,0.4-0.6,0.8-1.1,1C46.8,70.9,46.4,71.1,45.9,71.1z M46.4,69.8
	c0.2,0,0.5,0,0.7-0.1c0.2-0.1,0.4-0.2,0.6-0.3c0.2-0.1,0.3-0.3,0.5-0.5c0.1-0.2,0.2-0.4,0.3-0.6v-1.9c-0.1-0.3-0.3-0.6-0.5-0.8
	c-0.2-0.2-0.5-0.4-0.8-0.6c-0.3-0.1-0.6-0.2-0.9-0.2c-0.3,0-0.6,0.1-0.9,0.2c-0.3,0.1-0.5,0.3-0.7,0.6c-0.2,0.2-0.3,0.5-0.4,0.8
	c-0.1,0.3-0.2,0.6-0.2,0.9c0,0.3,0.1,0.6,0.2,0.9c0.1,0.3,0.3,0.6,0.5,0.8c0.2,0.2,0.4,0.4,0.7,0.5C45.8,69.8,46,69.8,46.4,69.8z
	 M55.1,71.1c-0.6,0-1.1-0.1-1.6-0.3c-0.5-0.2-0.9-0.5-1.2-0.8c-0.3-0.4-0.6-0.8-0.8-1.2c-0.2-0.5-0.3-0.9-0.3-1.5
	c0-0.7,0.2-1.3,0.5-1.9c0.3-0.6,0.8-1,1.3-1.4c0.6-0.4,1.2-0.5,2-0.5s1.4,0.2,2,0.5c0.6,0.3,1,0.8,1.3,1.4c0.3,0.6,0.5,1.2,0.5,1.8
	c0,0.1,0,0.2,0,0.3c0,0.1,0,0.2,0,0.2h-5.9c0,0.4,0.1,0.8,0.3,1.1c0.2,0.3,0.5,0.6,0.8,0.8c0.3,0.2,0.7,0.3,1,0.3
	c0.4,0,0.8-0.1,1.2-0.3c0.4-0.2,0.6-0.5,0.8-0.8l1.3,0.4c-0.2,0.4-0.4,0.7-0.7,1c-0.3,0.3-0.7,0.5-1.1,0.7
	C56.1,71.1,55.6,71.1,55.1,71.1z M52.9,66.8h4.4c0-0.4-0.1-0.8-0.4-1.1c-0.2-0.3-0.5-0.6-0.8-0.8c-0.3-0.2-0.7-0.3-1.1-0.3
	c-0.4,0-0.7,0.1-1.1,0.3c-0.3,0.2-0.6,0.4-0.8,0.8C53,66,52.9,66.4,52.9,66.8z M62.7,71.1c-0.6,0-1.2-0.1-1.8-0.3
	c-0.6-0.2-1-0.5-1.4-0.9l0.6-1c0.4,0.4,0.8,0.6,1.3,0.8c0.4,0.2,0.9,0.3,1.3,0.3c0.4,0,0.8-0.1,1-0.2c0.3-0.2,0.4-0.4,0.4-0.7
	c0-0.2-0.1-0.4-0.2-0.5c-0.1-0.1-0.3-0.2-0.6-0.3c-0.3-0.1-0.6-0.2-1-0.3c-0.5-0.2-1-0.3-1.3-0.5c-0.4-0.2-0.6-0.4-0.8-0.6
	c-0.2-0.3-0.3-0.6-0.3-1c0-0.5,0.1-0.9,0.4-1.2c0.2-0.3,0.6-0.6,1-0.8c0.4-0.2,0.9-0.3,1.5-0.3c0.5,0,1,0.1,1.5,0.3
	c0.5,0.2,0.9,0.4,1.2,0.8l-0.7,1c-0.3-0.3-0.7-0.5-1-0.7c-0.3-0.1-0.7-0.2-1.1-0.2c-0.2,0-0.4,0-0.6,0.1c-0.2,0-0.4,0.1-0.5,0.3
	c-0.1,0.1-0.2,0.3-0.2,0.6c0,0.2,0.1,0.4,0.2,0.5s0.3,0.2,0.5,0.3s0.5,0.2,0.8,0.3c0.6,0.2,1.1,0.3,1.5,0.5c0.4,0.2,0.7,0.4,0.9,0.6
	c0.2,0.3,0.3,0.6,0.3,1.1c0,0.7-0.3,1.3-0.8,1.7C64.3,70.9,63.6,71.1,62.7,71.1z"/>
<g>
	<path d="M34,25.4c-0.5,0-0.9,0.2-1.2,0.5c-0.3,0.3-0.5,0.8-0.5,1.2s0.2,0.9,0.5,1.2c0.3,0.3,0.8,0.5,1.2,0.5s0.9-0.2,1.2-0.5
		c0.3-0.3,0.5-0.8,0.5-1.2s-0.2-0.9-0.5-1.2C34.9,25.6,34.5,25.4,34,25.4z"/>
	<path d="M27,25.4c-0.5,0-0.9,0.2-1.2,0.5c-0.3,0.3-0.5,0.8-0.5,1.2s0.2,0.9,0.5,1.2c0.3,0.3,0.8,0.5,1.2,0.5s0.9-0.2,1.2-0.5
		c0.3-0.3,0.5-0.8,0.5-1.2s-0.2-0.9-0.5-1.2C27.9,25.6,27.5,25.4,27,25.4z"/>
	<path d="M34,0C18.5,0,6,12.5,6,28s12.5,28,28,28s28-12.5,28-28S49.5,0,34,0z M34,40.2c-2,0-4-0.4-5.7-1.1l-6.5,2.8
		c-0.5,0.2-1.1,0.1-1.5-0.3c-0.4-0.4-0.5-1-0.2-1.5l2.7-5C21,32.8,20,30.1,20,27.1C20,19.9,26.3,14,34,14s14,5.9,14,13.1
		S41.7,40.2,34,40.2z"/>
	<path d="M41,25.4c-0.5,0-0.9,0.2-1.2,0.5c-0.3,0.3-0.5,0.8-0.5,1.2s0.2,0.9,0.5,1.2c0.3,0.3,0.8,0.5,1.2,0.5s0.9-0.2,1.2-0.5
		c0.3-0.3,0.5-0.8,0.5-1.2s-0.2-0.9-0.5-1.2C41.9,25.6,41.5,25.4,41,25.4z"/>
</g>
</svg>
