<svg width="64" height="64" viewBox="0 0 64 64" fill="none" xmlns="http://www.w3.org/2000/svg">
<path d="M64 32C64 49.6731 49.6731 64 32 64C14.3269 64 0 49.6731 0 32C0 14.3269 14.3269 0 32 0C49.6731 0 64 14.3269 64 32Z" fill="#6ED3CF"/>
<path d="M38.3344 24.6102C38.3344 31.0221 32.6612 36.2203 25.6687 36.2203C23.9074 36.2203 22.2319 35.8905 20.708 35.2968L15.3251 38.1466C14.7116 38.4698 13.9596 38.3576 13.4649 37.8695C12.9701 37.3813 12.858 36.6227 13.1878 36.0092L15.5362 31.5763C13.9464 29.6368 13.0031 27.2224 13.0031 24.6102C13.0031 18.1982 18.6763 13 25.6687 13C32.6612 13 38.3344 18.1982 38.3344 24.6102ZM38.3344 48.886C32.1269 48.886 26.9617 44.7894 25.8798 39.3867C33.7959 39.2878 40.6762 33.6542 41.4348 26.0153C46.9298 27.2818 51 31.8401 51 37.2758C51 39.8881 50.0567 42.3025 48.4669 44.2419L50.8153 48.6749C51.1385 49.2883 51.0264 50.0404 50.5382 50.5351C50.0501 51.0299 49.2915 51.142 48.678 50.8122L43.2951 47.9624C41.7712 48.5561 40.0957 48.886 38.3344 48.886Z" fill="#FFF9F5"/>
</svg>
