<?xml version="1.0" encoding="utf-8"?>
<!-- Generator: Adobe Illustrator 27.5.0, SVG Export Plug-In . SVG Version: 6.00 Build 0)  -->
<svg version="1.1" id="Layer_1" xmlns="http://www.w3.org/2000/svg" xmlns:xlink="http://www.w3.org/1999/xlink" x="0px" y="0px"
	 viewBox="0 0 64 64" style="enable-background:new 0 0 64 64;" xml:space="preserve">
<style type="text/css">
	.st0{fill:#6ED3CF;}
</style>
<g>
	<path class="st0" d="M32,28.4c-0.6,0-1.2,0.3-1.7,0.7c-0.4,0.4-0.7,1-0.7,1.7c0,0.6,0.3,1.2,0.7,1.7c0.4,0.4,1,0.7,1.7,0.7
		s1.2-0.3,1.7-0.7c0.4-0.4,0.7-1,0.7-1.7c0-0.6-0.3-1.2-0.7-1.7C33.2,28.7,32.6,28.4,32,28.4z"/>
	<path class="st0" d="M22.5,28.4c-0.6,0-1.2,0.3-1.7,0.7c-0.4,0.4-0.7,1-0.7,1.7c0,0.6,0.3,1.2,0.7,1.7c0.4,0.4,1,0.7,1.7,0.7
		s1.2-0.3,1.7-0.7c0.4-0.4,0.7-1,0.7-1.7c0-0.6-0.3-1.2-0.7-1.7C23.7,28.7,23.1,28.4,22.5,28.4z"/>
	<path class="st0" d="M41.5,28.4c-0.6,0-1.2,0.3-1.7,0.7c-0.4,0.4-0.7,1-0.7,1.7c0,0.6,0.3,1.2,0.7,1.7c0.4,0.4,1,0.7,1.7,0.7
		s1.2-0.3,1.7-0.7c0.4-0.4,0.7-1,0.7-1.7c0-0.6-0.3-1.2-0.7-1.7C42.7,28.7,42.1,28.4,41.5,28.4z"/>
	<path class="st0" d="M32,0C14.3,0,0,14.3,0,32s14.3,32,32,32s32-14.3,32-32S49.7,0,32,0z M32,48.6c-0.4,0-0.8,0-1.2,0
		c-4.3-0.2-8.8-0.5-12.7,1.2l-2.6,1.1c-0.7,0.3-1.5,0.1-2-0.4c-0.5-0.6-0.6-1.4-0.3-2c2.2-4.2,1.3-9.2,0.2-13.7
		c-0.3-1.2-0.4-2.5-0.4-3.8C13,21,21.5,13,32,13s19,8,19,17.8C51,40.6,42.5,48.6,32,48.6z"/>
</g>
</svg>
