<?xml version="1.0" encoding="utf-8"?>
<!-- Generator: Adobe Illustrator 27.5.0, SVG Export Plug-In . SVG Version: 6.00 Build 0)  -->
<svg version="1.1" id="Layer_1" xmlns="http://www.w3.org/2000/svg" xmlns:xlink="http://www.w3.org/1999/xlink" x="0px" y="0px"
	 viewBox="0 0 56 78" style="enable-background:new 0 0 56 78;" xml:space="preserve">
<style type="text/css">
	.st0{fill:#333333;}
</style>
<path class="st0" d="M10.5,73v-7.1l-2.9,5.4H6.6l-2.9-5.4V73H2.1v-9.9h1.7l3.3,6.1l3.3-6.1h1.7V73H10.5z M17.3,73.1
	c-0.6,0-1.1-0.1-1.6-0.3c-0.5-0.2-0.9-0.5-1.2-0.8c-0.3-0.4-0.6-0.8-0.8-1.2c-0.2-0.5-0.3-0.9-0.3-1.5s0.1-1,0.3-1.5
	c0.2-0.5,0.4-0.9,0.8-1.2c0.3-0.4,0.7-0.6,1.2-0.8c0.5-0.2,1-0.3,1.6-0.3s1.1,0.1,1.5,0.3c0.5,0.2,0.9,0.5,1.2,0.8
	c0.3,0.3,0.6,0.7,0.8,1.2s0.3,0.9,0.3,1.5s-0.1,1-0.3,1.5c-0.2,0.4-0.4,0.8-0.8,1.2c-0.3,0.4-0.7,0.6-1.2,0.8
	C18.4,73,17.8,73.1,17.3,73.1z M15.1,69.4c0,0.5,0.1,0.9,0.3,1.3c0.2,0.4,0.5,0.7,0.8,0.9c0.3,0.2,0.7,0.3,1.1,0.3
	c0.4,0,0.8-0.1,1.1-0.3c0.3-0.2,0.6-0.5,0.8-0.9c0.2-0.4,0.3-0.8,0.3-1.3c0-0.5-0.1-0.9-0.3-1.3c-0.2-0.4-0.5-0.7-0.8-0.9
	c-0.3-0.2-0.7-0.3-1.1-0.3c-0.4,0-0.8,0.1-1.1,0.3c-0.3,0.2-0.6,0.5-0.8,0.9C15.2,68.5,15.1,68.9,15.1,69.4z M26.5,67
	c-0.6,0-1.1,0.1-1.6,0.4c-0.5,0.3-0.8,0.6-1,1.1V73h-1.5v-7.3h1.4v1.6c0.3-0.5,0.6-0.9,1-1.2c0.4-0.3,0.8-0.5,1.3-0.5
	c0.1,0,0.2,0,0.2,0c0.1,0,0.1,0,0.2,0V67z M34.2,73h-1.5v-4.1c0-0.7-0.1-1.2-0.3-1.5c-0.2-0.3-0.5-0.5-1-0.5c-0.3,0-0.6,0.1-0.9,0.2
	c-0.3,0.1-0.6,0.4-0.8,0.6c-0.2,0.3-0.4,0.5-0.5,0.9V73h-1.5v-7.3H29v1.5c0.2-0.3,0.4-0.6,0.7-0.8c0.3-0.2,0.7-0.4,1-0.6
	s0.8-0.2,1.2-0.2c0.4,0,0.8,0.1,1.1,0.2c0.3,0.2,0.5,0.4,0.7,0.7c0.2,0.3,0.3,0.6,0.3,1c0.1,0.4,0.1,0.7,0.1,1.1V73z M36,73v-7.3
	h1.5V73H36z M36,64.5v-1.7h1.5v1.7H36z M46,73h-1.5v-4.1c0-0.7-0.1-1.2-0.3-1.5c-0.2-0.3-0.5-0.5-1-0.5c-0.3,0-0.6,0.1-0.9,0.2
	c-0.3,0.1-0.6,0.4-0.8,0.6c-0.2,0.3-0.4,0.5-0.5,0.9V73h-1.5v-7.3h1.4v1.5c0.2-0.3,0.4-0.6,0.7-0.8c0.3-0.2,0.7-0.4,1-0.6
	c0.4-0.1,0.8-0.2,1.2-0.2c0.4,0,0.8,0.1,1.1,0.2c0.3,0.2,0.5,0.4,0.7,0.7c0.2,0.3,0.3,0.6,0.3,1c0.1,0.4,0.1,0.7,0.1,1.1V73z
	 M50.6,73.1c-0.5,0-0.9-0.1-1.4-0.3c-0.4-0.2-0.8-0.5-1.1-0.8c-0.3-0.3-0.5-0.7-0.7-1.2c-0.2-0.4-0.2-0.9-0.2-1.4
	c0-0.5,0.1-1,0.3-1.5s0.4-0.9,0.7-1.2c0.3-0.4,0.7-0.6,1.1-0.8c0.4-0.2,0.9-0.3,1.4-0.3c0.6,0,1.1,0.1,1.5,0.4
	c0.4,0.3,0.8,0.6,1.1,1.1v-1.4h1.4v7.1c0,0.7-0.2,1.3-0.5,1.8c-0.3,0.5-0.8,0.9-1.4,1.1c-0.6,0.3-1.3,0.4-2,0.4
	c-0.8,0-1.5-0.1-2-0.4c-0.5-0.3-1-0.7-1.4-1.1l0.9-0.8c0.3,0.4,0.6,0.7,1.1,0.9c0.4,0.2,0.9,0.3,1.4,0.3c0.4,0,0.8-0.1,1.2-0.2
	c0.4-0.1,0.7-0.4,0.9-0.7c0.2-0.3,0.3-0.7,0.3-1.2v-1.1c-0.3,0.4-0.6,0.8-1.1,1C51.6,72.9,51.1,73.1,50.6,73.1z M51.1,71.8
	c0.2,0,0.5,0,0.7-0.1c0.2-0.1,0.4-0.2,0.6-0.3c0.2-0.1,0.3-0.3,0.5-0.5c0.1-0.2,0.2-0.4,0.3-0.6v-1.9c-0.1-0.3-0.3-0.6-0.5-0.8
	c-0.2-0.2-0.5-0.4-0.8-0.6c-0.3-0.1-0.6-0.2-0.9-0.2c-0.3,0-0.6,0.1-0.9,0.2c-0.3,0.1-0.5,0.3-0.7,0.6c-0.2,0.2-0.3,0.5-0.4,0.8
	c-0.1,0.3-0.2,0.6-0.2,0.9c0,0.3,0.1,0.6,0.2,0.9c0.1,0.3,0.3,0.6,0.5,0.8c0.2,0.2,0.4,0.4,0.7,0.5C50.5,71.8,50.8,71.8,51.1,71.8z"
	/>
<path d="M28,0C12.5,0,0,12.5,0,28s12.5,28,28,28s28-12.5,28-28S43.5,0,28,0z M34.2,42H18.7c-2.6,0-4.7-2.3-4.7-5.1
	c0-2.3,1.3-4.2,3.2-4.8c-0.1-0.4-0.1-0.7-0.1-1.1c0-3.3,2.4-5.9,5.4-5.9c2.1,0,3.9,1.3,4.8,3.2c0.7-0.9,1.8-1.5,3-1.5
	c2.1,0,3.9,1.9,3.9,4.2c0,0.3,0,0.6-0.1,0.8c0,0,0.1,0,0.1,0c2.6,0,4.7,2.3,4.7,5.1C38.9,39.7,36.8,42,34.2,42z M29.7,24.2
	c0.3-1,1.2-1.7,2.2-1.7c1.3,0,2.3,1.1,2.3,2.5c0,0.2,0,0.4-0.1,0.6c-1.1-0.9-2.4-1.4-3.8-1.4C30.1,24.2,29.9,24.2,29.7,24.2z
	 M41.9,28.8c0.1,0.2,0.2,0.5,0.1,0.8c-0.1,0.3-0.3,0.5-0.6,0.5l-3,0.7c-0.6-0.5-1.2-0.8-1.9-1.1c-0.1-0.7-0.3-1.3-0.6-1.9
	c0.5-0.8,0.7-1.7,0.7-2.7c0-2.8-2.1-5.1-4.7-5.1c-2.3,0-4.3,1.9-4.6,4.3c-1.3-1.1-2.9-1.7-4.6-1.7l-0.7-1.2
	c-0.1-0.2-0.2-0.5-0.1-0.8c0.1-0.3,0.3-0.5,0.6-0.5l4-0.9l0.8-4.4c0.1-0.3,0.2-0.5,0.5-0.6c0.2-0.1,0.5-0.1,0.7,0.1l3.4,2.5l3.4-2.5
	c0.2-0.2,0.5-0.2,0.7-0.1v0c0.2,0.1,0.4,0.3,0.5,0.6l0.8,4.4l4,0.9c0.3,0.1,0.5,0.2,0.6,0.5c0.1,0.3,0.1,0.6-0.1,0.8L39.6,25
	L41.9,28.8z"/>
</svg>
