<svg width="56" height="78" viewBox="0 0 56 78" fill="none" xmlns="http://www.w3.org/2000/svg">
<path d="M10.478 73V65.916L7.552 71.292H6.628L3.688 65.916V73H2.12V63.06H3.8L7.09 69.136L10.38 63.06H12.06V73H10.478ZM17.2726 73.14C16.6939 73.14 16.1759 73.042 15.7186 72.846C15.2613 72.6407 14.8646 72.3607 14.5286 72.006C14.2019 71.6513 13.9499 71.25 13.7726 70.802C13.5953 70.3447 13.5066 69.8593 13.5066 69.346C13.5066 68.8327 13.5953 68.3473 13.7726 67.89C13.9499 67.4327 14.2019 67.0313 14.5286 66.686C14.8646 66.3313 15.2613 66.056 15.7186 65.86C16.1853 65.6547 16.7033 65.552 17.2726 65.552C17.8419 65.552 18.3553 65.6547 18.8126 65.86C19.2793 66.056 19.6759 66.3313 20.0026 66.686C20.3386 67.0313 20.5953 67.4327 20.7726 67.89C20.9499 68.3473 21.0386 68.8327 21.0386 69.346C21.0386 69.8593 20.9499 70.3447 20.7726 70.802C20.5953 71.25 20.3386 71.6513 20.0026 72.006C19.6759 72.3607 19.2793 72.6407 18.8126 72.846C18.3553 73.042 17.8419 73.14 17.2726 73.14ZM15.0886 69.36C15.0886 69.8267 15.1866 70.2467 15.3826 70.62C15.5786 70.9933 15.8399 71.2873 16.1666 71.502C16.4933 71.7167 16.8619 71.824 17.2726 71.824C17.6739 71.824 18.0379 71.7167 18.3646 71.502C18.7006 71.278 18.9666 70.9793 19.1626 70.606C19.3586 70.2233 19.4566 69.8033 19.4566 69.346C19.4566 68.8793 19.3586 68.4593 19.1626 68.086C18.9666 67.7127 18.7006 67.4187 18.3646 67.204C18.0379 66.98 17.6739 66.868 17.2726 66.868C16.8619 66.868 16.4933 66.98 16.1666 67.204C15.8399 67.428 15.5786 67.7267 15.3826 68.1C15.1866 68.464 15.0886 68.884 15.0886 69.36ZM26.5205 67.008C25.9231 67.0173 25.3911 67.1527 24.9245 67.414C24.4671 67.6753 24.1405 68.044 23.9445 68.52V73H22.4045V65.678H23.8325V67.316C24.0845 66.812 24.4158 66.4107 24.8265 66.112C25.2371 65.804 25.6711 65.636 26.1285 65.608C26.2218 65.608 26.2965 65.608 26.3525 65.608C26.4178 65.608 26.4738 65.6127 26.5205 65.622V67.008ZM34.2068 73H32.6668V68.898C32.6668 68.2167 32.5548 67.7173 32.3308 67.4C32.1161 67.0827 31.7941 66.924 31.3648 66.924C31.0661 66.924 30.7675 66.9987 30.4688 67.148C30.1795 67.2973 29.9181 67.5027 29.6848 67.764C29.4515 68.016 29.2835 68.31 29.1808 68.646V73H27.6408V65.678H29.0408V67.148C29.2275 66.8213 29.4701 66.5413 29.7688 66.308C30.0768 66.0653 30.4221 65.8787 30.8048 65.748C31.1875 65.6173 31.5935 65.552 32.0228 65.552C32.4615 65.552 32.8208 65.6313 33.1008 65.79C33.3901 65.9487 33.6141 66.168 33.7728 66.448C33.9408 66.7187 34.0528 67.036 34.1088 67.4C34.1741 67.7547 34.2068 68.1327 34.2068 68.534V73ZM35.9943 73V65.678H37.5343V73H35.9943ZM35.9943 64.474V62.78H37.5343V64.474H35.9943ZM45.9509 73H44.4109V68.898C44.4109 68.2167 44.2989 67.7173 44.0749 67.4C43.8603 67.0827 43.5383 66.924 43.1089 66.924C42.8103 66.924 42.5116 66.9987 42.2129 67.148C41.9236 67.2973 41.6623 67.5027 41.4289 67.764C41.1956 68.016 41.0276 68.31 40.9249 68.646V73H39.3849V65.678H40.7849V67.148C40.9716 66.8213 41.2143 66.5413 41.5129 66.308C41.8209 66.0653 42.1663 65.8787 42.5489 65.748C42.9316 65.6173 43.3376 65.552 43.7669 65.552C44.2056 65.552 44.5649 65.6313 44.8449 65.79C45.1343 65.9487 45.3583 66.168 45.5169 66.448C45.6849 66.7187 45.7969 67.036 45.8529 67.4C45.9183 67.7547 45.9509 68.1327 45.9509 68.534V73ZM50.6365 73.07C50.1418 73.07 49.6891 72.972 49.2785 72.776C48.8678 72.5707 48.5131 72.2953 48.2145 71.95C47.9251 71.6047 47.6965 71.208 47.5285 70.76C47.3698 70.312 47.2905 69.8407 47.2905 69.346C47.2905 68.8233 47.3745 68.3333 47.5425 67.876C47.7105 67.4187 47.9438 67.0173 48.2425 66.672C48.5505 66.3173 48.9098 66.042 49.3205 65.846C49.7311 65.65 50.1885 65.552 50.6925 65.552C51.2805 65.552 51.7938 65.692 52.2325 65.972C52.6805 66.252 53.0491 66.616 53.3385 67.064V65.678H54.6965V72.79C54.6965 73.4993 54.5238 74.1013 54.1785 74.596C53.8425 75.0907 53.3805 75.4687 52.7925 75.73C52.2045 75.9913 51.5418 76.122 50.8045 76.122C49.9925 76.122 49.3205 75.982 48.7885 75.702C48.2565 75.422 47.8038 75.0393 47.4305 74.554L48.2985 73.742C48.5785 74.134 48.9378 74.4327 49.3765 74.638C49.8245 74.8433 50.3005 74.946 50.8045 74.946C51.2245 74.946 51.6118 74.8667 51.9665 74.708C52.3305 74.5587 52.6198 74.3207 52.8345 73.994C53.0491 73.6767 53.1565 73.2753 53.1565 72.79V71.67C52.8951 72.1087 52.5358 72.454 52.0785 72.706C51.6211 72.9487 51.1405 73.07 50.6365 73.07ZM51.1405 71.824C51.3738 71.824 51.5978 71.7867 51.8125 71.712C52.0271 71.628 52.2231 71.5207 52.4005 71.39C52.5871 71.25 52.7458 71.096 52.8765 70.928C53.0071 70.7507 53.1005 70.564 53.1565 70.368V68.45C53.0351 68.1327 52.8625 67.8573 52.6385 67.624C52.4145 67.3813 52.1625 67.1947 51.8825 67.064C51.6025 66.9333 51.3178 66.868 51.0285 66.868C50.6925 66.868 50.3891 66.9427 50.1185 67.092C49.8571 67.232 49.6331 67.4233 49.4465 67.666C49.2598 67.8993 49.1151 68.1653 49.0125 68.464C48.9098 68.7627 48.8585 69.0707 48.8585 69.388C48.8585 69.724 48.9145 70.0367 49.0265 70.326C49.1478 70.6153 49.3111 70.8767 49.5165 71.11C49.7218 71.334 49.9645 71.5113 50.2445 71.642C50.5245 71.7633 50.8231 71.824 51.1405 71.824Z" fill="#333333"/>
<path d="M56 28C56 43.464 43.464 56 28 56C12.536 56 0 43.464 0 28C0 12.536 12.536 0 28 0C43.464 0 56 12.536 56 28Z" fill="#FFD166"/>
<path d="M36.0481 14.0663C36.2863 14.1723 36.4613 14.4056 36.5099 14.6814L37.3313 19.0931L41.3754 19.9839C41.6282 20.0422 41.8372 20.2278 41.9393 20.4876C42.0413 20.7475 42.0122 21.0444 41.8712 21.2777L39.5915 25.0266L41.8712 28.7755C42.0122 29.0088 42.0413 29.3057 41.9393 29.5656C41.8372 29.8254 41.6282 30.0163 41.3754 30.0693L38.3521 30.7427C37.7736 30.2814 37.132 29.9155 36.437 29.661C36.3154 28.9876 36.1064 28.3513 35.8196 27.768C36.2814 26.9779 36.5536 26.0394 36.5536 25.0266C36.5536 22.2163 34.4635 19.9362 31.8873 19.9362C29.5591 19.9362 27.6294 21.7974 27.2794 24.2259C25.9913 23.1495 24.3873 22.5026 22.6423 22.4814L21.9083 21.2777C21.7674 21.0444 21.7382 20.7475 21.8403 20.4876C21.9424 20.2278 22.1514 20.0369 22.4041 19.9839L26.4434 19.0931L27.26 14.6814C27.3134 14.4056 27.4836 14.1776 27.7217 14.0663C27.9599 13.9549 28.2321 13.9867 28.446 14.1405L31.8873 16.6327L35.3239 14.1458C35.5377 13.992 35.8099 13.9602 36.0481 14.0716V14.0663ZM34.2205 25.0319C34.2205 25.2334 34.201 25.4296 34.1573 25.6205C33.1025 24.719 31.7756 24.1835 30.3319 24.1835C30.1083 24.1835 29.8896 24.1941 29.6757 24.2206C29.9868 23.2131 30.8617 22.4867 31.8873 22.4867C33.1754 22.4867 34.2205 23.6267 34.2205 25.0319ZM18.6663 42C16.0901 42 14 39.7199 14 36.9096C14 34.656 15.3416 32.7418 17.2032 32.0737C17.14 31.7184 17.1108 31.3472 17.1108 30.9707C17.1108 27.6885 19.5461 25.0319 22.5548 25.0319C24.6498 25.0319 26.4677 26.3204 27.3766 28.2134C28.0911 27.3067 29.1508 26.7287 30.3319 26.7287C32.4804 26.7287 34.2205 28.627 34.2205 30.9707C34.2205 31.2624 34.1913 31.5434 34.1427 31.8191C34.167 31.8191 34.1962 31.8191 34.2205 31.8191C36.7966 31.8191 38.8867 34.0992 38.8867 36.9096C38.8867 39.7199 36.7966 42 34.2205 42H18.6663Z" fill="#FFF9F5"/>
</svg>
