<svg width="64" height="64" viewBox="0 0 64 64" fill="none" xmlns="http://www.w3.org/2000/svg">
<path d="M64 32C64 49.6731 49.6731 64 32 64C14.3269 64 0 49.6731 0 32C0 14.3269 14.3269 0 32 0C49.6731 0 64 14.3269 64 32Z" fill="#6ED3CF"/>
<path d="M32 48.6221C42.4945 48.6221 51 40.6442 51 30.8111C51 20.9779 42.4945 13 32 13C21.5055 13 13 20.9779 13 30.8111C13 32.126 13.1517 33.4069 13.4397 34.6397C14.5092 39.218 15.4055 44.2283 13.2078 48.3846C12.8516 49.0525 12.9629 49.8689 13.475 50.4255C13.9871 50.9821 14.7961 51.1528 15.4863 50.8559L18.0727 49.7485C22.0378 48.0507 26.513 48.3408 30.8191 48.5883C31.2096 48.6107 31.6033 48.6221 32 48.6221ZM22.5 28.4362C23.1299 28.4362 23.734 28.6865 24.1794 29.1318C24.6248 29.5772 24.875 30.1812 24.875 30.8111C24.875 31.4409 24.6248 32.0449 24.1794 32.4903C23.734 32.9357 23.1299 33.1859 22.5 33.1859C21.8701 33.1859 21.266 32.9357 20.8206 32.4903C20.3752 32.0449 20.125 31.4409 20.125 30.8111C20.125 30.1812 20.3752 29.5772 20.8206 29.1318C21.266 28.6865 21.8701 28.4362 22.5 28.4362ZM32 28.4362C32.6299 28.4362 33.234 28.6865 33.6794 29.1318C34.1248 29.5772 34.375 30.1812 34.375 30.8111C34.375 31.4409 34.1248 32.0449 33.6794 32.4903C33.234 32.9357 32.6299 33.1859 32 33.1859C31.3701 33.1859 30.766 32.9357 30.3206 32.4903C29.8752 32.0449 29.625 31.4409 29.625 30.8111C29.625 30.1812 29.8752 29.5772 30.3206 29.1318C30.766 28.6865 31.3701 28.4362 32 28.4362ZM39.125 30.8111C39.125 30.1812 39.3752 29.5772 39.8206 29.1318C40.266 28.6865 40.8701 28.4362 41.5 28.4362C42.1299 28.4362 42.734 28.6865 43.1794 29.1318C43.6248 29.5772 43.875 30.1812 43.875 30.8111C43.875 31.4409 43.6248 32.0449 43.1794 32.4903C42.734 32.9357 42.1299 33.1859 41.5 33.1859C40.8701 33.1859 40.266 32.9357 39.8206 32.4903C39.3752 32.0449 39.125 31.4409 39.125 30.8111Z" fill="#FFF9F5"/>
</svg>
