<svg width="56" height="56" viewBox="0 0 56 56" fill="none" xmlns="http://www.w3.org/2000/svg">
<path d="M28 56C35.4261 56 42.548 53.05 47.799 47.799C53.05 42.548 56 35.4261 56 28C56 20.5739 53.05 13.452 47.799 8.20101C42.548 2.94999 35.4261 0 28 0C20.5739 0 13.452 2.94999 8.20101 8.20101C2.94999 13.452 0 20.5739 0 28C0 35.4261 2.94999 42.548 8.20101 47.799C13.452 53.05 20.5739 56 28 56ZM18.2656 18.2656C19.2938 17.2375 20.9562 17.2375 21.9734 18.2656L27.9891 24.2812L34.0047 18.2656C35.0328 17.2375 36.6953 17.2375 37.7125 18.2656C38.7297 19.2938 38.7406 20.9562 37.7125 21.9734L31.6969 27.9891L37.7125 34.0047C38.7406 35.0328 38.7406 36.6953 37.7125 37.7125C36.6844 38.7297 35.0219 38.7406 34.0047 37.7125L27.9891 31.6969L21.9734 37.7125C20.9453 38.7406 19.2828 38.7406 18.2656 37.7125C17.2484 36.6844 17.2375 35.0219 18.2656 34.0047L24.2812 27.9891L18.2656 21.9734C17.2375 20.9453 17.2375 19.2828 18.2656 18.2656Z" fill="#FF6363"/>
</svg>
