<svg width="56" height="76" viewBox="0 0 56 76" fill="none" xmlns="http://www.w3.org/2000/svg">
<path d="M56 28C56 43.464 43.464 56 28 56C12.536 56 0 43.464 0 28C0 12.536 12.536 0 28 0C43.464 0 56 12.536 56 28Z" fill="#FFD166"/>
<path d="M15.688 63.972V71H14.12V61.06H15.408L21.036 68.242V61.074H22.618V71H21.246L15.688 63.972ZM27.8234 71.14C27.2447 71.14 26.7267 71.042 26.2694 70.846C25.812 70.6407 25.4154 70.3607 25.0794 70.006C24.7527 69.6513 24.5007 69.25 24.3234 68.802C24.146 68.3447 24.0574 67.8593 24.0574 67.346C24.0574 66.8327 24.146 66.3473 24.3234 65.89C24.5007 65.4327 24.7527 65.0313 25.0794 64.686C25.4154 64.3313 25.812 64.056 26.2694 63.86C26.736 63.6547 27.254 63.552 27.8234 63.552C28.3927 63.552 28.906 63.6547 29.3634 63.86C29.83 64.056 30.2267 64.3313 30.5534 64.686C30.8894 65.0313 31.146 65.4327 31.3234 65.89C31.5007 66.3473 31.5894 66.8327 31.5894 67.346C31.5894 67.8593 31.5007 68.3447 31.3234 68.802C31.146 69.25 30.8894 69.6513 30.5534 70.006C30.2267 70.3607 29.83 70.6407 29.3634 70.846C28.906 71.042 28.3927 71.14 27.8234 71.14ZM25.6394 67.36C25.6394 67.8267 25.7374 68.2467 25.9334 68.62C26.1294 68.9933 26.3907 69.2873 26.7174 69.502C27.044 69.7167 27.4127 69.824 27.8234 69.824C28.2247 69.824 28.5887 69.7167 28.9154 69.502C29.2514 69.278 29.5174 68.9793 29.7134 68.606C29.9094 68.2233 30.0074 67.8033 30.0074 67.346C30.0074 66.8793 29.9094 66.4593 29.7134 66.086C29.5174 65.7127 29.2514 65.4187 28.9154 65.204C28.5887 64.98 28.2247 64.868 27.8234 64.868C27.4127 64.868 27.044 64.98 26.7174 65.204C26.3907 65.428 26.1294 65.7267 25.9334 66.1C25.7374 66.464 25.6394 66.884 25.6394 67.36ZM41.8372 63.678H43.3072L40.2272 71H38.9112L37.5952 67.696L36.2792 71H34.9632L31.8692 63.678H33.3392L35.6912 69.502L36.7272 66.8L35.4672 63.692H36.7692L37.5952 65.974L38.4072 63.692H39.7092L38.4632 66.8L39.4992 69.502L41.8372 63.678Z" fill="#333333"/>
<path d="M18 12C16.8937 12 16 12.8937 16 14C16 15.1063 16.8937 16 18 16V16.6875C18 19.3375 19.0563 21.8813 20.9313 23.7563L25.175 28L20.9313 32.2437C19.0563 34.1187 18 36.6625 18 39.3125V40C16.8937 40 16 40.8937 16 42C16 43.1063 16.8937 44 18 44H38C39.1063 44 40 43.1063 40 42C40 40.8937 39.1063 40 38 40V39.3125C38 36.6625 36.9438 34.1187 35.0688 32.2437L30.825 28L35.0688 23.7563C36.9438 21.8813 38 19.3375 38 16.6875V16C39.1063 16 40 15.1063 40 14C40 12.8937 39.1063 12 38 12H18ZM22 16.6875V16H34V16.6875C34 18.2812 33.3687 19.8062 32.2437 20.9312L28 25.175L23.7562 20.9312C22.6312 19.8062 22 18.275 22 16.6875Z" fill="#FFF9F5"/>
</svg>
