<?xml version="1.0" encoding="utf-8"?>
<!-- Generator: Adobe Illustrator 27.5.0, SVG Export Plug-In . SVG Version: 6.00 Build 0)  -->
<svg version="1.1" id="Layer_1" xmlns="http://www.w3.org/2000/svg" xmlns:xlink="http://www.w3.org/1999/xlink" x="0px" y="0px"
	 viewBox="0 0 56 76" style="enable-background:new 0 0 56 76;" xml:space="preserve">
<style type="text/css">
	.st0{fill:#333333;}
	.st1{fill:#FFD166;}
</style>
<path class="st0" d="M15.7,64v7h-1.6v-9.9h1.3l5.6,7.2v-7.2h1.6V71h-1.4L15.7,64z M27.8,71.1c-0.6,0-1.1-0.1-1.6-0.3
	c-0.5-0.2-0.9-0.5-1.2-0.8c-0.3-0.4-0.6-0.8-0.8-1.2c-0.2-0.5-0.3-0.9-0.3-1.5s0.1-1,0.3-1.5c0.2-0.5,0.4-0.9,0.8-1.2
	c0.3-0.4,0.7-0.6,1.2-0.8c0.5-0.2,1-0.3,1.6-0.3c0.6,0,1.1,0.1,1.5,0.3c0.5,0.2,0.9,0.5,1.2,0.8c0.3,0.3,0.6,0.7,0.8,1.2
	c0.2,0.5,0.3,0.9,0.3,1.5s-0.1,1-0.3,1.5c-0.2,0.4-0.4,0.8-0.8,1.2c-0.3,0.4-0.7,0.6-1.2,0.8C28.9,71,28.4,71.1,27.8,71.1z
	 M25.6,67.4c0,0.5,0.1,0.9,0.3,1.3c0.2,0.4,0.5,0.7,0.8,0.9c0.3,0.2,0.7,0.3,1.1,0.3c0.4,0,0.8-0.1,1.1-0.3c0.3-0.2,0.6-0.5,0.8-0.9
	c0.2-0.4,0.3-0.8,0.3-1.3c0-0.5-0.1-0.9-0.3-1.3c-0.2-0.4-0.5-0.7-0.8-0.9c-0.3-0.2-0.7-0.3-1.1-0.3c-0.4,0-0.8,0.1-1.1,0.3
	c-0.3,0.2-0.6,0.5-0.8,0.9C25.7,66.5,25.6,66.9,25.6,67.4z M41.8,63.7h1.5L40.2,71h-1.3l-1.3-3.3L36.3,71H35l-3.1-7.3h1.5l2.4,5.8
	l1-2.7l-1.3-3.1h1.3l0.8,2.3l0.8-2.3h1.3l-1.2,3.1l1,2.7L41.8,63.7z"/>
<g>
	<path class="st1" d="M22,16.7c0,1.6,0.6,3.1,1.8,4.2l4.2,4.2l4.2-4.2c1.1-1.1,1.8-2.7,1.8-4.2V16H22V16.7z"/>
	<path class="st1" d="M28,0C12.5,0,0,12.5,0,28s12.5,28,28,28s28-12.5,28-28S43.5,0,28,0z M35.1,32.2c1.9,1.9,2.9,4.4,2.9,7.1V40
		c1.1,0,2,0.9,2,2s-0.9,2-2,2H18c-1.1,0-2-0.9-2-2s0.9-2,2-2v-0.7c0-2.7,1.1-5.2,2.9-7.1l4.2-4.2l-4.2-4.2c-1.9-1.9-2.9-4.4-2.9-7.1
		V16c-1.1,0-2-0.9-2-2s0.9-2,2-2h20c1.1,0,2,0.9,2,2s-0.9,2-2,2v0.7c0,2.7-1.1,5.2-2.9,7.1L30.8,28L35.1,32.2z"/>
</g>
</svg>
