<svg width="56" height="76" viewBox="0 0 56 76" fill="none" xmlns="http://www.w3.org/2000/svg">
<path d="M56 28C56 43.464 43.464 56 28 56C12.536 56 0 43.464 0 28C0 12.536 12.536 0 28 0C43.464 0 56 12.536 56 28Z" fill="#FFD166"/>
<path d="M22.258 69.614V71H16.91V69.614H18.898V64.728C18.814 64.84 18.6833 64.9567 18.506 65.078C18.3287 65.1993 18.128 65.316 17.904 65.428C17.6893 65.5307 17.47 65.6147 17.246 65.68C17.022 65.7453 16.8167 65.778 16.63 65.778V64.336C16.8167 64.336 17.0313 64.28 17.274 64.168C17.5167 64.056 17.7547 63.9253 17.988 63.776C18.2307 63.6173 18.436 63.468 18.604 63.328C18.772 63.1787 18.87 63.0713 18.898 63.006H20.48V69.614H22.258ZM33.5388 71H31.9988V66.898C31.9988 66.2353 31.8775 65.7407 31.6348 65.414C31.3922 65.0873 31.0515 64.924 30.6128 64.924C30.3422 64.924 30.0622 64.9987 29.7728 65.148C29.4835 65.2973 29.2268 65.5027 29.0028 65.764C28.7788 66.016 28.6155 66.31 28.5128 66.646V71H26.9728V60.78H28.5128V65.148C28.7928 64.6533 29.1755 64.266 29.6608 63.986C30.1462 63.6967 30.6688 63.552 31.2288 63.552C31.6862 63.552 32.0642 63.6313 32.3628 63.79C32.6615 63.9487 32.8948 64.168 33.0628 64.448C33.2402 64.7187 33.3615 65.036 33.4268 65.4C33.5015 65.7547 33.5388 66.1327 33.5388 66.534V71ZM39.4423 65.008C38.845 65.0173 38.313 65.1527 37.8463 65.414C37.389 65.6753 37.0623 66.044 36.8663 66.52V71H35.3263V63.678H36.7543V65.316C37.0063 64.812 37.3377 64.4107 37.7483 64.112C38.159 63.804 38.593 63.636 39.0503 63.608C39.1437 63.608 39.2183 63.608 39.2743 63.608C39.3397 63.608 39.3957 63.6127 39.4423 63.622V65.008Z" fill="#333333"/>
<path d="M18 12C16.8937 12 16 12.8937 16 14C16 15.1063 16.8937 16 18 16V16.6875C18 19.3375 19.0563 21.8813 20.9313 23.7563L25.175 28L20.9313 32.2437C19.0563 34.1187 18 36.6625 18 39.3125V40C16.8937 40 16 40.8937 16 42C16 43.1063 16.8937 44 18 44H38C39.1063 44 40 43.1063 40 42C40 40.8937 39.1063 40 38 40V39.3125C38 36.6625 36.9438 34.1187 35.0688 32.2437L30.825 28L35.0688 23.7563C36.9438 21.8813 38 19.3375 38 16.6875V16C39.1063 16 40 15.1063 40 14C40 12.8937 39.1063 12 38 12H18ZM22 16.6875V16H34V16.6875C34 18.2812 33.3687 19.8062 32.2437 20.9312L28 25.175L23.7562 20.9312C22.6312 19.8062 22 18.275 22 16.6875Z" fill="#FFF9F5"/>
</svg>
