<svg width="56" height="76" viewBox="0 0 56 76" fill="none" xmlns="http://www.w3.org/2000/svg">
<path d="M22 63.398C21.9067 63.2953 21.7713 63.188 21.594 63.076C21.4167 62.9547 21.2067 62.8427 20.964 62.74C20.7213 62.6373 20.46 62.5533 20.18 62.488C19.9 62.4227 19.6107 62.39 19.312 62.39C18.6587 62.39 18.1733 62.5113 17.856 62.754C17.5387 62.9967 17.38 63.3327 17.38 63.762C17.38 64.0793 17.4687 64.3313 17.646 64.518C17.8233 64.6953 18.094 64.8447 18.458 64.966C18.822 65.0873 19.2793 65.218 19.83 65.358C20.502 65.5167 21.0853 65.708 21.58 65.932C22.0747 66.1467 22.4527 66.436 22.714 66.8C22.9753 67.164 23.106 67.6447 23.106 68.242C23.106 68.746 23.0127 69.18 22.826 69.544C22.6393 69.908 22.378 70.2067 22.042 70.44C21.706 70.664 21.3187 70.832 20.88 70.944C20.4413 71.0467 19.97 71.098 19.466 71.098C18.9713 71.098 18.4767 71.0467 17.982 70.944C17.4967 70.8413 17.03 70.692 16.582 70.496C16.1433 70.2907 15.7373 70.0433 15.364 69.754L16.078 68.41C16.1993 68.5313 16.372 68.6667 16.596 68.816C16.8293 68.956 17.0953 69.0913 17.394 69.222C17.702 69.3527 18.0333 69.4647 18.388 69.558C18.752 69.642 19.1207 69.684 19.494 69.684C20.1193 69.684 20.5953 69.5767 20.922 69.362C21.258 69.138 21.426 68.8207 21.426 68.41C21.426 68.074 21.3187 67.808 21.104 67.612C20.8893 67.4067 20.5767 67.234 20.166 67.094C19.7553 66.954 19.2653 66.814 18.696 66.674C18.0427 66.4967 17.4967 66.3053 17.058 66.1C16.6193 65.8853 16.288 65.6147 16.064 65.288C15.8493 64.952 15.742 64.5273 15.742 64.014C15.742 63.3607 15.9007 62.81 16.218 62.362C16.5353 61.9047 16.9647 61.564 17.506 61.34C18.0567 61.1067 18.6727 60.99 19.354 60.99C19.802 60.99 20.2267 61.0413 20.628 61.144C21.0293 61.2373 21.4027 61.368 21.748 61.536C22.1027 61.704 22.4247 61.8953 22.714 62.11L22 63.398ZM23.9369 68.858C23.9369 68.3913 24.0676 67.9853 24.3289 67.64C24.5996 67.2853 24.9683 67.0147 25.4349 66.828C25.9016 66.632 26.4429 66.534 27.0589 66.534C27.3856 66.534 27.7169 66.5573 28.0529 66.604C28.3983 66.6507 28.7016 66.7253 28.9629 66.828V66.366C28.9629 65.8527 28.8089 65.4513 28.5009 65.162C28.1929 64.8727 27.7496 64.728 27.1709 64.728C26.7603 64.728 26.3729 64.8027 26.0089 64.952C25.6449 65.092 25.2576 65.2927 24.8469 65.554L24.3289 64.518C24.8143 64.1913 25.2996 63.9487 25.7849 63.79C26.2796 63.6313 26.7976 63.552 27.3389 63.552C28.3189 63.552 29.0889 63.8133 29.6489 64.336C30.2183 64.8493 30.5029 65.582 30.5029 66.534V69.264C30.5029 69.4413 30.5309 69.5673 30.5869 69.642C30.6523 69.7167 30.7596 69.7587 30.9089 69.768V71C30.7689 71.028 30.6429 71.0467 30.5309 71.056C30.4189 71.0653 30.3256 71.07 30.2509 71.07C29.9243 71.07 29.6769 70.9907 29.5089 70.832C29.3409 70.6733 29.2429 70.4867 29.2149 70.272L29.1729 69.852C28.8556 70.2627 28.4496 70.58 27.9549 70.804C27.4603 71.028 26.9609 71.14 26.4569 71.14C25.9716 71.14 25.5376 71.042 25.1549 70.846C24.7723 70.6407 24.4736 70.3653 24.2589 70.02C24.0443 69.6747 23.9369 69.2873 23.9369 68.858ZM28.5989 69.306C28.7109 69.1847 28.7996 69.0633 28.8649 68.942C28.9303 68.8207 28.9629 68.7133 28.9629 68.62V67.78C28.7016 67.6773 28.4263 67.6027 28.1369 67.556C27.8476 67.5 27.5629 67.472 27.2829 67.472C26.7229 67.472 26.2656 67.584 25.9109 67.808C25.5656 68.032 25.3929 68.34 25.3929 68.732C25.3929 68.9467 25.4489 69.152 25.5609 69.348C25.6823 69.544 25.8503 69.7027 26.0649 69.824C26.2889 69.9453 26.5643 70.006 26.8909 70.006C27.2269 70.006 27.5489 69.9407 27.8569 69.81C28.1649 69.6793 28.4123 69.5113 28.5989 69.306ZM31.9093 67.346C31.9093 66.646 32.0493 66.0113 32.3293 65.442C32.6186 64.8633 33.0106 64.406 33.5053 64.07C33.9999 63.7247 34.5693 63.552 35.2133 63.552C35.7733 63.552 36.2773 63.6967 36.7253 63.986C37.1826 64.2753 37.5373 64.6347 37.7893 65.064V60.78H39.3293V69.264C39.3293 69.4413 39.3619 69.5673 39.4273 69.642C39.4926 69.7167 39.5999 69.7587 39.7493 69.768V71C39.4599 71.0467 39.2359 71.07 39.0773 71.07C38.7879 71.07 38.5406 70.986 38.3353 70.818C38.1393 70.65 38.0366 70.4493 38.0273 70.216L38.0133 69.67C37.7333 70.1367 37.3553 70.5007 36.8793 70.762C36.4033 71.014 35.9086 71.14 35.3953 71.14C34.8913 71.14 34.4246 71.042 33.9953 70.846C33.5753 70.65 33.2066 70.3747 32.8893 70.02C32.5813 69.6653 32.3386 69.2593 32.1613 68.802C31.9933 68.3447 31.9093 67.8593 31.9093 67.346ZM37.7893 68.368V66.45C37.6866 66.1513 37.5186 65.8853 37.2853 65.652C37.0613 65.4093 36.8046 65.218 36.5153 65.078C36.2353 64.938 35.9553 64.868 35.6753 64.868C35.3486 64.868 35.0499 64.938 34.7793 65.078C34.5179 65.218 34.2893 65.4047 34.0933 65.638C33.9066 65.8713 33.7619 66.1373 33.6593 66.436C33.5566 66.7347 33.5053 67.0473 33.5053 67.374C33.5053 67.71 33.5613 68.0273 33.6733 68.326C33.7853 68.6153 33.9439 68.8767 34.1493 69.11C34.3639 69.334 34.6066 69.5113 34.8773 69.642C35.1573 69.7633 35.4606 69.824 35.7873 69.824C35.9926 69.824 36.1979 69.7867 36.4033 69.712C36.6179 69.6373 36.8186 69.5347 37.0053 69.404C37.2013 69.2733 37.3646 69.1193 37.4953 68.942C37.6353 68.7647 37.7333 68.5733 37.7893 68.368Z" fill="#333333"/>
<path d="M50.75 28C50.75 21.9663 48.3531 16.1798 44.0867 11.9133C39.8202 7.64687 34.0337 5.25 28 5.25C21.9663 5.25 16.1798 7.64687 11.9133 11.9133C7.64687 16.1798 5.25 21.9663 5.25 28C5.25 34.0337 7.64687 39.8202 11.9133 44.0867C16.1798 48.3531 21.9663 50.75 28 50.75C34.0337 50.75 39.8202 48.3531 44.0867 44.0867C48.3531 39.8202 50.75 34.0337 50.75 28ZM0 28C0 20.5739 2.94999 13.452 8.20101 8.20101C13.452 2.94999 20.5739 0 28 0C35.4261 0 42.548 2.94999 47.799 8.20101C53.05 13.452 56 20.5739 56 28C56 35.4261 53.05 42.548 47.799 47.799C42.548 53.05 35.4261 56 28 56C20.5739 56 13.452 53.05 8.20101 47.799C2.94999 42.548 0 35.4261 0 28ZM36.6078 42.0656C34.9672 40.3594 32.1125 38.5 28 38.5C23.8875 38.5 21.0328 40.3594 19.3922 42.0656C18.3859 43.1156 16.7234 43.1484 15.6844 42.1422C14.6453 41.1359 14.6016 39.4734 15.6078 38.4344C18.025 35.9188 22.1703 33.25 28 33.25C33.8297 33.25 37.975 35.9188 40.3922 38.4344C41.3984 39.4844 41.3656 41.1469 40.3156 42.1422C39.2656 43.1375 37.6031 43.1156 36.6078 42.0656ZM15.75 22.75C15.75 21.8217 16.1187 20.9315 16.7751 20.2751C17.4315 19.6187 18.3217 19.25 19.25 19.25C20.1783 19.25 21.0685 19.6187 21.7249 20.2751C22.3813 20.9315 22.75 21.8217 22.75 22.75C22.75 23.6783 22.3813 24.5685 21.7249 25.2249C21.0685 25.8813 20.1783 26.25 19.25 26.25C18.3217 26.25 17.4315 25.8813 16.7751 25.2249C16.1187 24.5685 15.75 23.6783 15.75 22.75ZM36.75 19.25C37.6783 19.25 38.5685 19.6187 39.2249 20.2751C39.8812 20.9315 40.25 21.8217 40.25 22.75C40.25 23.6783 39.8812 24.5685 39.2249 25.2249C38.5685 25.8813 37.6783 26.25 36.75 26.25C35.8217 26.25 34.9315 25.8813 34.2751 25.2249C33.6188 24.5685 33.25 23.6783 33.25 22.75C33.25 21.8217 33.6188 20.9315 34.2751 20.2751C34.9315 19.6187 35.8217 19.25 36.75 19.25Z" fill="#6ED3CF"/>
</svg>
