<svg width="56" height="76" viewBox="0 0 56 76" fill="none" xmlns="http://www.w3.org/2000/svg">
<path d="M18 63.398C17.9067 63.2953 17.7713 63.188 17.594 63.076C17.4167 62.9547 17.2067 62.8427 16.964 62.74C16.7213 62.6373 16.46 62.5533 16.18 62.488C15.9 62.4227 15.6107 62.39 15.312 62.39C14.6587 62.39 14.1733 62.5113 13.856 62.754C13.5387 62.9967 13.38 63.3327 13.38 63.762C13.38 64.0793 13.4687 64.3313 13.646 64.518C13.8233 64.6953 14.094 64.8447 14.458 64.966C14.822 65.0873 15.2793 65.218 15.83 65.358C16.502 65.5167 17.0853 65.708 17.58 65.932C18.0747 66.1467 18.4527 66.436 18.714 66.8C18.9753 67.164 19.106 67.6447 19.106 68.242C19.106 68.746 19.0127 69.18 18.826 69.544C18.6393 69.908 18.378 70.2067 18.042 70.44C17.706 70.664 17.3187 70.832 16.88 70.944C16.4413 71.0467 15.97 71.098 15.466 71.098C14.9713 71.098 14.4767 71.0467 13.982 70.944C13.4967 70.8413 13.03 70.692 12.582 70.496C12.1433 70.2907 11.7373 70.0433 11.364 69.754L12.078 68.41C12.1993 68.5313 12.372 68.6667 12.596 68.816C12.8293 68.956 13.0953 69.0913 13.394 69.222C13.702 69.3527 14.0333 69.4647 14.388 69.558C14.752 69.642 15.1207 69.684 15.494 69.684C16.1193 69.684 16.5953 69.5767 16.922 69.362C17.258 69.138 17.426 68.8207 17.426 68.41C17.426 68.074 17.3187 67.808 17.104 67.612C16.8893 67.4067 16.5767 67.234 16.166 67.094C15.7553 66.954 15.2653 66.814 14.696 66.674C14.0427 66.4967 13.4967 66.3053 13.058 66.1C12.6193 65.8853 12.288 65.6147 12.064 65.288C11.8493 64.952 11.742 64.5273 11.742 64.014C11.742 63.3607 11.9007 62.81 12.218 62.362C12.5353 61.9047 12.9647 61.564 13.506 61.34C14.0567 61.1067 14.6727 60.99 15.354 60.99C15.802 60.99 16.2267 61.0413 16.628 61.144C17.0293 61.2373 17.4027 61.368 17.748 61.536C18.1027 61.704 18.4247 61.8953 18.714 62.11L18 63.398ZM23.8006 71.14C23.2313 71.14 22.7133 71.042 22.2466 70.846C21.7893 70.6407 21.3926 70.3653 21.0566 70.02C20.7206 69.6653 20.4593 69.264 20.2726 68.816C20.0953 68.3587 20.0066 67.8733 20.0066 67.36C20.0066 66.6693 20.1653 66.0393 20.4826 65.47C20.7999 64.8913 21.2433 64.4293 21.8126 64.084C22.3819 63.7293 23.0493 63.552 23.8146 63.552C24.5799 63.552 25.2379 63.7293 25.7886 64.084C26.3486 64.4293 26.7826 64.8867 27.0906 65.456C27.3986 66.0253 27.5526 66.6367 27.5526 67.29C27.5526 67.402 27.5479 67.5093 27.5386 67.612C27.5293 67.7053 27.5199 67.7847 27.5106 67.85H21.6446C21.6726 68.2793 21.7893 68.6573 21.9946 68.984C22.2093 69.3013 22.4799 69.5533 22.8066 69.74C23.1333 69.9173 23.4833 70.006 23.8566 70.006C24.2673 70.006 24.6546 69.9033 25.0186 69.698C25.3919 69.4927 25.6439 69.222 25.7746 68.886L27.0906 69.264C26.9319 69.6187 26.6893 69.9407 26.3626 70.23C26.0453 70.51 25.6673 70.734 25.2286 70.902C24.7899 71.0607 24.3139 71.14 23.8006 71.14ZM21.6026 66.828H26.0266C25.9986 66.408 25.8773 66.0393 25.6626 65.722C25.4573 65.3953 25.1913 65.1433 24.8646 64.966C24.5473 64.7793 24.1926 64.686 23.8006 64.686C23.4179 64.686 23.0633 64.7793 22.7366 64.966C22.4193 65.1433 22.1579 65.3953 21.9526 65.722C21.7473 66.0393 21.6306 66.408 21.6026 66.828ZM35.3748 71H33.8348V66.898C33.8348 66.2167 33.7228 65.7173 33.4988 65.4C33.2841 65.0827 32.9621 64.924 32.5328 64.924C32.2341 64.924 31.9354 64.9987 31.6368 65.148C31.3474 65.2973 31.0861 65.5027 30.8528 65.764C30.6194 66.016 30.4514 66.31 30.3488 66.646V71H28.8088V63.678H30.2088V65.148C30.3954 64.8213 30.6381 64.5413 30.9368 64.308C31.2448 64.0653 31.5901 63.8787 31.9728 63.748C32.3554 63.6173 32.7614 63.552 33.1908 63.552C33.6294 63.552 33.9888 63.6313 34.2688 63.79C34.5581 63.9487 34.7821 64.168 34.9408 64.448C35.1088 64.7187 35.2208 65.036 35.2768 65.4C35.3421 65.7547 35.3748 66.1327 35.3748 66.534V71ZM36.7003 67.346C36.7003 66.646 36.8403 66.0113 37.1203 65.442C37.4096 64.8633 37.8016 64.406 38.2963 64.07C38.7909 63.7247 39.3603 63.552 40.0043 63.552C40.5643 63.552 41.0683 63.6967 41.5163 63.986C41.9736 64.2753 42.3283 64.6347 42.5803 65.064V60.78H44.1203V69.264C44.1203 69.4413 44.1529 69.5673 44.2183 69.642C44.2836 69.7167 44.3909 69.7587 44.5403 69.768V71C44.2509 71.0467 44.0269 71.07 43.8683 71.07C43.5789 71.07 43.3316 70.986 43.1263 70.818C42.9303 70.65 42.8276 70.4493 42.8183 70.216L42.8043 69.67C42.5243 70.1367 42.1463 70.5007 41.6703 70.762C41.1943 71.014 40.6996 71.14 40.1863 71.14C39.6823 71.14 39.2156 71.042 38.7863 70.846C38.3663 70.65 37.9976 70.3747 37.6803 70.02C37.3723 69.6653 37.1296 69.2593 36.9523 68.802C36.7843 68.3447 36.7003 67.8593 36.7003 67.346ZM42.5803 68.368V66.45C42.4776 66.1513 42.3096 65.8853 42.0763 65.652C41.8523 65.4093 41.5956 65.218 41.3063 65.078C41.0263 64.938 40.7463 64.868 40.4663 64.868C40.1396 64.868 39.8409 64.938 39.5703 65.078C39.3089 65.218 39.0803 65.4047 38.8843 65.638C38.6976 65.8713 38.5529 66.1373 38.4503 66.436C38.3476 66.7347 38.2963 67.0473 38.2963 67.374C38.2963 67.71 38.3523 68.0273 38.4643 68.326C38.5763 68.6153 38.7349 68.8767 38.9403 69.11C39.1549 69.334 39.3976 69.5113 39.6683 69.642C39.9483 69.7633 40.2516 69.824 40.5783 69.824C40.7836 69.824 40.9889 69.7867 41.1943 69.712C41.4089 69.6373 41.6096 69.5347 41.7963 69.404C41.9923 69.2733 42.1556 69.1193 42.2863 68.942C42.4263 68.7647 42.5243 68.5733 42.5803 68.368Z" fill="#333333"/>
<path d="M56 28C56 43.464 43.464 56 28 56C12.536 56 0 43.464 0 28C0 12.536 12.536 0 28 0C43.464 0 56 12.536 56 28Z" fill="#FFD166"/>
<path d="M39.026 15.2454C39.5196 15.0691 40.0636 15.195 40.4364 15.5627C40.8091 15.9304 40.93 16.4795 40.7537 16.9731L31.7878 42.0031C31.5359 42.7032 30.8761 43.1667 30.1356 43.1667C29.4204 43.1667 28.7756 42.7335 28.5087 42.0736L25.2749 34.1148C25.0482 33.5607 25.1489 32.926 25.5368 32.4726L30.2968 26.8108C30.5537 26.5035 30.5335 26.0552 30.2515 25.7731C29.9694 25.4911 29.5161 25.4709 29.2138 25.7278L23.5522 30.4779C23.0938 30.8607 22.4642 30.9615 21.9101 30.7398L13.9264 27.4908C13.2666 27.2239 12.8334 26.5791 12.8334 25.8638C12.8334 25.1233 13.2968 24.4635 13.9969 24.2116L39.026 15.2454Z" fill="#FFF9F5"/>
</svg>
