<svg width="56" height="76" viewBox="0 0 56 76" fill="none" xmlns="http://www.w3.org/2000/svg">
<path d="M56 28C56 43.464 43.464 56 28 56C12.536 56 0 43.464 0 28C0 12.536 12.536 0 28 0C43.464 0 56 12.536 56 28Z" fill="#FFD166"/>
<path d="M22.896 67.696C22.896 68.3307 22.7373 68.9093 22.42 69.432C22.112 69.9547 21.6827 70.37 21.132 70.678C20.5907 70.986 19.984 71.14 19.312 71.14C18.584 71.14 17.9447 70.9673 17.394 70.622C16.8527 70.2673 16.428 69.7587 16.12 69.096C15.8213 68.4333 15.672 67.6447 15.672 66.73C15.672 65.4607 15.826 64.4013 16.134 63.552C16.4513 62.7027 16.8947 62.0633 17.464 61.634C18.0333 61.2047 18.7007 60.99 19.466 60.99C20.1007 60.99 20.6793 61.1393 21.202 61.438C21.734 61.7273 22.1633 62.1333 22.49 62.656L21.58 63.608C21.3653 63.216 21.0667 62.908 20.684 62.684C20.3107 62.4507 19.8953 62.334 19.438 62.334C18.9807 62.334 18.5747 62.4693 18.22 62.74C17.8747 63.0013 17.604 63.384 17.408 63.888C17.2213 64.392 17.1233 65.0033 17.114 65.722C17.254 65.442 17.436 65.204 17.66 65.008C17.8933 64.8027 18.164 64.644 18.472 64.532C18.78 64.42 19.1067 64.364 19.452 64.364C20.1053 64.364 20.6887 64.5133 21.202 64.812C21.7247 65.1107 22.1353 65.512 22.434 66.016C22.742 66.5107 22.896 67.0707 22.896 67.696ZM19.312 69.824C19.6947 69.824 20.0447 69.7307 20.362 69.544C20.6887 69.348 20.9453 69.0867 21.132 68.76C21.328 68.4333 21.426 68.0787 21.426 67.696C21.426 67.3133 21.328 66.9633 21.132 66.646C20.9453 66.3287 20.6933 66.0767 20.376 65.89C20.0587 65.694 19.704 65.596 19.312 65.596C18.9387 65.596 18.5887 65.694 18.262 65.89C17.9353 66.0767 17.674 66.3287 17.478 66.646C17.2913 66.9633 17.198 67.3133 17.198 67.696C17.198 68.0787 17.296 68.4333 17.492 68.76C17.688 69.0773 17.9447 69.334 18.262 69.53C18.5887 69.726 18.9387 69.824 19.312 69.824ZM34.4529 71H32.9129V66.898C32.9129 66.2353 32.7916 65.7407 32.5489 65.414C32.3062 65.0873 31.9656 64.924 31.5269 64.924C31.2562 64.924 30.9762 64.9987 30.6869 65.148C30.3976 65.2973 30.1409 65.5027 29.9169 65.764C29.6929 66.016 29.5296 66.31 29.4269 66.646V71H27.8869V60.78H29.4269V65.148C29.7069 64.6533 30.0896 64.266 30.5749 63.986C31.0602 63.6967 31.5829 63.552 32.1429 63.552C32.6002 63.552 32.9782 63.6313 33.2769 63.79C33.5756 63.9487 33.8089 64.168 33.9769 64.448C34.1542 64.7187 34.2756 65.036 34.3409 65.4C34.4156 65.7547 34.4529 66.1327 34.4529 66.534V71ZM40.3564 65.008C39.7591 65.0173 39.2271 65.1527 38.7604 65.414C38.3031 65.6753 37.9764 66.044 37.7804 66.52V71H36.2404V63.678H37.6684V65.316C37.9204 64.812 38.2517 64.4107 38.6624 64.112C39.0731 63.804 39.5071 63.636 39.9644 63.608C40.0577 63.608 40.1324 63.608 40.1884 63.608C40.2537 63.608 40.3097 63.6127 40.3564 63.622V65.008Z" fill="#333333"/>
<path d="M18 12C16.8937 12 16 12.8937 16 14C16 15.1063 16.8937 16 18 16V16.6875C18 19.3375 19.0563 21.8813 20.9313 23.7563L25.175 28L20.9313 32.2437C19.0563 34.1187 18 36.6625 18 39.3125V40C16.8937 40 16 40.8937 16 42C16 43.1063 16.8937 44 18 44H38C39.1063 44 40 43.1063 40 42C40 40.8937 39.1063 40 38 40V39.3125C38 36.6625 36.9438 34.1187 35.0688 32.2437L30.825 28L35.0688 23.7563C36.9438 21.8813 38 19.3375 38 16.6875V16C39.1063 16 40 15.1063 40 14C40 12.8937 39.1063 12 38 12H18ZM34 39.3125V40H22V39.3125C22 37.7188 22.6312 36.1938 23.7562 35.0688L28 30.825L32.2437 35.0688C33.3687 36.1938 34 37.7188 34 39.3125Z" fill="#FFF9F5"/>
</svg>
