<?xml version="1.0" encoding="utf-8"?>
<!-- Generator: Adobe Illustrator 27.5.0, SVG Export Plug-In . SVG Version: 6.00 Build 0)  -->
<svg version="1.1" id="Layer_1" xmlns="http://www.w3.org/2000/svg" xmlns:xlink="http://www.w3.org/1999/xlink" x="0px" y="0px"
	 viewBox="0 0 56 76" style="enable-background:new 0 0 56 76;" xml:space="preserve">
<style type="text/css">
	.st0{fill:#333333;}
	.st1{fill:#FFD166;}
</style>
<path class="st0" d="M22.9,67.7c0,0.6-0.2,1.2-0.5,1.7c-0.3,0.5-0.7,0.9-1.3,1.2c-0.5,0.3-1.1,0.5-1.8,0.5c-0.7,0-1.4-0.2-1.9-0.5
	c-0.5-0.4-1-0.9-1.3-1.5c-0.3-0.7-0.4-1.5-0.4-2.4c0-1.3,0.2-2.3,0.5-3.2c0.3-0.8,0.8-1.5,1.3-1.9c0.6-0.4,1.2-0.6,2-0.6
	c0.6,0,1.2,0.1,1.7,0.4c0.5,0.3,1,0.7,1.3,1.2l-0.9,1c-0.2-0.4-0.5-0.7-0.9-0.9c-0.4-0.2-0.8-0.3-1.2-0.3s-0.9,0.1-1.2,0.4
	c-0.3,0.3-0.6,0.6-0.8,1.1c-0.2,0.5-0.3,1.1-0.3,1.8c0.1-0.3,0.3-0.5,0.5-0.7c0.2-0.2,0.5-0.4,0.8-0.5s0.6-0.2,1-0.2
	c0.7,0,1.2,0.1,1.8,0.4c0.5,0.3,0.9,0.7,1.2,1.2C22.7,66.5,22.9,67.1,22.9,67.7z M19.3,69.8c0.4,0,0.7-0.1,1-0.3
	c0.3-0.2,0.6-0.5,0.8-0.8c0.2-0.3,0.3-0.7,0.3-1.1s-0.1-0.7-0.3-1c-0.2-0.3-0.4-0.6-0.8-0.8c-0.3-0.2-0.7-0.3-1.1-0.3
	c-0.4,0-0.7,0.1-1.1,0.3c-0.3,0.2-0.6,0.4-0.8,0.8c-0.2,0.3-0.3,0.7-0.3,1s0.1,0.7,0.3,1.1c0.2,0.3,0.5,0.6,0.8,0.8
	C18.6,69.7,18.9,69.8,19.3,69.8z M34.5,71h-1.5v-4.1c0-0.7-0.1-1.2-0.4-1.5c-0.2-0.3-0.6-0.5-1-0.5c-0.3,0-0.6,0.1-0.8,0.2
	c-0.3,0.1-0.5,0.4-0.8,0.6c-0.2,0.3-0.4,0.5-0.5,0.9V71h-1.5V60.8h1.5v4.4c0.3-0.5,0.7-0.9,1.1-1.2c0.5-0.3,1-0.4,1.6-0.4
	c0.5,0,0.8,0.1,1.1,0.2c0.3,0.2,0.5,0.4,0.7,0.7c0.2,0.3,0.3,0.6,0.4,1c0.1,0.4,0.1,0.7,0.1,1.1V71z M40.4,65
	c-0.6,0-1.1,0.1-1.6,0.4c-0.5,0.3-0.8,0.6-1,1.1V71h-1.5v-7.3h1.4v1.6c0.3-0.5,0.6-0.9,1-1.2c0.4-0.3,0.8-0.5,1.3-0.5
	c0.1,0,0.2,0,0.2,0c0.1,0,0.1,0,0.2,0V65z"/>
<g>
	<path class="st1" d="M23.8,35.1c-1.1,1.1-1.8,2.7-1.8,4.2V40h12v-0.7c0-1.6-0.6-3.1-1.8-4.2L28,30.8L23.8,35.1z"/>
	<path class="st1" d="M28,0C12.5,0,0,12.5,0,28s12.5,28,28,28s28-12.5,28-28S43.5,0,28,0z M35.1,32.2c1.9,1.9,2.9,4.4,2.9,7.1V40
		c1.1,0,2,0.9,2,2s-0.9,2-2,2H18c-1.1,0-2-0.9-2-2s0.9-2,2-2v-0.7c0-2.7,1.1-5.2,2.9-7.1l4.2-4.2l-4.2-4.2c-1.9-1.9-2.9-4.4-2.9-7.1
		V16c-1.1,0-2-0.9-2-2s0.9-2,2-2h20c1.1,0,2,0.9,2,2s-0.9,2-2,2v0.7c0,2.7-1.1,5.2-2.9,7.1L30.8,28L35.1,32.2z"/>
</g>
</svg>
