<svg width="56" height="76" viewBox="0 0 56 76" fill="none" xmlns="http://www.w3.org/2000/svg">
<path d="M56 28C56 43.464 43.464 56 28 56C12.536 56 0 43.464 0 28C0 12.536 12.536 0 28 0C43.464 0 56 12.536 56 28Z" fill="#FFD166"/>
<path d="M21.166 67.696C21.558 67.7613 21.8987 67.9107 22.188 68.144C22.4867 68.368 22.7153 68.6573 22.874 69.012C23.0327 69.3573 23.112 69.7493 23.112 70.188C23.112 70.7667 22.9673 71.2707 22.678 71.7C22.398 72.1293 21.9967 72.4607 21.474 72.694C20.9513 72.9367 20.3353 73.058 19.626 73.058C18.9167 73.058 18.2913 72.932 17.75 72.68C17.2087 72.4373 16.7747 72.0827 16.448 71.616L17.386 70.552C17.61 70.888 17.8993 71.154 18.254 71.35C18.6087 71.5553 19.0567 71.658 19.598 71.658C20.2047 71.658 20.676 71.5273 21.012 71.266C21.348 71.0047 21.516 70.6127 21.516 70.09C21.516 69.5487 21.3293 69.124 20.956 68.816C20.592 68.508 20.0413 68.354 19.304 68.354H18.926V67.15H19.346C19.9713 67.15 20.452 67.0053 20.788 66.716C21.124 66.4173 21.292 66.044 21.292 65.596C21.292 65.2973 21.222 65.0547 21.082 64.868C20.9513 64.672 20.7647 64.5273 20.522 64.434C20.2793 64.3407 19.9993 64.294 19.682 64.294C19.206 64.294 18.786 64.3967 18.422 64.602C18.058 64.8073 17.7687 65.1013 17.554 65.484L16.588 64.434C16.7747 64.1353 17.0313 63.874 17.358 63.65C17.6847 63.426 18.058 63.2533 18.478 63.132C18.9073 63.0013 19.36 62.936 19.836 62.936C20.452 62.936 20.9933 63.0387 21.46 63.244C21.9267 63.4493 22.286 63.7387 22.538 64.112C22.7993 64.4853 22.93 64.924 22.93 65.428C22.93 65.792 22.86 66.1373 22.72 66.464C22.58 66.7813 22.3747 67.052 22.104 67.276C21.8333 67.4907 21.5207 67.6307 21.166 67.696ZM34.6326 71H33.0926V66.898C33.0926 66.2353 32.9712 65.7407 32.7286 65.414C32.4859 65.0873 32.1452 64.924 31.7066 64.924C31.4359 64.924 31.1559 64.9987 30.8666 65.148C30.5772 65.2973 30.3206 65.5027 30.0966 65.764C29.8726 66.016 29.7092 66.31 29.6066 66.646V71H28.0666V60.78H29.6066V65.148C29.8866 64.6533 30.2692 64.266 30.7546 63.986C31.2399 63.6967 31.7626 63.552 32.3226 63.552C32.7799 63.552 33.1579 63.6313 33.4566 63.79C33.7552 63.9487 33.9886 64.168 34.1566 64.448C34.3339 64.7187 34.4552 65.036 34.5206 65.4C34.5952 65.7547 34.6326 66.1327 34.6326 66.534V71ZM40.5361 65.008C39.9388 65.0173 39.4068 65.1527 38.9401 65.414C38.4828 65.6753 38.1561 66.044 37.9601 66.52V71H36.4201V63.678H37.8481V65.316C38.1001 64.812 38.4314 64.4107 38.8421 64.112C39.2528 63.804 39.6868 63.636 40.1441 63.608C40.2374 63.608 40.3121 63.608 40.3681 63.608C40.4334 63.608 40.4894 63.6127 40.5361 63.622V65.008Z" fill="#333333"/>
<path d="M18 12C16.8937 12 16 12.8937 16 14C16 15.1063 16.8937 16 18 16V16.6875C18 19.3375 19.0563 21.8813 20.9313 23.7563L25.175 28L20.9313 32.2437C19.0563 34.1187 18 36.6625 18 39.3125V40C16.8937 40 16 40.8937 16 42C16 43.1063 16.8937 44 18 44H38C39.1063 44 40 43.1063 40 42C40 40.8937 39.1063 40 38 40V39.3125C38 36.6625 36.9438 34.1187 35.0688 32.2437L30.825 28L35.0688 23.7563C36.9438 21.8813 38 19.3375 38 16.6875V16C39.1063 16 40 15.1063 40 14C40 12.8937 39.1063 12 38 12H18ZM22 16.6875V16H34V16.6875C34 17.875 33.65 19.025 33 20H23C22.3562 19.025 22 17.875 22 16.6875ZM23 36C23.2188 35.6687 23.475 35.3563 23.7562 35.0688L28 30.825L32.2437 35.0688C32.5312 35.3563 32.7813 35.6687 33.0063 36H23Z" fill="#FFF9F5"/>
</svg>
