<svg width="56" height="76" viewBox="0 0 56 76" fill="none" xmlns="http://www.w3.org/2000/svg">
<path d="M19.414 62.446H16.11V71H14.528V62.446H11.21V61.06H19.414V62.446ZM20.551 71V63.678H22.091V71H20.551ZM20.551 62.474V60.78H22.091V62.474H20.551ZM28.0576 65.008C27.4602 65.0173 26.9282 65.1527 26.4616 65.414C26.0042 65.6753 25.6776 66.044 25.4816 66.52V71H23.9416V63.678H25.3696V65.316C25.6216 64.812 25.9529 64.4107 26.3636 64.112C26.7742 63.804 27.2082 63.636 27.6656 63.608C27.7589 63.608 27.8336 63.608 27.8896 63.608C27.9549 63.608 28.0109 63.6127 28.0576 63.622V65.008ZM32.3592 71.14C31.7899 71.14 31.2719 71.042 30.8052 70.846C30.3479 70.6407 29.9512 70.3653 29.6152 70.02C29.2792 69.6653 29.0179 69.264 28.8312 68.816C28.6539 68.3587 28.5652 67.8733 28.5652 67.36C28.5652 66.6693 28.7239 66.0393 29.0412 65.47C29.3585 64.8913 29.8019 64.4293 30.3712 64.084C30.9405 63.7293 31.6079 63.552 32.3732 63.552C33.1385 63.552 33.7965 63.7293 34.3472 64.084C34.9072 64.4293 35.3412 64.8867 35.6492 65.456C35.9572 66.0253 36.1112 66.6367 36.1112 67.29C36.1112 67.402 36.1065 67.5093 36.0972 67.612C36.0879 67.7053 36.0785 67.7847 36.0692 67.85H30.2032C30.2312 68.2793 30.3479 68.6573 30.5532 68.984C30.7679 69.3013 31.0385 69.5533 31.3652 69.74C31.6919 69.9173 32.0419 70.006 32.4152 70.006C32.8259 70.006 33.2132 69.9033 33.5772 69.698C33.9505 69.4927 34.2025 69.222 34.3332 68.886L35.6492 69.264C35.4905 69.6187 35.2479 69.9407 34.9212 70.23C34.6039 70.51 34.2259 70.734 33.7872 70.902C33.3485 71.0607 32.8725 71.14 32.3592 71.14ZM30.1612 66.828H34.5852C34.5572 66.408 34.4359 66.0393 34.2212 65.722C34.0159 65.3953 33.7499 65.1433 33.4232 64.966C33.1059 64.7793 32.7512 64.686 32.3592 64.686C31.9765 64.686 31.6219 64.7793 31.2952 64.966C30.9779 65.1433 30.7165 65.3953 30.5112 65.722C30.3059 66.0393 30.1892 66.408 30.1612 66.828ZM36.9054 67.346C36.9054 66.646 37.0454 66.0113 37.3254 65.442C37.6147 64.8633 38.0067 64.406 38.5014 64.07C38.996 63.7247 39.5654 63.552 40.2094 63.552C40.7694 63.552 41.2734 63.6967 41.7214 63.986C42.1787 64.2753 42.5334 64.6347 42.7854 65.064V60.78H44.3254V69.264C44.3254 69.4413 44.358 69.5673 44.4234 69.642C44.4887 69.7167 44.596 69.7587 44.7454 69.768V71C44.456 71.0467 44.232 71.07 44.0734 71.07C43.784 71.07 43.5367 70.986 43.3314 70.818C43.1354 70.65 43.0327 70.4493 43.0234 70.216L43.0094 69.67C42.7294 70.1367 42.3514 70.5007 41.8754 70.762C41.3994 71.014 40.9047 71.14 40.3914 71.14C39.8874 71.14 39.4207 71.042 38.9914 70.846C38.5714 70.65 38.2027 70.3747 37.8854 70.02C37.5774 69.6653 37.3347 69.2593 37.1574 68.802C36.9894 68.3447 36.9054 67.8593 36.9054 67.346ZM42.7854 68.368V66.45C42.6827 66.1513 42.5147 65.8853 42.2814 65.652C42.0574 65.4093 41.8007 65.218 41.5114 65.078C41.2314 64.938 40.9514 64.868 40.6714 64.868C40.3447 64.868 40.046 64.938 39.7754 65.078C39.514 65.218 39.2854 65.4047 39.0894 65.638C38.9027 65.8713 38.758 66.1373 38.6554 66.436C38.5527 66.7347 38.5014 67.0473 38.5014 67.374C38.5014 67.71 38.5574 68.0273 38.6694 68.326C38.7814 68.6153 38.94 68.8767 39.1454 69.11C39.36 69.334 39.6027 69.5113 39.8734 69.642C40.1534 69.7633 40.4567 69.824 40.7834 69.824C40.9887 69.824 41.194 69.7867 41.3994 69.712C41.614 69.6373 41.8147 69.5347 42.0014 69.404C42.1974 69.2733 42.3607 69.1193 42.4914 68.942C42.6314 68.7647 42.7294 68.5733 42.7854 68.368Z" fill="#333333"/>
<path d="M50.75 28C50.75 21.9663 48.3531 16.1798 44.0867 11.9133C39.8202 7.64687 34.0337 5.25 28 5.25C21.9663 5.25 16.1798 7.64687 11.9133 11.9133C7.64687 16.1798 5.25 21.9663 5.25 28C5.25 34.0337 7.64687 39.8202 11.9133 44.0867C16.1798 48.3531 21.9663 50.75 28 50.75C34.0337 50.75 39.8202 48.3531 44.0867 44.0867C48.3531 39.8202 50.75 34.0337 50.75 28ZM0 28C0 20.5739 2.94999 13.452 8.20101 8.20101C13.452 2.94999 20.5739 0 28 0C35.4261 0 42.548 2.94999 47.799 8.20101C53.05 13.452 56 20.5739 56 28C56 35.4261 53.05 42.548 47.799 47.799C42.548 53.05 35.4261 56 28 56C20.5739 56 13.452 53.05 8.20101 47.799C2.94999 42.548 0 35.4261 0 28ZM19.3047 35.0328C21.4484 33.0422 24.4781 31.5 28 31.5C31.5219 31.5 34.5516 33.0422 36.6953 35.0328C38.7734 36.9797 40.25 39.5938 40.25 42C40.25 42.5906 39.9547 43.1375 39.4625 43.4656C38.9703 43.7938 38.3469 43.8375 37.8 43.6078L35.9188 42.7875C33.425 41.6938 30.7234 41.1359 28 41.1359C25.2766 41.1359 22.575 41.7047 20.0813 42.7875L18.2 43.6078C17.6641 43.8484 17.0297 43.7938 16.5375 43.4656C16.0453 43.1375 15.75 42.5906 15.75 42C15.75 39.5938 17.2266 36.9797 19.3047 35.0328ZM13.4094 17.4125C13.9016 16.6687 14.8641 16.4062 15.6625 16.8109L24.3687 21.1859C24.9594 21.4812 25.3313 22.0828 25.3313 22.75C25.3313 23.4172 24.9594 24.0188 24.3687 24.3141L15.6625 28.6891C14.8641 29.0828 13.9016 28.8312 13.4094 28.0875C12.9172 27.3437 13.0703 26.3484 13.7484 25.7797L17.3906 22.75L13.7594 19.7203C13.0813 19.1516 12.9281 18.1562 13.4203 17.4125H13.4094ZM42.2406 19.7203L38.6094 22.75L42.2406 25.7797C42.9188 26.3484 43.0719 27.3437 42.5797 28.0875C42.0875 28.8312 41.125 29.0937 40.3266 28.6891L31.6203 24.3141C31.0297 24.0188 30.6578 23.4172 30.6578 22.75C30.6578 22.0828 31.0297 21.4812 31.6203 21.1859L40.3266 16.8109C41.125 16.4172 42.0875 16.6687 42.5797 17.4125C43.0719 18.1562 42.9188 19.1516 42.2406 19.7203Z" fill="#6ED3CF"/>
</svg>
