<svg width="48" height="48" viewBox="0 0 48 48" fill="none" xmlns="http://www.w3.org/2000/svg">
<path d="M43.5 24C43.5 18.8283 41.4455 13.8684 37.7886 10.2114C34.1316 6.55446 29.1717 4.5 24 4.5C18.8283 4.5 13.8684 6.55446 10.2114 10.2114C6.55446 13.8684 4.5 18.8283 4.5 24C4.5 29.1717 6.55446 34.1316 10.2114 37.7886C13.8684 41.4455 18.8283 43.5 24 43.5C29.1717 43.5 34.1316 41.4455 37.7886 37.7886C41.4455 34.1316 43.5 29.1717 43.5 24ZM0 24C0 17.6348 2.52856 11.5303 7.02944 7.02944C11.5303 2.52856 17.6348 0 24 0C30.3652 0 36.4697 2.52856 40.9706 7.02944C45.4714 11.5303 48 17.6348 48 24C48 30.3652 45.4714 36.4697 40.9706 40.9706C36.4697 45.4714 30.3652 48 24 48C17.6348 48 11.5303 45.4714 7.02944 40.9706C2.52856 36.4697 0 30.3652 0 24ZM16.5469 30.0281C18.3844 28.3219 20.9812 27 24 27C27.0188 27 29.6156 28.3219 31.4531 30.0281C33.2344 31.6969 34.5 33.9375 34.5 36C34.5 36.5063 34.2469 36.975 33.825 37.2562C33.4031 37.5375 32.8688 37.575 32.4 37.3781L30.7875 36.675C28.65 35.7375 26.3344 35.2594 24 35.2594C21.6656 35.2594 19.35 35.7469 17.2125 36.675L15.6 37.3781C15.1406 37.5844 14.5969 37.5375 14.175 37.2562C13.7531 36.975 13.5 36.5063 13.5 36C13.5 33.9375 14.7656 31.6969 16.5469 30.0281ZM11.4937 14.925C11.9156 14.2875 12.7406 14.0625 13.425 14.4094L20.8875 18.1594C21.3938 18.4125 21.7125 18.9281 21.7125 19.5C21.7125 20.0719 21.3938 20.5875 20.8875 20.8406L13.425 24.5906C12.7406 24.9281 11.9156 24.7125 11.4937 24.075C11.0719 23.4375 11.2031 22.5844 11.7844 22.0969L14.9062 19.5L11.7938 16.9031C11.2125 16.4156 11.0812 15.5625 11.5031 14.925H11.4937ZM36.2063 16.9031L33.0938 19.5L36.2063 22.0969C36.7875 22.5844 36.9187 23.4375 36.4969 24.075C36.075 24.7125 35.25 24.9375 34.5656 24.5906L27.1031 20.8406C26.5969 20.5875 26.2781 20.0719 26.2781 19.5C26.2781 18.9281 26.5969 18.4125 27.1031 18.1594L34.5656 14.4094C35.25 14.0719 36.075 14.2875 36.4969 14.925C36.9187 15.5625 36.7875 16.4156 36.2063 16.9031Z" fill="currentColor"/>
</svg>
