<svg width="56" height="76" viewBox="0 0 56 76" fill="none" xmlns="http://www.w3.org/2000/svg">
<path d="M56 28C56 43.464 43.464 56 28 56C12.536 56 0 43.464 0 28C0 12.536 12.536 0 28 0C43.464 0 56 12.536 56 28Z" fill="#FFD166"/>
<path d="M18.258 69.614V71H12.91V69.614H14.898V64.728C14.814 64.84 14.6833 64.9567 14.506 65.078C14.3287 65.1993 14.128 65.316 13.904 65.428C13.6893 65.5307 13.47 65.6147 13.246 65.68C13.022 65.7453 12.8167 65.778 12.63 65.778V64.336C12.8167 64.336 13.0313 64.28 13.274 64.168C13.5167 64.056 13.7547 63.9253 13.988 63.776C14.2307 63.6173 14.436 63.468 14.604 63.328C14.772 63.1787 14.87 63.0713 14.898 63.006H16.48V69.614H18.258ZM19.1498 71C19.1498 70.608 19.1825 70.2487 19.2478 69.922C19.3132 69.586 19.4252 69.2687 19.5838 68.97C19.7518 68.6713 19.9805 68.3913 20.2698 68.13C20.5685 67.8593 20.9465 67.6027 21.4038 67.36C21.7305 67.1733 22.0385 67.01 22.3278 66.87C22.6172 66.7207 22.8738 66.576 23.0978 66.436C23.3218 66.2867 23.4945 66.128 23.6158 65.96C23.7465 65.792 23.8118 65.6007 23.8118 65.386C23.8118 65.1807 23.7558 64.9893 23.6438 64.812C23.5318 64.6347 23.3638 64.4947 23.1398 64.392C22.9158 64.28 22.6452 64.224 22.3278 64.224C22.0758 64.224 21.8425 64.2567 21.6278 64.322C21.4225 64.3873 21.2312 64.476 21.0538 64.588C20.8858 64.6907 20.7318 64.8073 20.5918 64.938C20.4518 65.0593 20.3305 65.1807 20.2278 65.302L19.2618 64.196C19.3552 64.084 19.4998 63.958 19.6958 63.818C19.9012 63.6687 20.1438 63.524 20.4238 63.384C20.7132 63.2347 21.0398 63.1133 21.4038 63.02C21.7678 62.9173 22.1645 62.866 22.5938 62.866C23.2005 62.866 23.7185 62.9687 24.1478 63.174C24.5772 63.37 24.9038 63.6453 25.1278 64C25.3612 64.3453 25.4778 64.7373 25.4778 65.176C25.4778 65.5213 25.4078 65.8247 25.2678 66.086C25.1372 66.3473 24.9645 66.5807 24.7498 66.786C24.5352 66.982 24.3065 67.1547 24.0638 67.304C23.8305 67.444 23.6112 67.57 23.4058 67.682C23.0418 67.8593 22.7245 68.0227 22.4538 68.172C22.1925 68.3213 21.9685 68.4707 21.7818 68.62C21.5952 68.76 21.4412 68.9093 21.3198 69.068C21.1985 69.2173 21.0958 69.3993 21.0118 69.614H25.6318V71H19.1498ZM37.2224 71H35.6824V66.898C35.6824 66.2353 35.5611 65.7407 35.3184 65.414C35.0758 65.0873 34.7351 64.924 34.2964 64.924C34.0258 64.924 33.7458 64.9987 33.4564 65.148C33.1671 65.2973 32.9104 65.5027 32.6864 65.764C32.4624 66.016 32.2991 66.31 32.1964 66.646V71H30.6564V60.78H32.1964V65.148C32.4764 64.6533 32.8591 64.266 33.3444 63.986C33.8298 63.6967 34.3524 63.552 34.9124 63.552C35.3698 63.552 35.7478 63.6313 36.0464 63.79C36.3451 63.9487 36.5784 64.168 36.7464 64.448C36.9238 64.7187 37.0451 65.036 37.1104 65.4C37.1851 65.7547 37.2224 66.1327 37.2224 66.534V71ZM43.1259 65.008C42.5286 65.0173 41.9966 65.1527 41.5299 65.414C41.0726 65.6753 40.7459 66.044 40.5499 66.52V71H39.0099V63.678H40.4379V65.316C40.6899 64.812 41.0213 64.4107 41.4319 64.112C41.8426 63.804 42.2766 63.636 42.7339 63.608C42.8273 63.608 42.9019 63.608 42.9579 63.608C43.0233 63.608 43.0793 63.6127 43.1259 63.622V65.008Z" fill="#333333"/>
<path d="M18 12C16.8937 12 16 12.8937 16 14C16 15.1063 16.8937 16 18 16V16.6875C18 19.3375 19.0563 21.8813 20.9313 23.7563L25.175 28L20.9313 32.2437C19.0563 34.1187 18 36.6625 18 39.3125V40C16.8937 40 16 40.8937 16 42C16 43.1063 16.8937 44 18 44H38C39.1063 44 40 43.1063 40 42C40 40.8937 39.1063 40 38 40V39.3125C38 36.6625 36.9438 34.1187 35.0688 32.2437L30.825 28L35.0688 23.7563C36.9438 21.8813 38 19.3375 38 16.6875V16C39.1063 16 40 15.1063 40 14C40 12.8937 39.1063 12 38 12H18ZM34 39.3125V40H22V39.3125C22 37.7188 22.6312 36.1938 23.7562 35.0688L28 30.825L32.2437 35.0688C33.3687 36.1938 34 37.7188 34 39.3125Z" fill="#FFF9F5"/>
</svg>
