<svg width="56" height="76" viewBox="0 0 56 76" fill="none" xmlns="http://www.w3.org/2000/svg">
<path d="M56 28C56 43.464 43.464 56 28 56C12.536 56 0 43.464 0 28C0 12.536 12.536 0 28 0C43.464 0 56 12.536 56 28Z" fill="#FFD166"/>
<path d="M16.56 71C16.56 70.608 16.5927 70.2487 16.658 69.922C16.7233 69.586 16.8353 69.2687 16.994 68.97C17.162 68.6713 17.3907 68.3913 17.68 68.13C17.9787 67.8593 18.3567 67.6027 18.814 67.36C19.1407 67.1733 19.4487 67.01 19.738 66.87C20.0273 66.7207 20.284 66.576 20.508 66.436C20.732 66.2867 20.9047 66.128 21.026 65.96C21.1567 65.792 21.222 65.6007 21.222 65.386C21.222 65.1807 21.166 64.9893 21.054 64.812C20.942 64.6347 20.774 64.4947 20.55 64.392C20.326 64.28 20.0553 64.224 19.738 64.224C19.486 64.224 19.2527 64.2567 19.038 64.322C18.8327 64.3873 18.6413 64.476 18.464 64.588C18.296 64.6907 18.142 64.8073 18.002 64.938C17.862 65.0593 17.7407 65.1807 17.638 65.302L16.672 64.196C16.7653 64.084 16.91 63.958 17.106 63.818C17.3113 63.6687 17.554 63.524 17.834 63.384C18.1233 63.2347 18.45 63.1133 18.814 63.02C19.178 62.9173 19.5747 62.866 20.004 62.866C20.6107 62.866 21.1287 62.9687 21.558 63.174C21.9873 63.37 22.314 63.6453 22.538 64C22.7713 64.3453 22.888 64.7373 22.888 65.176C22.888 65.5213 22.818 65.8247 22.678 66.086C22.5473 66.3473 22.3747 66.5807 22.16 66.786C21.9453 66.982 21.7167 67.1547 21.474 67.304C21.2407 67.444 21.0213 67.57 20.816 67.682C20.452 67.8593 20.1347 68.0227 19.864 68.172C19.6027 68.3213 19.3787 68.4707 19.192 68.62C19.0053 68.76 18.8513 68.9093 18.73 69.068C18.6087 69.2173 18.506 69.3993 18.422 69.614H23.042V71H16.56ZM34.6326 71H33.0926V66.898C33.0926 66.2353 32.9712 65.7407 32.7286 65.414C32.4859 65.0873 32.1452 64.924 31.7066 64.924C31.4359 64.924 31.1559 64.9987 30.8666 65.148C30.5772 65.2973 30.3206 65.5027 30.0966 65.764C29.8726 66.016 29.7092 66.31 29.6066 66.646V71H28.0666V60.78H29.6066V65.148C29.8866 64.6533 30.2692 64.266 30.7546 63.986C31.2399 63.6967 31.7626 63.552 32.3226 63.552C32.7799 63.552 33.1579 63.6313 33.4566 63.79C33.7552 63.9487 33.9886 64.168 34.1566 64.448C34.3339 64.7187 34.4552 65.036 34.5206 65.4C34.5952 65.7547 34.6326 66.1327 34.6326 66.534V71ZM40.5361 65.008C39.9388 65.0173 39.4068 65.1527 38.9401 65.414C38.4828 65.6753 38.1561 66.044 37.9601 66.52V71H36.4201V63.678H37.8481V65.316C38.1001 64.812 38.4314 64.4107 38.8421 64.112C39.2528 63.804 39.6868 63.636 40.1441 63.608C40.2374 63.608 40.3121 63.608 40.3681 63.608C40.4334 63.608 40.4894 63.6127 40.5361 63.622V65.008Z" fill="#333333"/>
<path d="M18 12C16.8937 12 16 12.8937 16 14C16 15.1063 16.8937 16 18 16V16.6875C18 19.3375 19.0563 21.8813 20.9313 23.7563L25.175 28L20.9313 32.2437C19.0563 34.1187 18 36.6625 18 39.3125V40C16.8937 40 16 40.8937 16 42C16 43.1063 16.8937 44 18 44H38C39.1063 44 40 43.1063 40 42C40 40.8937 39.1063 40 38 40V39.3125C38 36.6625 36.9438 34.1187 35.0688 32.2437L30.825 28L35.0688 23.7563C36.9438 21.8813 38 19.3375 38 16.6875V16C39.1063 16 40 15.1063 40 14C40 12.8937 39.1063 12 38 12H18ZM22 16.6875V16H34V16.6875C34 17.875 33.65 19.025 33 20H23C22.3562 19.025 22 17.875 22 16.6875ZM23 36C23.2188 35.6687 23.475 35.3563 23.7562 35.0688L28 30.825L32.2437 35.0688C32.5312 35.3563 32.7813 35.6687 33.0063 36H23Z" fill="#FFF9F5"/>
</svg>
