<svg width="48" height="48" viewBox="0 0 48 48" fill="none" xmlns="http://www.w3.org/2000/svg">
<path d="M24 4.5C29.1717 4.5 34.1316 6.55446 37.7886 10.2114C41.4455 13.8684 43.5 18.8283 43.5 24C43.5 29.1717 41.4455 34.1316 37.7886 37.7886C34.1316 41.4455 29.1717 43.5 24 43.5C18.8283 43.5 13.8684 41.4455 10.2114 37.7886C6.55446 34.1316 4.5 29.1717 4.5 24C4.5 18.8283 6.55446 13.8684 10.2114 10.2114C13.8684 6.55446 18.8283 4.5 24 4.5ZM24 48C30.3652 48 36.4697 45.4714 40.9706 40.9706C45.4714 36.4697 48 30.3652 48 24C48 17.6348 45.4714 11.5303 40.9706 7.02944C36.4697 2.52856 30.3652 0 24 0C17.6348 0 11.5303 2.52856 7.02944 7.02944C2.52856 11.5303 0 17.6348 0 24C0 30.3652 2.52856 36.4697 7.02944 40.9706C11.5303 45.4714 17.6348 48 24 48ZM24 34.5C26.2594 34.5 28.2563 35.6063 29.4844 37.3125C30.2062 38.325 31.6125 38.55 32.625 37.8281C33.6375 37.1063 33.8625 35.7 33.1406 34.6875C31.1063 31.8563 27.7687 30 24 30C20.2313 30 16.9031 31.8563 14.8594 34.6875C14.1375 35.7 14.3625 37.1063 15.375 37.8281C16.3875 38.55 17.7938 38.325 18.5156 37.3125C19.7437 35.6063 21.7406 34.5 24 34.5ZM16.5 25.5C18.1594 25.5 19.5 24.1594 19.5 22.5V22.4719L20.4094 22.7719C21.3937 23.1 22.4531 22.5656 22.7812 21.5906C23.1094 20.6156 22.575 19.5469 21.6 19.2188L12.6 16.2188C11.6156 15.8906 10.5562 16.425 10.2281 17.4C9.9 18.375 10.4344 19.4437 11.4094 19.7719L14.1188 20.6719C13.7344 21.1781 13.5 21.8062 13.5 22.4906C13.5 24.15 14.8406 25.4906 16.5 25.4906V25.5ZM34.5 22.5C34.5 21.8156 34.275 21.1875 33.8812 20.6813L36.5906 19.7812C37.575 19.4531 38.1 18.3937 37.7719 17.4094C37.4437 16.425 36.3844 15.9 35.4 16.2281L26.4 19.2281C25.4156 19.5563 24.8906 20.6156 25.2188 21.6C25.5469 22.5844 26.6062 23.1094 27.5906 22.7812L28.5 22.4813V22.5094C28.5 24.1688 29.8406 25.5094 31.5 25.5094C33.1594 25.5094 34.5 24.1688 34.5 22.5094V22.5Z" fill="#6ED3CF"/>
</svg>
