<svg width="56" height="76" viewBox="0 0 56 76" fill="none" xmlns="http://www.w3.org/2000/svg">
<path d="M13.264 71.07C12.4707 71.07 11.7987 70.9347 11.248 70.664C10.7067 70.3933 10.268 70.0247 9.932 69.558C9.60533 69.0913 9.36267 68.5593 9.204 67.962C9.05467 67.3647 8.98 66.744 8.98 66.1V61.06H10.548V66.1C10.548 66.5573 10.5947 67.0007 10.688 67.43C10.7813 67.85 10.9307 68.228 11.136 68.564C11.3413 68.9 11.6167 69.166 11.962 69.362C12.3167 69.558 12.7507 69.656 13.264 69.656C13.7867 69.656 14.2207 69.558 14.566 69.362C14.9207 69.1567 15.196 68.886 15.392 68.55C15.5973 68.2047 15.7467 67.822 15.84 67.402C15.9333 66.982 15.98 66.548 15.98 66.1V61.06H17.562V66.1C17.562 66.7813 17.478 67.4253 17.31 68.032C17.1513 68.6293 16.8993 69.1567 16.554 69.614C16.218 70.062 15.7793 70.4167 15.238 70.678C14.6967 70.9393 14.0387 71.07 13.264 71.07ZM23.4863 71.14C22.8983 71.14 22.3803 71 21.9323 70.72C21.4843 70.44 21.1296 70.076 20.8683 69.628V73.982H19.3283V63.678H20.6863V64.994C20.9663 64.5553 21.3303 64.2053 21.7783 63.944C22.2263 63.6827 22.7256 63.552 23.2763 63.552C23.7803 63.552 24.2423 63.6547 24.6623 63.86C25.0823 64.056 25.4463 64.3313 25.7543 64.686C26.0623 65.0407 26.3003 65.4467 26.4683 65.904C26.6456 66.352 26.7343 66.828 26.7343 67.332C26.7343 68.032 26.5943 68.6713 26.3143 69.25C26.0436 69.8287 25.661 70.2907 25.1663 70.636C24.681 70.972 24.121 71.14 23.4863 71.14ZM22.9823 69.824C23.309 69.824 23.603 69.754 23.8643 69.614C24.135 69.474 24.3636 69.2873 24.5503 69.054C24.7463 68.8207 24.8956 68.5547 24.9983 68.256C25.101 67.9573 25.1523 67.6493 25.1523 67.332C25.1523 66.996 25.0963 66.6787 24.9843 66.38C24.8723 66.0813 24.709 65.82 24.4943 65.596C24.289 65.372 24.0463 65.1947 23.7663 65.064C23.4956 64.9333 23.197 64.868 22.8703 64.868C22.6743 64.868 22.469 64.9053 22.2543 64.98C22.0396 65.0547 21.839 65.1573 21.6523 65.288C21.4656 65.4187 21.3023 65.5727 21.1623 65.75C21.0223 65.9273 20.9243 66.114 20.8683 66.31V68.228C20.999 68.5267 21.1716 68.7973 21.3863 69.04C21.601 69.2733 21.8483 69.4647 22.1283 69.614C22.4083 69.754 22.693 69.824 22.9823 69.824ZM30.7233 71.14C30.1073 71.14 29.524 71.042 28.9733 70.846C28.4226 70.6407 27.9513 70.3373 27.5593 69.936L28.1333 68.9C28.5533 69.2733 28.9733 69.544 29.3933 69.712C29.8226 69.88 30.2473 69.964 30.6673 69.964C31.0966 69.964 31.4466 69.8847 31.7173 69.726C31.988 69.558 32.1233 69.3153 32.1233 68.998C32.1233 68.7647 32.0533 68.592 31.9133 68.48C31.7733 68.368 31.568 68.27 31.2973 68.186C31.036 68.102 30.7186 68.0087 30.3453 67.906C29.8226 67.7473 29.384 67.584 29.0293 67.416C28.6746 67.2387 28.4086 67.024 28.2313 66.772C28.054 66.52 27.9653 66.198 27.9653 65.806C27.9653 65.33 28.0866 64.924 28.3293 64.588C28.572 64.252 28.908 63.9953 29.3373 63.818C29.776 63.6407 30.28 63.552 30.8493 63.552C31.3813 63.552 31.8713 63.636 32.3193 63.804C32.7766 63.9627 33.178 64.2147 33.5233 64.56L32.8653 65.582C32.5386 65.2833 32.2026 65.064 31.8573 64.924C31.5213 64.784 31.1573 64.714 30.7653 64.714C30.5413 64.714 30.3266 64.742 30.1213 64.798C29.916 64.8447 29.7433 64.938 29.6033 65.078C29.4726 65.2087 29.4073 65.3953 29.4073 65.638C29.4073 65.834 29.4633 65.9927 29.5753 66.114C29.6873 66.2353 29.8553 66.338 30.0793 66.422C30.3033 66.506 30.5786 66.5993 30.9053 66.702C31.4746 66.87 31.96 67.038 32.3613 67.206C32.7626 67.3647 33.0706 67.5747 33.2853 67.836C33.5093 68.088 33.6213 68.438 33.6213 68.886C33.6213 69.5953 33.3553 70.1507 32.8233 70.552C32.3006 70.944 31.6006 71.14 30.7233 71.14ZM38.3143 71.14C37.7449 71.14 37.2269 71.042 36.7603 70.846C36.3029 70.6407 35.9063 70.3653 35.5703 70.02C35.2343 69.6653 34.9729 69.264 34.7863 68.816C34.6089 68.3587 34.5203 67.8733 34.5203 67.36C34.5203 66.6693 34.6789 66.0393 34.9963 65.47C35.3136 64.8913 35.7569 64.4293 36.3263 64.084C36.8956 63.7293 37.5629 63.552 38.3283 63.552C39.0936 63.552 39.7516 63.7293 40.3023 64.084C40.8623 64.4293 41.2963 64.8867 41.6043 65.456C41.9123 66.0253 42.0663 66.6367 42.0663 67.29C42.0663 67.402 42.0616 67.5093 42.0523 67.612C42.0429 67.7053 42.0336 67.7847 42.0243 67.85H36.1583C36.1863 68.2793 36.3029 68.6573 36.5083 68.984C36.7229 69.3013 36.9936 69.5533 37.3203 69.74C37.6469 69.9173 37.9969 70.006 38.3703 70.006C38.7809 70.006 39.1683 69.9033 39.5323 69.698C39.9056 69.4927 40.1576 69.222 40.2883 68.886L41.6043 69.264C41.4456 69.6187 41.2029 69.9407 40.8763 70.23C40.5589 70.51 40.1809 70.734 39.7423 70.902C39.3036 71.0607 38.8276 71.14 38.3143 71.14ZM36.1163 66.828H40.5403C40.5123 66.408 40.3909 66.0393 40.1763 65.722C39.9709 65.3953 39.7049 65.1433 39.3783 64.966C39.0609 64.7793 38.7063 64.686 38.3143 64.686C37.9316 64.686 37.5769 64.7793 37.2503 64.966C36.9329 65.1433 36.6716 65.3953 36.4663 65.722C36.2609 66.0393 36.1443 66.408 36.1163 66.828ZM47.3281 70.622C47.1974 70.6873 47.0341 70.7573 46.8381 70.832C46.6421 70.9067 46.4181 70.972 46.1661 71.028C45.9234 71.084 45.6714 71.112 45.4101 71.112C45.0927 71.112 44.7987 71.056 44.5281 70.944C44.2574 70.832 44.0381 70.6547 43.8701 70.412C43.7114 70.16 43.6321 69.838 43.6321 69.446V64.868H42.6661V63.678H43.6321V61.27H45.1721V63.678H46.7681V64.868H45.1721V68.956C45.1907 69.208 45.2701 69.3947 45.4101 69.516C45.5594 69.6373 45.7414 69.698 45.9561 69.698C46.1707 69.698 46.3761 69.6607 46.5721 69.586C46.7681 69.5113 46.9127 69.4507 47.0061 69.404L47.3281 70.622Z" fill="#333333"/>
<path d="M28 5.25C34.0337 5.25 39.8202 7.64687 44.0867 11.9133C48.3531 16.1798 50.75 21.9663 50.75 28C50.75 34.0337 48.3531 39.8202 44.0867 44.0867C39.8202 48.3531 34.0337 50.75 28 50.75C21.9663 50.75 16.1798 48.3531 11.9133 44.0867C7.64687 39.8202 5.25 34.0337 5.25 28C5.25 21.9663 7.64687 16.1798 11.9133 11.9133C16.1798 7.64687 21.9663 5.25 28 5.25ZM28 56C35.4261 56 42.548 53.05 47.799 47.799C53.05 42.548 56 35.4261 56 28C56 20.5739 53.05 13.452 47.799 8.20101C42.548 2.94999 35.4261 0 28 0C20.5739 0 13.452 2.94999 8.20101 8.20101C2.94999 13.452 0 20.5739 0 28C0 35.4261 2.94999 42.548 8.20101 47.799C13.452 53.05 20.5739 56 28 56ZM28 40.25C30.6359 40.25 32.9656 41.5406 34.3984 43.5312C35.2406 44.7125 36.8812 44.975 38.0625 44.1328C39.2438 43.2906 39.5062 41.65 38.6641 40.4688C36.2906 37.1656 32.3969 35 28 35C23.6031 35 19.7203 37.1656 17.3359 40.4688C16.4937 41.65 16.7563 43.2906 17.9375 44.1328C19.1187 44.975 20.7594 44.7125 21.6016 43.5312C23.0344 41.5406 25.3641 40.25 28 40.25ZM19.25 29.75C21.1859 29.75 22.75 28.1859 22.75 26.25V26.2172L23.8109 26.5672C24.9594 26.95 26.1953 26.3266 26.5781 25.1891C26.9609 24.0516 26.3375 22.8047 25.2 22.4219L14.7 18.9219C13.5516 18.5391 12.3156 19.1625 11.9328 20.3C11.55 21.4375 12.1734 22.6844 13.3109 23.0672L16.4719 24.1172C16.0234 24.7078 15.75 25.4406 15.75 26.2391C15.75 28.175 17.3141 29.7391 19.25 29.7391V29.75ZM40.25 26.25C40.25 25.4516 39.9875 24.7188 39.5281 24.1281L42.6891 23.0781C43.8375 22.6953 44.45 21.4594 44.0672 20.3109C43.6844 19.1625 42.4484 18.55 41.3 18.9328L30.8 22.4328C29.6516 22.8156 29.0391 24.0516 29.4219 25.2C29.8047 26.3484 31.0406 26.9609 32.1891 26.5781L33.25 26.2281V26.2609C33.25 28.1969 34.8141 29.7609 36.75 29.7609C38.6859 29.7609 40.25 28.1969 40.25 26.2609V26.25Z" fill="currentColor"/>
</svg>
