<svg width="56" height="56" viewBox="0 0 56 56" fill="none" xmlns="http://www.w3.org/2000/svg">
<path d="M28 56C35.4261 56 42.548 53.05 47.799 47.799C53.05 42.548 56 35.4261 56 28C56 20.5739 53.05 13.452 47.799 8.20101C42.548 2.94999 35.4261 0 28 0C20.5739 0 13.452 2.94999 8.20101 8.20101C2.94999 13.452 0 20.5739 0 28C0 35.4261 2.94999 42.548 8.20101 47.799C13.452 53.05 20.5739 56 28 56ZM37.2313 23.2641L28.4812 37.2641C28.0219 37.9969 27.2344 38.4562 26.3703 38.5C25.5063 38.5438 24.675 38.15 24.1609 37.45L18.9109 30.45C18.0359 29.2906 18.2766 27.65 19.4359 26.775C20.5953 25.9 22.2359 26.1406 23.1109 27.3L26.0641 31.2375L32.7797 20.4859C33.5453 19.2609 35.1641 18.8781 36.4 19.6547C37.6359 20.4312 38.0078 22.0391 37.2313 23.275V23.2641Z" fill="#6ED3CF"/>
</svg>
